<svg width="20" height="20" viewBox="0 0 20 20" fill="none" xmlns="http://www.w3.org/2000/svg">
<path d="M3.90324 7.33333H16.0959M5.64504 12.6667H14.3541M3.36937 2H16.6298C16.7677 2.00011 16.9036 2.03365 17.0263 2.09786C17.1491 2.16207 17.2551 2.25511 17.3357 2.36933C17.4164 2.48355 17.4692 2.61568 17.49 2.75485C17.5108 2.89401 17.499 3.03622 17.4554 3.16978L13.0094 16.784C12.8938 17.1381 12.672 17.4462 12.3753 17.6644C12.0786 17.8827 11.7222 18.0001 11.3564 18H8.6427C8.27698 18.0001 7.92051 17.8827 7.62382 17.6644C7.32714 17.4462 7.10529 17.1381 6.98972 16.784L2.54463 3.16978C2.50107 3.03629 2.48917 2.89416 2.50993 2.75506C2.53068 2.61597 2.58349 2.48389 2.664 2.36969C2.74452 2.25549 2.85045 2.16243 2.97307 2.09816C3.0957 2.03389 3.23152 2.00025 3.36937 2Z" stroke="#BC8B41" stroke-width="1.2" stroke-linecap="round" stroke-linejoin="round"/>
</svg>
