<svg width="20" height="20" viewBox="0 0 20 20" fill="none" xmlns="http://www.w3.org/2000/svg">
<path d="M2.5 5.20833V14.7917C2.5 15.51 2.78534 16.1988 3.29325 16.7067C3.80116 17.2147 4.49004 17.5 5.20833 17.5H14.7917C15.51 17.5 16.1988 17.2147 16.7067 16.7067C17.2147 16.1988 17.5 15.51 17.5 14.7917V5.20833C17.5 4.49004 17.2147 3.80116 16.7067 3.29325C16.1988 2.78534 15.51 2.5 14.7917 2.5H5.20833C4.49004 2.5 3.80116 2.78534 3.29325 3.29325C2.78534 3.80116 2.5 4.49004 2.5 5.20833ZM12.9167 10C13.2482 10 13.5661 10.1317 13.8005 10.3661C14.035 10.6005 14.1667 10.9185 14.1667 11.25V11.6667C14.1667 13.3092 12.6167 15 10 15C7.38333 15 5.83333 13.3092 5.83333 11.6667V11.25C5.83333 10.9185 5.96503 10.6005 6.19945 10.3661C6.43387 10.1317 6.75181 10 7.08333 10H12.9167ZM10 4.58333C10.6078 4.58333 11.1907 4.82478 11.6205 5.25455C12.0502 5.68432 12.2917 6.26721 12.2917 6.875C12.2917 7.48279 12.0502 8.06568 11.6205 8.49545C11.1907 8.92522 10.6078 9.16667 10 9.16667C9.39221 9.16667 8.80932 8.92522 8.37955 8.49545C7.94978 8.06568 7.70833 7.48279 7.70833 6.875C7.70833 6.26721 7.94978 5.68432 8.37955 5.25455C8.80932 4.82478 9.39221 4.58333 10 4.58333Z" fill="#BC8B41"/>
</svg>
