<svg width="20" height="20" viewBox="0 0 20 20" fill="none" xmlns="http://www.w3.org/2000/svg">
<path d="M3 10C3 8.14348 3.7375 6.36301 5.05025 5.05025C6.36301 3.7375 8.14348 3 10 3C11.8565 3 13.637 3.7375 14.9497 5.05025C16.2625 6.36301 17 8.14348 17 10V14.4538C17 15.1958 17 15.565 16.8898 15.8616C16.8021 16.0967 16.6649 16.3101 16.4875 16.4875C16.3101 16.6649 16.0967 16.8021 15.8616 16.8898C15.565 17 15.1949 17 14.4538 17H10C8.14348 17 6.36301 16.2625 5.05025 14.9497C3.7375 13.637 3 11.8565 3 10Z" stroke="#BC8B41" stroke-width="1.2"/>
<path d="M7.56543 9.39111H13.0437M10.3046 13.0433H13.0437" stroke="#BC8B41" stroke-width="1.2" stroke-linecap="round" stroke-linejoin="round"/>
</svg>
