<svg width="20" height="20" viewBox="0 0 20 20" fill="none" xmlns="http://www.w3.org/2000/svg">
<path d="M7.5 2.5C7.94203 2.5 8.36595 2.67559 8.67851 2.98816C8.99107 3.30072 9.16667 3.72464 9.16667 4.16667V9.16667C9.16667 9.60869 8.99107 10.0326 8.67851 10.3452C8.36595 10.6577 7.94203 10.8333 7.5 10.8333H4.16667C3.72464 10.8333 3.30072 10.6577 2.98816 10.3452C2.67559 10.0326 2.5 9.60869 2.5 9.16667V4.16667C2.5 3.72464 2.67559 3.30072 2.98816 2.98816C3.30072 2.67559 3.72464 2.5 4.16667 2.5H7.5ZM7.5 12.5C7.94203 12.5 8.36595 12.6756 8.67851 12.9882C8.99107 13.3007 9.16667 13.7246 9.16667 14.1667V15.8333C9.16667 16.2754 8.99107 16.6993 8.67851 17.0118C8.36595 17.3244 7.94203 17.5 7.5 17.5H4.16667C3.72464 17.5 3.30072 17.3244 2.98816 17.0118C2.67559 16.6993 2.5 16.2754 2.5 15.8333V14.1667C2.5 13.7246 2.67559 13.3007 2.98816 12.9882C3.30072 12.6756 3.72464 12.5 4.16667 12.5H7.5ZM15.8333 9.16667C16.2754 9.16667 16.6993 9.34226 17.0118 9.65482C17.3244 9.96738 17.5 10.3913 17.5 10.8333V15.8333C17.5 16.2754 17.3244 16.6993 17.0118 17.0118C16.6993 17.3244 16.2754 17.5 15.8333 17.5H12.5C12.058 17.5 11.634 17.3244 11.3215 17.0118C11.0089 16.6993 10.8333 16.2754 10.8333 15.8333V10.8333C10.8333 10.3913 11.0089 9.96738 11.3215 9.65482C11.634 9.34226 12.058 9.16667 12.5 9.16667H15.8333ZM15.8333 2.5C16.2754 2.5 16.6993 2.67559 17.0118 2.98816C17.3244 3.30072 17.5 3.72464 17.5 4.16667V5.83333C17.5 6.27536 17.3244 6.69928 17.0118 7.01184C16.6993 7.3244 16.2754 7.5 15.8333 7.5H12.5C12.058 7.5 11.634 7.3244 11.3215 7.01184C11.0089 6.69928 10.8333 6.27536 10.8333 5.83333V4.16667C10.8333 3.72464 11.0089 3.30072 11.3215 2.98816C11.634 2.67559 12.058 2.5 12.5 2.5H15.8333Z" fill="#BC8B41"/>
</svg>
