<svg width="20" height="20" viewBox="0 0 20 20" fill="none" xmlns="http://www.w3.org/2000/svg">
<path d="M4.64286 4.88462C4.64286 3.84431 5.48286 3 6.51786 3H12.4107C13.4457 3 14.2857 3.84431 14.2857 4.88462V11.6154H17.5V13.2308C17.5 13.9448 17.2178 14.6296 16.7155 15.1345C16.2131 15.6394 15.5318 15.9231 14.8214 15.9231H13.1607C13.1964 15.7486 13.2143 15.5691 13.2143 15.3846V12.1538C13.2144 11.6223 13.058 11.1027 12.7647 10.6603C12.4715 10.218 12.0545 9.87284 11.5664 9.66831C11.6003 9.58646 11.6135 9.49747 11.605 9.40924C11.5964 9.32102 11.5663 9.23628 11.5173 9.16256C11.4684 9.08883 11.402 9.0284 11.3243 8.98662C11.2465 8.94485 11.1596 8.92302 11.0714 8.92308H7.85714C7.71506 8.92308 7.5788 8.97981 7.47834 9.08079C7.37787 9.18177 7.32143 9.31873 7.32143 9.46154H4.64286V4.88462ZM14.2857 14.8462H14.8214C15.2477 14.8462 15.6565 14.676 15.9578 14.373C16.2592 14.0701 16.4286 13.6592 16.4286 13.2308V12.6923H14.2857V14.8462ZM7.32143 6.76923C7.32143 6.91204 7.37787 7.049 7.47834 7.14998C7.5788 7.25096 7.71506 7.30769 7.85714 7.30769H11.0714C11.2135 7.30769 11.3498 7.25096 11.4502 7.14998C11.5507 7.049 11.6071 6.91204 11.6071 6.76923C11.6071 6.62642 11.5507 6.48946 11.4502 6.38848C11.3498 6.2875 11.2135 6.23077 11.0714 6.23077H7.85714C7.71506 6.23077 7.5788 6.2875 7.47834 6.38848C7.37787 6.48946 7.32143 6.62642 7.32143 6.76923ZM12.1429 12.1538C12.1429 11.7254 11.9735 11.3145 11.6721 11.0116C11.3707 10.7087 10.962 10.5385 10.5357 10.5385H4.10714C3.6809 10.5385 3.27212 10.7087 2.97072 11.0116C2.66932 11.3145 2.5 11.7254 2.5 12.1538V15.3846C2.5 15.813 2.66932 16.2239 2.97072 16.5269C3.27212 16.8298 3.6809 17 4.10714 17H10.5357C10.962 17 11.3707 16.8298 11.6721 16.5269C11.9735 16.2239 12.1429 15.813 12.1429 15.3846V12.1538ZM11.0714 14.3077V15.3846C10.9293 15.3846 10.7931 15.4413 10.6926 15.5423C10.5922 15.6433 10.5357 15.7803 10.5357 15.9231H9.46429C9.46429 15.4947 9.63361 15.0838 9.93501 14.7808C10.2364 14.4779 10.6452 14.3077 11.0714 14.3077ZM10.5357 11.6154C10.5357 11.7582 10.5922 11.8952 10.6926 11.9961C10.7931 12.0971 10.9293 12.1538 11.0714 12.1538V13.2308C10.6452 13.2308 10.2364 13.0606 9.93501 12.7576C9.63361 12.4547 9.46429 12.0438 9.46429 11.6154H10.5357ZM3.57143 12.1538C3.71351 12.1538 3.84977 12.0971 3.95024 11.9961C4.0507 11.8952 4.10714 11.7582 4.10714 11.6154H5.17857C5.17857 12.0438 5.00925 12.4547 4.70785 12.7576C4.40645 13.0606 3.99767 13.2308 3.57143 13.2308V12.1538ZM4.10714 15.9231C4.10714 15.7803 4.0507 15.6433 3.95024 15.5423C3.84977 15.4413 3.71351 15.3846 3.57143 15.3846V14.3077C3.99767 14.3077 4.40645 14.4779 4.70785 14.7808C5.00925 15.0838 5.17857 15.4947 5.17857 15.9231H4.10714ZM5.71429 13.7692C5.71429 13.5571 5.75586 13.347 5.83662 13.1511C5.91739 12.9551 6.03577 12.777 6.18501 12.627C6.33424 12.477 6.51141 12.358 6.7064 12.2768C6.90139 12.1956 7.11038 12.1538 7.32143 12.1538C7.53248 12.1538 7.74147 12.1956 7.93646 12.2768C8.13144 12.358 8.30861 12.477 8.45785 12.627C8.60709 12.777 8.72547 12.9551 8.80623 13.1511C8.887 13.347 8.92857 13.5571 8.92857 13.7692C8.92857 14.1977 8.75925 14.6085 8.45785 14.9115C8.15645 15.2144 7.74767 15.3846 7.32143 15.3846C6.89519 15.3846 6.4864 15.2144 6.18501 14.9115C5.88361 14.6085 5.71429 14.1977 5.71429 13.7692Z" fill="#BC8B41"/>
</svg>
