<svg width="20" height="20" viewBox="0 0 20 20" fill="none" xmlns="http://www.w3.org/2000/svg">
<path d="M5.83333 7.64286L8.95833 10C9.25394 10.2231 9.62132 10.3447 10 10.3447C10.3787 10.3447 10.7461 10.2231 11.0417 10L14.1667 7.64286M17.5 13.9286V6.07143C17.5 5.65466 17.3244 5.25496 17.0118 4.96026C16.6993 4.66556 16.2754 4.5 15.8333 4.5H4.16667C3.72464 4.5 3.30072 4.66556 2.98816 4.96026C2.67559 5.25496 2.5 5.65466 2.5 6.07143V13.9286C2.5 14.3453 2.67559 14.745 2.98816 15.0397C3.30072 15.3344 3.72464 15.5 4.16667 15.5H15.8333C16.2754 15.5 16.6993 15.3344 17.0118 15.0397C17.3244 14.745 17.5 14.3453 17.5 13.9286Z" stroke="#BC8B41" stroke-width="1.2" stroke-linecap="round" stroke-linejoin="round"/>
</svg>
