<svg width="20" height="20" viewBox="0 0 20 20" fill="none" xmlns="http://www.w3.org/2000/svg">
<path d="M2.5 9.16675C2.5 7.17762 3.29018 5.26997 4.6967 3.86345C6.10322 2.45692 8.01088 1.66675 10 1.66675C11.9891 1.66675 13.8968 2.45692 15.3033 3.86345C16.7098 5.26997 17.5 7.17762 17.5 9.16675V13.9386C17.5 14.7336 17.5 15.1292 17.3819 15.4471C17.2879 15.6989 17.141 15.9276 16.9509 16.1177C16.7609 16.3077 16.5322 16.4547 16.2803 16.5486C15.9625 16.6667 15.5659 16.6667 14.7719 16.6667H10C8.01088 16.6667 6.10322 15.8766 4.6967 14.47C3.29018 13.0635 2.5 11.1559 2.5 9.16675Z" stroke="#94A3B8" stroke-width="1.5"/>
<path d="M7.1875 8.22925H12.8125M10 11.9792H12.8125" stroke="#94A3B8" stroke-width="1.5" stroke-linecap="round" stroke-linejoin="round"/>
</svg>
