<svg width="20" height="20" viewBox="0 0 20 20" fill="none" xmlns="http://www.w3.org/2000/svg">
<path d="M9.99149 2.50001C9.28665 2.49842 8.6064 2.75657 8.08303 3.22427C7.55967 3.69197 7.23059 4.33578 7.15981 5.0305C7.08902 5.72522 7.28157 6.42119 7.70003 6.98307C8.11849 7.54495 8.73293 7.93257 9.42388 8.07055V9.62401H6.96423C6.51261 9.62401 6.07949 9.80174 5.76014 10.1181C5.4408 10.4344 5.2614 10.8635 5.2614 11.3109V11.9302C4.57402 12.0721 3.96405 12.4612 3.54913 13.0223C3.13421 13.5834 2.94374 14.2769 3.01445 14.969C3.08516 15.661 3.41205 16.3026 3.93207 16.77C4.45208 17.2373 5.12838 17.4974 5.83052 17.5C6.53523 17.5012 7.21522 17.2428 7.73829 16.775C8.26137 16.3072 8.59016 15.6634 8.66075 14.9688C8.73134 14.2741 8.53868 13.5784 8.12023 13.0166C7.70178 12.4549 7.08743 12.0674 6.39662 11.9294V11.3109C6.39662 11.1618 6.45642 11.0188 6.56287 10.9133C6.66932 10.8079 6.81369 10.7486 6.96423 10.7486H13.0187C13.1693 10.7486 13.3137 10.8079 13.4201 10.9133C13.5266 11.0188 13.5864 11.1618 13.5864 11.3109V11.9302C12.899 12.0721 12.289 12.4612 11.8741 13.0223C11.4592 13.5834 11.2687 14.2769 11.3394 14.969C11.4101 15.661 11.737 16.3026 12.257 16.77C12.777 17.2373 13.4533 17.4974 14.1555 17.5C14.8602 17.5012 15.5402 17.2428 16.0633 16.775C16.5863 16.3072 16.9151 15.6634 16.9857 14.9688C17.0563 14.2741 16.8636 13.5784 16.4452 13.0166C16.0267 12.4549 15.4124 12.0674 14.7216 11.9294V11.3109C14.7216 10.8635 14.5422 10.4344 14.2228 10.1181C13.9035 9.80174 13.4704 9.62401 13.0187 9.62401H10.5591V8.07055C11.2471 7.92941 11.858 7.5407 12.2736 6.97949C12.6893 6.41828 12.8803 5.72439 12.8097 5.03184C12.7392 4.33929 12.412 3.69721 11.8916 3.22962C11.3711 2.76202 10.6941 2.50208 9.99149 2.50001ZM8.28714 5.31302C8.28714 4.86523 8.46671 4.43577 8.78633 4.11914C9.10596 3.8025 9.53947 3.62461 9.99149 3.62461C10.4435 3.62461 10.877 3.8025 11.1966 4.11914C11.5163 4.43577 11.6958 4.86523 11.6958 5.31302C11.6958 5.76081 11.5163 6.19027 11.1966 6.50691C10.877 6.82354 10.4435 7.00143 9.99149 7.00143C9.53947 7.00143 9.10596 6.82354 8.78633 6.50691C8.46671 6.19027 8.28714 5.76081 8.28714 5.31302ZM4.12617 14.687C4.12617 14.4652 4.17027 14.2456 4.25594 14.0407C4.34161 13.8358 4.46718 13.6497 4.62548 13.4928C4.78377 13.336 4.9717 13.2116 5.17853 13.1267C5.38536 13.0419 5.60703 12.9982 5.8309 12.9982C6.05477 12.9982 6.27644 13.0419 6.48327 13.1267C6.6901 13.2116 6.87802 13.336 7.03632 13.4928C7.19462 13.6497 7.32019 13.8358 7.40586 14.0407C7.49153 14.2456 7.53562 14.4652 7.53562 14.687C7.53562 15.1349 7.35602 15.5644 7.03632 15.8811C6.71662 16.1978 6.28302 16.3758 5.8309 16.3758C5.37878 16.3758 4.94517 16.1978 4.62548 15.8811C4.30578 15.5644 4.12617 15.1349 4.12617 14.687ZM14.1555 12.9978C14.3794 12.9978 14.601 13.0415 14.8079 13.1264C15.0147 13.2112 15.2026 13.3356 15.3609 13.4925C15.5192 13.6493 15.6448 13.8354 15.7304 14.0403C15.8161 14.2452 15.8602 14.4648 15.8602 14.6866C15.8602 14.9084 15.8161 15.128 15.7304 15.3329C15.6448 15.5378 15.5192 15.7239 15.3609 15.8808C15.2026 16.0376 15.0147 16.162 14.8079 16.2468C14.601 16.3317 14.3794 16.3754 14.1555 16.3754C13.7034 16.3754 13.2698 16.1975 12.9501 15.8808C12.6304 15.5641 12.4508 15.1345 12.4508 14.6866C12.4508 14.2387 12.6304 13.8092 12.9501 13.4925C13.2698 13.1757 13.7034 12.9978 14.1555 12.9978Z" fill="#BC8B41"/>
</svg>
