<svg width="20" height="20" viewBox="0 0 20 20" fill="none" xmlns="http://www.w3.org/2000/svg">
<path d="M11.1846 2.50064C11.1066 2.49697 11.0287 2.50916 10.9555 2.53649C10.8824 2.56381 10.8155 2.60569 10.759 2.65959C10.7025 2.7135 10.6576 2.77831 10.6269 2.8501C10.5961 2.92189 10.5803 2.99916 10.5803 3.07725V8.84219C10.5803 8.99527 10.6411 9.14208 10.7494 9.25033C10.8576 9.35857 11.0044 9.41938 11.1575 9.41938H16.9222C17.0003 9.41947 17.0777 9.40369 17.1495 9.373C17.2214 9.34231 17.2862 9.29735 17.3402 9.24085C17.3942 9.18435 17.4361 9.11747 17.4635 9.04428C17.4908 8.9711 17.503 8.89311 17.4994 8.81506C17.3389 5.40043 14.5985 2.66052 11.184 2.50064M11.7346 8.26501V3.71562C12.8752 3.89876 13.9288 4.43707 14.7456 5.2539C15.5624 6.07073 16.1007 7.12444 16.2839 8.26501H11.7346ZM9.42598 4.80881C9.42607 4.73067 9.41029 4.65334 9.3796 4.58148C9.34891 4.50962 9.30396 4.44474 9.24746 4.39078C9.19096 4.33681 9.12409 4.29488 9.0509 4.26752C8.97771 4.24016 8.89973 4.22795 8.82169 4.23162C5.30214 4.39785 2.5 7.30283 2.5 10.8623C2.5 14.5281 5.47182 17.5 9.1374 17.5C12.6974 17.5 15.6022 14.6978 15.7673 11.1781C15.771 11.1001 15.7588 11.0221 15.7314 10.949C15.7041 10.8758 15.6622 10.809 15.6083 10.7525C15.5544 10.696 15.4896 10.651 15.4178 10.6203C15.3461 10.5896 15.2688 10.5737 15.1907 10.5738H10.8689C10.4862 10.5738 10.1192 10.4217 9.8486 10.1511C9.578 9.88051 9.42598 9.51348 9.42598 9.13079V4.80881ZM3.65433 10.8623C3.65433 8.12879 5.65478 5.86218 8.27165 5.44718V9.13079C8.27165 9.47187 8.33883 9.80962 8.46935 10.1247C8.59988 10.4399 8.79119 10.7262 9.03236 10.9674C9.51944 11.4545 10.1801 11.7281 10.8689 11.7281H14.5524C14.1374 14.3451 11.8709 16.3456 9.1374 16.3456C7.6832 16.3456 6.28856 15.7679 5.26028 14.7396C4.23201 13.7113 3.65433 12.3166 3.65433 10.8623Z" fill="#BC8B41"/>
</svg>
