<svg width="20" height="20" viewBox="0 0 20 20" fill="none" xmlns="http://www.w3.org/2000/svg">
<path d="M15.9066 5.70227C16.1641 5.84917 16.3779 6.06187 16.5262 6.3186C16.6744 6.57533 16.7518 6.86685 16.7503 7.16331V12.6264C16.7503 13.2332 16.4181 13.7927 15.8818 14.0875L10.8192 17.2901C10.5682 17.4278 10.2865 17.5 10.0002 17.5C9.71385 17.5 9.43216 17.4278 9.18115 17.2901L4.11852 14.0875C3.8564 13.9438 3.63758 13.7325 3.48484 13.4755C3.33209 13.2186 3.251 12.9254 3.25 12.6264V7.16256C3.25 6.55579 3.58226 5.99703 4.11852 5.70227L9.18115 2.7172C9.43956 2.57472 9.72983 2.5 10.0249 2.5C10.32 2.5 10.6103 2.57472 10.8687 2.7172L15.9313 5.70227H15.9066Z" stroke="#BC8B41" stroke-width="1.2" stroke-linecap="round" stroke-linejoin="round"/>
<path d="M7.75049 10.0001C7.75049 10.5968 7.98755 11.1691 8.40951 11.5911C8.83148 12.0131 9.40379 12.2501 10.0005 12.2501C10.5973 12.2501 11.1696 12.0131 11.5916 11.5911C12.0135 11.1691 12.2506 10.5968 12.2506 10.0001C12.2506 9.4033 12.0135 8.83099 11.5916 8.40903C11.1696 7.98706 10.5973 7.75 10.0005 7.75C9.40379 7.75 8.83148 7.98706 8.40951 8.40903C7.98755 8.83099 7.75049 9.4033 7.75049 10.0001Z" stroke="#BC8B41" stroke-width="1.1" stroke-linecap="round" stroke-linejoin="round"/>
</svg>
