<svg width="20" height="20" viewBox="0 0 20 20" fill="none" xmlns="http://www.w3.org/2000/svg">
<path d="M8.22222 2C8.45797 2 8.68406 2.09365 8.85076 2.26035C9.01746 2.42705 9.11111 2.65314 9.11111 2.88889C9.11111 3.12464 9.01746 3.35073 8.85076 3.51743C8.68406 3.68413 8.45797 3.77778 8.22222 3.77778H2.88889C2.65314 3.77778 2.42705 3.68413 2.26035 3.51743C2.09365 3.35073 2 3.12464 2 2.88889C2 2.65314 2.09365 2.42705 2.26035 2.26035C2.42705 2.09365 2.65314 2 2.88889 2H8.22222ZM17.1111 2C17.3469 2 17.573 2.09365 17.7397 2.26035C17.9064 2.42705 18 2.65314 18 2.88889C18 3.12464 17.9064 3.35073 17.7397 3.51743C17.573 3.68413 17.3469 3.77778 17.1111 3.77778H11.7778C11.542 3.77778 11.3159 3.68413 11.1492 3.51743C10.9825 3.35073 10.8889 3.12464 10.8889 2.88889C10.8889 2.65314 10.9825 2.42705 11.1492 2.26035C11.3159 2.09365 11.542 2 11.7778 2H17.1111ZM6.44444 5.55556C7.15169 5.55556 7.82997 5.83651 8.33006 6.3366C8.83016 6.8367 9.11111 7.51498 9.11111 8.22222V15.3333C9.11111 16.0406 8.83016 16.7189 8.33006 17.219C7.82997 17.719 7.15169 18 6.44444 18H4.66667C3.95942 18 3.28115 17.719 2.78105 17.219C2.28095 16.7189 2 16.0406 2 15.3333V8.22222C2 7.51498 2.28095 6.8367 2.78105 6.3366C3.28115 5.83651 3.95942 5.55556 4.66667 5.55556H6.44444ZM15.3333 5.55556C16.0406 5.55556 16.7189 5.83651 17.219 6.3366C17.719 6.8367 18 7.51498 18 8.22222V10C18 10.7072 17.719 11.3855 17.219 11.8856C16.7189 12.3857 16.0406 12.6667 15.3333 12.6667H13.5556C12.8483 12.6667 12.17 12.3857 11.6699 11.8856C11.1698 11.3855 10.8889 10.7072 10.8889 10V8.22222C10.8889 7.51498 11.1698 6.8367 11.6699 6.3366C12.17 5.83651 12.8483 5.55556 13.5556 5.55556H15.3333Z" fill="#BC8B41"/>
</svg>
