<svg width="20" height="20" viewBox="0 0 20 20" fill="none" xmlns="http://www.w3.org/2000/svg">
<path d="M10 3.5C9.70014 3.5 9.40321 3.55601 9.12617 3.66483C8.84913 3.77365 8.59741 3.93315 8.38537 4.13422C8.17334 4.33529 8.00514 4.574 7.89039 4.83671C7.77563 5.09943 7.71657 5.381 7.71657 5.66536C7.71657 5.94972 7.77563 6.2313 7.89039 6.49401C8.00514 6.75673 8.17334 6.99543 8.38537 7.19651C8.59741 7.39758 8.84913 7.55708 9.12617 7.6659C9.40321 7.77472 9.70014 7.83073 10 7.83073C10.6056 7.83073 11.1864 7.60259 11.6146 7.19651C12.0429 6.79042 12.2834 6.23965 12.2834 5.66536C12.2834 5.09107 12.0429 4.5403 11.6146 4.13422C11.1864 3.72814 10.6056 3.5 10 3.5ZM15.1429 4.5816C14.6882 4.5816 14.2522 4.75287 13.9307 5.05774C13.6092 5.36261 13.4286 5.7761 13.4286 6.20725C13.4286 6.6384 13.6092 7.05189 13.9307 7.35675C14.2522 7.66162 14.6882 7.8329 15.1429 7.8329C15.5975 7.8329 16.0336 7.66162 16.355 7.35675C16.6765 7.05189 16.8571 6.6384 16.8571 6.20725C16.8571 5.7761 16.6765 5.36261 16.355 5.05774C16.0336 4.75287 15.5975 4.5816 15.1429 4.5816ZM4.85714 4.5816C4.40249 4.5816 3.96645 4.75287 3.64496 5.05774C3.32347 5.36261 3.14286 5.7761 3.14286 6.20725C3.14286 6.6384 3.32347 7.05189 3.64496 7.35675C3.96645 7.66162 4.40249 7.8329 4.85714 7.8329C5.3118 7.8329 5.74784 7.66162 6.06933 7.35675C6.39082 7.05189 6.57143 6.6384 6.57143 6.20725C6.57143 5.7761 6.39082 5.36261 6.06933 5.05774C5.74784 4.75287 5.3118 4.5816 4.85714 4.5816ZM6.57143 9.99284C6.57354 9.70672 6.69488 9.43301 6.90898 9.2314C7.12308 9.02979 7.41256 8.91665 7.71429 8.91666H12.2857C12.5888 8.91666 12.8795 9.03084 13.0938 9.23409C13.3082 9.43733 13.4286 9.71299 13.4286 10.0004V13.2517C13.4289 13.5928 13.3726 13.9319 13.2617 14.2564C13.0087 14.9919 12.4874 15.6178 11.7914 16.0217C11.0955 16.4256 10.2706 16.581 9.46472 16.46C8.65886 16.339 7.92489 15.9495 7.39461 15.3615C6.86432 14.7735 6.57246 14.0254 6.57143 13.2517V9.99284ZM5.42857 10.0004C5.42857 9.60485 5.53943 9.23529 5.73486 8.91666H3.14286C2.83975 8.91666 2.54906 9.03084 2.33474 9.23409C2.12041 9.43733 2 9.71299 2 10.0004V12.7098C1.99984 13.1534 2.11454 13.5903 2.33403 13.982C2.55351 14.3737 2.87106 14.7084 3.25879 14.9565C3.64652 15.2047 4.09258 15.3588 4.55778 15.4052C5.02298 15.4517 5.4931 15.3892 5.92686 15.2231C5.59862 14.6122 5.42785 13.9362 5.42857 13.2506V10.0004ZM14.5714 10.0004V13.2517C14.5714 13.9616 14.392 14.6314 14.0731 15.2231C14.5069 15.3892 14.977 15.4517 15.4422 15.4052C15.9074 15.3588 16.3535 15.2047 16.7412 14.9565C17.1289 14.7084 17.4465 14.3737 17.666 13.982C17.8855 13.5903 18.0002 13.1534 18 12.7098V10.0004C18 9.71299 17.8796 9.43733 17.6653 9.23409C17.4509 9.03084 17.1602 8.91666 16.8571 8.91666H14.2651C14.4594 9.23529 14.5714 9.60485 14.5714 10.0004Z" fill="#BC8B41"/>
</svg>
