<svg width="24" height="24" viewBox="0 0 24 24" fill="none" xmlns="http://www.w3.org/2000/svg">
<path d="M22.6009 2.06201C22.5559 1.89065 22.4662 1.73434 22.3409 1.60906C22.2156 1.48378 22.0593 1.39404 21.8879 1.34901C19.8367 0.816106 17.6767 0.873447 15.6566 1.51442C13.6366 2.1554 11.8387 3.35394 10.4699 4.97201L9.35394 6.29601L6.74994 5.66801C6.11665 5.44771 5.42508 5.46372 4.80267 5.71309C4.18025 5.96246 3.66894 6.42839 3.36294 7.02501L1.16294 10.925C1.08592 11.0616 1.04208 11.2143 1.03496 11.3709C1.02785 11.5276 1.05767 11.6837 1.122 11.8266C1.18634 11.9696 1.28339 12.0955 1.40532 12.194C1.52726 12.2926 1.67066 12.3611 1.82394 12.394L4.89694 13.053C4.6366 13.8453 4.4508 14.6602 4.34194 15.487C4.32214 15.6388 4.33744 15.7931 4.38668 15.938C4.43592 16.083 4.51778 16.2147 4.62594 16.323L7.72594 19.423C7.8189 19.516 7.92928 19.5897 8.05077 19.64C8.17225 19.6903 8.30246 19.7161 8.43394 19.716L8.51994 19.712C9.36561 19.6373 10.2009 19.473 11.0119 19.222L11.6559 22.226C11.6889 22.3793 11.7574 22.5227 11.8559 22.6446C11.9545 22.7666 12.0803 22.8636 12.2233 22.9279C12.3663 22.9923 12.5224 23.0221 12.679 23.015C12.8356 23.0079 12.9884 22.964 13.1249 22.887L17.0299 20.685C17.5797 20.351 18.0091 19.8511 18.2562 19.2572C18.5034 18.6634 18.5554 18.0064 18.4049 17.381L17.7369 14.621L18.9739 13.484C20.5981 12.119 21.8011 10.3209 22.4431 8.29875C23.085 6.27666 23.1404 4.11382 22.6009 2.06201ZM3.57194 10.723L5.12794 7.96301C5.22477 7.77577 5.38952 7.63264 5.58844 7.56293C5.78737 7.49321 6.00542 7.50218 6.19794 7.58801L7.91594 8.004L7.26594 8.77601C6.64885 9.51404 6.11558 10.3183 5.67594 11.174L3.57194 10.723ZM16.0419 18.945L13.3269 20.477L12.8969 18.472C13.768 18.0382 14.5794 17.4937 15.3109 16.852L16.0539 16.169L16.4579 17.833C16.5103 18.0387 16.4986 18.2554 16.4242 18.4542C16.3499 18.653 16.2165 18.8242 16.0419 18.945ZM17.6569 11.98L13.9719 15.366C12.5137 16.6273 10.7149 17.429 8.80194 17.67L6.39694 15.266C6.71981 13.3479 7.54865 11.5508 8.79794 10.06L10.4769 8.06701C10.5048 8.03794 10.5308 8.00721 10.5549 7.97501L11.9899 6.27001C13.0511 5.01705 14.4257 4.06808 15.9735 3.51996C17.5213 2.97183 19.1867 2.84417 20.7999 3.15001C21.1131 4.76824 20.9866 6.44083 20.4339 7.99362C19.8811 9.54642 18.9222 10.9236 17.6569 11.98ZM16.7339 5.81601C16.4373 5.81601 16.1473 5.90398 15.9006 6.0688C15.6539 6.23362 15.4617 6.46789 15.3481 6.74198C15.2346 7.01607 15.2049 7.31767 15.2628 7.60864C15.3206 7.89961 15.4635 8.16689 15.6733 8.37667C15.8831 8.58644 16.1503 8.72931 16.4413 8.78718C16.7323 8.84506 17.0339 8.81536 17.308 8.70182C17.5821 8.58829 17.8163 8.39603 17.9811 8.14936C18.146 7.90269 18.2339 7.61268 18.2339 7.31601C18.2339 6.91818 18.0759 6.53665 17.7946 6.25534C17.5133 5.97404 17.1318 5.81601 16.7339 5.81601Z" fill="#BC8B41"/>
</svg>
