<svg width="24" height="24" viewBox="0 0 24 24" fill="none" xmlns="http://www.w3.org/2000/svg">
<path d="M3 5C3 4.46957 3.21071 3.96086 3.58579 3.58579C3.96086 3.21071 4.46957 3 5 3H19C19.5304 3 20.0391 3.21071 20.4142 3.58579C20.7893 3.96086 21 4.46957 21 5V8C21 8.53043 20.7893 9.03914 20.4142 9.41421C20.0391 9.78929 19.5304 10 19 10H5C4.46957 10 3.96086 9.78929 3.58579 9.41421C3.21071 9.03914 3 8.53043 3 8V5ZM3 16C3 15.4696 3.21071 14.9609 3.58579 14.5858C3.96086 14.2107 4.46957 14 5 14H19C19.5304 14 20.0391 14.2107 20.4142 14.5858C20.7893 14.9609 21 15.4696 21 16V19C21 19.5304 20.7893 20.0391 20.4142 20.4142C20.0391 20.7893 19.5304 21 19 21H5C4.46957 21 3.96086 20.7893 3.58579 20.4142C3.21071 20.0391 3 19.5304 3 19V16Z" stroke="#BC8B41" stroke-width="2"/>
</svg>
