<svg width="20" height="20" viewBox="0 0 20 20" fill="none" xmlns="http://www.w3.org/2000/svg">
<path d="M17.333 13.25L14.0772 16.5L11.7981 14.225L12.7749 13.25L14.0772 14.55L16.3563 12.275L17.333 13.25ZM10.5609 15.135C10.3004 15.2 10.1051 15.2 9.84464 15.2C6.97952 15.2 4.63533 12.86 4.63533 10C4.63533 7.14 6.97952 4.8 9.84464 4.8C12.7098 4.8 15.0539 7.14 15.0539 10C15.0539 10.26 15.0539 10.455 14.9888 10.715C15.4446 10.78 15.8353 10.91 16.226 11.105C16.2911 10.715 16.3563 10.39 16.3563 10C16.3563 6.425 13.426 3.5 9.84464 3.5C6.26324 3.5 3.33301 6.425 3.33301 10C3.33301 13.575 6.26324 16.5 9.84464 16.5C10.2353 16.5 10.626 16.435 10.9516 16.37C10.7563 16.045 10.626 15.59 10.5609 15.135ZM12.1888 11.365L10.1702 10.195V6.75H9.19347V10.65L11.4725 12.015C11.6679 11.755 11.9284 11.56 12.1888 11.365Z" fill="#BC8B41"/>
</svg>
