<svg width="20" height="20" viewBox="0 0 20 20" fill="none" xmlns="http://www.w3.org/2000/svg">
<path d="M12.5 3.33331C14.2681 3.33331 15.9638 4.03569 17.214 5.28593C18.4643 6.53618 19.1666 8.23187 19.1666 9.99998C19.1666 11.7681 18.4643 13.4638 17.214 14.714C15.9638 15.9643 14.2681 16.6666 12.5 16.6666C10.7319 16.6666 9.03618 15.9643 7.78593 14.714C6.53569 13.4638 5.83331 11.7681 5.83331 9.99998C5.83331 8.23187 6.53569 6.53618 7.78593 5.28593C9.03618 4.03569 10.7319 3.33331 12.5 3.33331ZM12.5 4.99998C11.1739 4.99998 9.90213 5.52676 8.96445 6.46445C8.02676 7.40213 7.49998 8.6739 7.49998 9.99998C7.49998 11.3261 8.02676 12.5978 8.96445 13.5355C9.90213 14.4732 11.1739 15 12.5 15C13.8261 15 15.0978 14.4732 16.0355 13.5355C16.9732 12.5978 17.5 11.3261 17.5 9.99998C17.5 8.6739 16.9732 7.40213 16.0355 6.46445C15.0978 5.52676 13.8261 4.99998 12.5 4.99998ZM11.6666 6.66665H12.9166V9.81665L14.8583 11.7583L13.975 12.6416L11.6666 10.3333V6.66665ZM1.66665 15C1.44563 15 1.23367 14.9122 1.07739 14.7559C0.92111 14.5996 0.833313 14.3877 0.833313 14.1666C0.833313 13.9456 0.92111 13.7337 1.07739 13.5774C1.23367 13.4211 1.44563 13.3333 1.66665 13.3333H4.85831C5.11665 13.925 5.44998 14.4833 5.83331 15H1.66665ZM2.49998 10.8333C2.27897 10.8333 2.067 10.7455 1.91072 10.5892C1.75444 10.433 1.66665 10.221 1.66665 9.99998C1.66665 9.77897 1.75444 9.567 1.91072 9.41072C2.067 9.25444 2.27897 9.16665 2.49998 9.16665H4.20831L4.16665 9.99998L4.20831 10.8333H2.49998ZM3.33331 6.66665C3.1123 6.66665 2.90034 6.57885 2.74406 6.42257C2.58778 6.26629 2.49998 6.05433 2.49998 5.83331C2.49998 5.6123 2.58778 5.40034 2.74406 5.24406C2.90034 5.08778 3.1123 4.99998 3.33331 4.99998H5.83331C5.44998 5.51665 5.11665 6.07498 4.85831 6.66665H3.33331Z" fill="#BC8B41"/>
</svg>
