<svg width="20" height="20" viewBox="0 0 20 20" fill="none" xmlns="http://www.w3.org/2000/svg">
<path d="M7.69164 16.0289C6.9739 15.7145 6.34948 15.29 5.8184 14.7554C5.28732 14.2209 4.86557 13.5924 4.55315 12.8699C4.24072 12.1475 4.08451 11.3728 4.08451 10.5458C4.08451 9.71882 4.24072 8.94434 4.55315 8.22234C4.86557 7.50034 5.28711 6.87184 5.81775 6.33684C6.34839 5.80185 6.9728 5.37734 7.69099 5.06331C8.40917 4.74928 9.17884 4.59204 10 4.5916C10.8212 4.59116 11.5908 4.7484 12.309 5.06331C13.0272 5.37822 13.6516 5.80273 14.1823 6.33684C14.7129 6.87096 15.1346 7.49945 15.4475 8.22234C15.7604 8.94522 15.9164 9.71971 15.9155 10.5458C15.9146 11.3719 15.7586 12.1466 15.4475 12.8699C15.1364 13.5932 14.7146 14.2217 14.1823 14.7554C13.6499 15.2891 13.0254 15.7136 12.309 16.0289C11.5926 16.3443 10.8229 16.5013 10 16.5C9.17709 16.4987 8.40764 16.3417 7.69164 16.0289ZM11.8404 13.3244L12.7606 12.3982L10.6573 10.2812V7.23791H9.34272V10.8104L11.8404 13.3244ZM5.79343 3.5L6.71362 4.42621L3.92019 7.23791L3 6.3117L5.79343 3.5ZM14.2066 3.5L17 6.3117L16.0798 7.23791L13.2864 4.42621L14.2066 3.5ZM10 15.1768C11.2817 15.1768 12.369 14.7276 13.2621 13.8292C14.1551 12.9308 14.6014 11.8363 14.6009 10.5458C14.6005 9.25528 14.1542 8.16103 13.2621 7.26305C12.3699 6.36507 11.2826 5.91564 10 5.91476C8.71743 5.91387 7.6303 6.36331 6.73859 7.26305C5.84689 8.1628 5.40038 9.25704 5.39906 10.5458C5.39775 11.8345 5.84426 12.929 6.73859 13.8292C7.63293 14.7294 8.72006 15.1786 10 15.1768Z" fill="#BC8B41"/>
</svg>
