<svg width="18" height="18" viewBox="0 0 18 18" fill="none" xmlns="http://www.w3.org/2000/svg">
<path d="M11.25 16C10.4589 16 9.68552 15.7654 9.02772 15.3259C8.36992 14.8864 7.85723 14.2616 7.55448 13.5307C7.25173 12.7998 7.17252 11.9956 7.32686 11.2196C7.4812 10.4437 7.86216 9.73098 8.42157 9.17157C8.98098 8.61216 9.69372 8.2312 10.4696 8.07686C11.2456 7.92252 12.0498 8.00173 12.7807 8.30448C13.5116 8.60723 14.1364 9.11992 14.5759 9.77772C15.0154 10.4355 15.25 11.2089 15.25 12C15.25 13.0609 14.8286 14.0783 14.0784 14.8284C13.3283 15.5786 12.3109 16 11.25 16ZM11.25 9C10.6567 9 10.0766 9.17595 9.58329 9.50559C9.08994 9.83524 8.70543 10.3038 8.47836 10.852C8.2513 11.4001 8.19189 12.0033 8.30765 12.5853C8.4234 13.1672 8.70912 13.7018 9.12868 14.1213C9.54824 14.5409 10.0828 14.8266 10.6647 14.9424C11.2467 15.0581 11.8499 14.9987 12.3981 14.7716C12.9462 14.5446 13.4148 14.1601 13.7444 13.6667C14.0741 13.1734 14.25 12.5933 14.25 12C14.25 11.2044 13.9339 10.4413 13.3713 9.87868C12.8087 9.31607 12.0457 9 11.25 9Z" fill="#BC8B41"/>
<path d="M12.045 13.5L10.75 12.205V10H11.75V11.795L12.75 12.795L12.045 13.5Z" fill="#BC8B41"/>
<path d="M14.75 4C14.75 3.73478 14.6446 3.48043 14.4571 3.29289C14.2696 3.10536 14.0152 3 13.75 3H11.75V2H10.75V3H6.75V2H5.75V3H3.75C3.48478 3 3.23043 3.10536 3.04289 3.29289C2.85536 3.48043 2.75 3.73478 2.75 4V14C2.75 14.2652 2.85536 14.5196 3.04289 14.7071C3.23043 14.8946 3.48478 15 3.75 15H5.75V14H3.75V4H5.75V5H6.75V4H10.75V5H11.75V4H13.75V7H14.75V4Z" fill="#BC8B41"/>
</svg>
