<svg width="14" height="14" viewBox="0 0 14 14" fill="none" xmlns="http://www.w3.org/2000/svg">
<path d="M4.9 3.69998C4.9 2.85758 4.9 2.43578 5.1022 2.13338C5.18977 2.00229 5.30232 1.88975 5.4334 1.80218C5.7358 1.59998 6.1576 1.59998 7 1.59998C7.8424 1.59998 8.2642 1.59998 8.5666 1.80218C8.69768 1.88975 8.81023 2.00229 8.8978 2.13338C9.1 2.43578 9.1 2.85758 9.1 3.69998M13 8.19998V7.89998C13 5.91998 13 4.92998 12.385 4.31498C11.77 3.69998 10.78 3.69998 8.8 3.69998H5.2C3.22 3.69998 2.23 3.69998 1.615 4.31498C1 4.92998 1 5.91998 1 7.89998V8.19998C1 10.18 1 11.17 1.615 11.785C2.23 12.4 3.22 12.4 5.2 12.4H8.8C10.78 12.4 11.77 12.4 12.385 11.785C13 11.17 13 10.18 13 8.19998Z" stroke="#94A3B8" stroke-linecap="round" stroke-linejoin="round"/>
<path d="M7.8999 8.20017C11.5437 7.90617 12.8499 5.80017 12.8499 5.80017M7.8999 8.20017V7.60017C7.8999 7.52061 7.8683 7.4443 7.81203 7.38804C7.75577 7.33178 7.67947 7.30017 7.5999 7.30017H6.3999C6.32034 7.30017 6.24403 7.33178 6.18777 7.38804C6.13151 7.4443 6.0999 7.52061 6.0999 7.60017V8.20017M7.8999 8.20017C7.8999 8.43887 7.80508 8.66778 7.6363 8.83657C7.46752 9.00535 7.2386 9.10017 6.9999 9.10017C6.76121 9.10017 6.53229 9.00535 6.36351 8.83657C6.19472 8.66778 6.0999 8.43887 6.0999 8.20017M1.1499 5.80017C1.1499 5.80017 2.4561 7.90617 6.0999 8.20017" stroke="#94A3B8" stroke-linecap="round" stroke-linejoin="round"/>
</svg>
