<svg width="18" height="18" viewBox="0 0 18 18" fill="none" xmlns="http://www.w3.org/2000/svg">
<g clip-path="url(#clip0_1387_74538)">
<path d="M16.151 12.1735C15.8035 11.6685 15.9975 10.9385 15.911 10.1325C15.822 8.81751 15.257 7.54351 14.161 6.52451L10.428 3.05351C10.428 3.05351 9.69251 2.36901 9.00751 3.10501C8.32351 3.84051 9.05951 4.52501 9.05951 4.52501L10.6365 5.99201L12.0035 7.26301C12.0035 7.26301 11.661 7.63101 10.148 6.22401L5.03801 1.47101C5.03801 1.47101 4.30151 0.787013 3.61701 1.52301C2.93301 2.25851 3.66851 2.94301 3.66851 2.94301L8.50051 7.43751C8.49001 7.42751 8.13501 7.78351 8.12851 7.77751L2.95851 2.96901C2.95851 2.96901 2.22251 2.28451 1.53801 3.02051C0.853507 3.75651 1.58951 4.44051 1.58951 4.44051L6.76001 9.25001C6.76601 9.25601 6.43301 9.63201 6.44301 9.64151L1.98301 5.49251C1.98301 5.49251 1.24701 4.80801 0.562507 5.54401C-0.121993 6.28001 0.614007 6.96451 0.614007 6.96451L5.35601 11.3745C5.39951 11.415 5.10601 11.8285 5.16051 11.879L1.74351 8.70101C1.74351 8.70101 1.00751 8.01651 0.323007 8.75301C-0.361493 9.48901 0.374507 10.1735 0.374507 10.1735L5.94801 15.355C6.87851 16.2205 7.83401 16.6585 8.98601 16.819C9.22051 16.8515 9.52051 16.8515 9.64351 16.867C10.032 16.916 10.373 17.054 10.8295 17.334C11.417 17.694 12.2985 17.844 12.805 17.3025L14.532 15.455L16.1265 13.749C16.6325 13.208 16.542 12.741 16.151 12.1735Z" fill="#EF9645"/>
<path d="M0.978007 17.513C0.879025 17.5132 0.78221 17.484 0.699849 17.4291C0.617488 17.3742 0.553296 17.2961 0.51542 17.2046C0.477544 17.1132 0.467692 17.0125 0.487114 16.9155C0.506536 16.8184 0.554357 16.7293 0.624507 16.6595L2.40001 14.885C2.44643 14.8386 2.50154 14.8017 2.56219 14.7766C2.62285 14.7515 2.68786 14.7386 2.75351 14.7386C2.81916 14.7386 2.88417 14.7515 2.94482 14.7766C3.00547 14.8017 3.06059 14.8386 3.10701 14.885C3.15343 14.9314 3.19025 14.9865 3.21538 15.0472C3.2405 15.1078 3.25343 15.1728 3.25343 15.2385C3.25343 15.3041 3.2405 15.3692 3.21538 15.4298C3.19025 15.4905 3.15343 15.5456 3.10701 15.592L1.33151 17.367C1.23768 17.4606 1.11053 17.5131 0.978007 17.513ZM4.35101 17.974C4.29601 17.974 4.24084 17.9647 4.18551 17.946C4.06042 17.9021 3.95786 17.8104 3.90038 17.6909C3.84291 17.5715 3.83522 17.4341 3.87901 17.309L4.36451 15.9225C4.38469 15.8587 4.41748 15.7996 4.46093 15.7487C4.50438 15.6978 4.55761 15.6561 4.61747 15.6261C4.67732 15.5962 4.74257 15.5786 4.80937 15.5743C4.87616 15.57 4.94313 15.5792 5.00631 15.6013C5.06948 15.6234 5.12758 15.658 5.17715 15.7029C5.22673 15.7479 5.26677 15.8024 5.2949 15.8631C5.32304 15.9238 5.3387 15.9896 5.34095 16.0565C5.3432 16.1234 5.332 16.19 5.30801 16.2525L4.82251 17.639C4.78831 17.7368 4.72458 17.8216 4.64011 17.8816C4.55565 17.9416 4.45462 17.9739 4.35101 17.974ZM0.517507 14.1405C0.399903 14.1398 0.286285 14.0978 0.196585 14.0217C0.106886 13.9457 0.046835 13.8405 0.0269688 13.7245C0.00710271 13.6086 0.0286901 13.4894 0.0879435 13.3878C0.147197 13.2862 0.240332 13.2088 0.351007 13.169L1.59851 12.7285C1.66043 12.7066 1.72604 12.6972 1.79162 12.7007C1.85719 12.7042 1.92143 12.7205 1.98067 12.7489C2.03992 12.7772 2.093 12.8169 2.1369 12.8657C2.1808 12.9146 2.21464 12.9716 2.23651 13.0335C2.25837 13.0954 2.26783 13.161 2.26433 13.2266C2.26084 13.2922 2.24446 13.3564 2.21614 13.4157C2.18782 13.4749 2.14811 13.528 2.09927 13.5719C2.05043 13.6158 1.99343 13.6496 1.93151 13.6715L0.684007 14.112C0.630525 14.1309 0.574222 14.1405 0.517507 14.1405ZM15.2475 3.25699C15.1485 3.25707 15.0518 3.22777 14.9694 3.1728C14.8871 3.11784 14.823 3.03968 14.7851 2.94823C14.7473 2.85677 14.7374 2.75614 14.7568 2.65908C14.7762 2.56202 14.8239 2.47289 14.894 2.40299L16.67 0.627994C16.7638 0.53424 16.891 0.481596 17.0237 0.481642C17.1563 0.481689 17.2835 0.534423 17.3773 0.628244C17.471 0.722064 17.5237 0.849285 17.5236 0.98192C17.5236 1.11456 17.4708 1.24174 17.377 1.33549L15.601 3.11049C15.5073 3.20427 15.3801 3.25697 15.2475 3.25699ZM13.1655 2.40849C13.1105 2.40849 13.0555 2.39899 13.0005 2.37999C12.9385 2.35833 12.8814 2.32466 12.8324 2.28092C12.7835 2.23719 12.7436 2.18423 12.7151 2.12508C12.6866 2.06593 12.67 2.00174 12.6663 1.93618C12.6626 1.87062 12.6718 1.80498 12.6935 1.74299L13.1785 0.356494C13.2223 0.231311 13.314 0.12864 13.4334 0.0710666C13.5529 0.013493 13.6903 0.00573294 13.8155 0.0494937C13.9407 0.0932544 14.0434 0.184951 14.1009 0.304412C14.1585 0.423873 14.1663 0.561311 14.1225 0.686494L13.6375 2.07299C13.6034 2.17098 13.5396 2.25592 13.455 2.31603C13.3704 2.37615 13.2693 2.40846 13.1655 2.40849ZM16.237 5.29549C16.1194 5.29484 16.0058 5.2528 15.9161 5.17674C15.8264 5.10068 15.7663 4.99546 15.7465 4.87955C15.7266 4.76363 15.7482 4.64442 15.8074 4.54283C15.8667 4.44125 15.9598 4.36377 16.0705 4.32399L17.3175 3.88349C17.4426 3.83934 17.58 3.84666 17.6997 3.90386C17.8193 3.96106 17.9113 4.06344 17.9555 4.18849C17.9997 4.31354 17.9923 4.45101 17.9351 4.57066C17.8779 4.69031 17.7756 4.78234 17.6505 4.82649L16.4035 5.26699C16.35 5.28587 16.2937 5.29551 16.237 5.29549Z" fill="#FA743E"/>
<path d="M17.695 11.911C17.3645 11.395 17.583 10.6715 17.524 9.863C17.479 8.546 16.9575 7.2535 15.8965 6.198L12.2825 2.6035C12.2825 2.6035 11.5705 1.895 10.861 2.6075C10.1525 3.3195 10.865 4.0285 10.865 4.0285L12.392 5.548L13.715 6.864C13.715 6.864 13.36 7.22 11.8955 5.763C10.43 4.3055 6.94851 0.840501 6.94851 0.840501C6.94851 0.840501 6.23601 0.132001 5.52701 0.844501C4.81801 1.5565 5.53051 2.265 5.53051 2.265L10.2085 6.92C10.1985 6.91 9.83151 7.2535 9.82501 7.247L4.82001 2.267C4.82001 2.267 4.10751 1.558 3.39851 2.2705C2.68951 2.983 3.40201 3.6915 3.40201 3.6915L8.40751 8.6725C8.41351 8.6785 8.06751 9.043 8.07751 9.053L3.76001 4.7565C3.76001 4.7565 3.04751 4.048 2.33851 4.7605C1.62951 5.473 2.34201 6.182 2.34201 6.182L6.93251 10.7495C6.97451 10.791 6.66751 11.195 6.72001 11.2475L3.41201 7.956C3.41201 7.956 2.69951 7.2475 1.99051 7.96C1.28151 8.6725 1.99401 9.3815 1.99401 9.3815L7.38901 14.7475C8.29001 15.644 9.23001 16.1135 10.376 16.313C10.6095 16.3535 10.9095 16.3635 11.0315 16.383C11.418 16.445 11.754 16.5945 12.2015 16.89C12.7765 17.2695 13.6525 17.449 14.177 16.925L15.9655 15.137L17.6165 13.486C18.141 12.961 18.0665 12.491 17.695 11.911Z" fill="#FFDB5E"/>
</g>
<defs>
<clipPath id="clip0_1387_74538">
<rect width="18" height="18" fill="white"/>
</clipPath>
</defs>
</svg>
