<svg width="64" height="64" viewBox="0 0 64 64" fill="none" xmlns="http://www.w3.org/2000/svg">
<path d="M52 60H42V56H52V52H46C43.796 52 42 50.206 42 48V44C42 41.794 43.796 40 46 40H56V44H46V48H52C54.206 48 56 49.796 56 52V56C56 58.206 54.206 60 52 60ZM20 40H32V44H20V40ZM20 32H36V36H20V32Z" fill="#613BD2"/>
<path d="M48 33.984H52V20C52 19.8 52 19.4 51.8 19.2C51.6 19 51.6 18.8 51.4 18.6L37.4 4.6C37.2 4.4 37 4.2 36.8 4.2C36.6 4 36.2 4 36 4H16C15 4 14 4.4 13.2 5.2C12.4 6 12 7 12 8V56C12 57 12.4 58 13.2 58.8C14 59.6 15 60 16 60H31.894V56H16V8H32V20C32 21 32.4 22 33.2 22.8C34 23.6 35 24 36 24H48V33.984ZM36 20V8.8L47.2 20H36Z" fill="#613BD2"/>
</svg>
