<svg width="20" height="20" viewBox="0 0 20 20" fill="none" xmlns="http://www.w3.org/2000/svg">
<path fill-rule="evenodd" clip-rule="evenodd" d="M16.5923 4.85799V15.1413H8.0076V4.85799H16.5923ZM17.5536 3.89799C17.2983 3.64266 16.9589 3.52466 16.6136 3.52466H3.38427C3.0396 3.52466 2.70027 3.64266 2.44493 3.89799C2.19027 4.15266 2.07227 4.49133 2.07227 4.83666V15.1633C2.07227 15.508 2.19027 15.8473 2.4456 16.102C2.70027 16.3567 3.03893 16.4753 3.38427 16.4753H16.6149C16.7884 16.4782 16.9607 16.4467 17.122 16.3826C17.2832 16.3186 17.4301 16.2232 17.5543 16.102C17.8089 15.8473 17.9269 15.508 17.9269 15.1627V4.83666C17.9269 4.49199 17.8089 4.15332 17.5536 3.89799ZM6.59093 6.20399C6.59093 6.07138 6.53825 5.94421 6.44449 5.85044C6.35072 5.75667 6.22354 5.70399 6.09093 5.70399H4.15493C4.02232 5.70399 3.89515 5.75667 3.80138 5.85044C3.70761 5.94421 3.65493 6.07138 3.65493 6.20399C3.65493 6.3366 3.70761 6.46378 3.80138 6.55754C3.89515 6.65131 4.02232 6.70399 4.15493 6.70399H6.09093C6.22354 6.70399 6.35072 6.65131 6.44449 6.55754C6.53825 6.46378 6.59093 6.3366 6.59093 6.20399ZM6.09093 8.28666C6.22354 8.28666 6.35072 8.33934 6.44449 8.4331C6.53825 8.52687 6.59093 8.65405 6.59093 8.78666C6.59093 8.91927 6.53825 9.04644 6.44449 9.14021C6.35072 9.23398 6.22354 9.28666 6.09093 9.28666H4.15493C4.02232 9.28666 3.89515 9.23398 3.80138 9.14021C3.70761 9.04644 3.65493 8.91927 3.65493 8.78666C3.65493 8.65405 3.70761 8.52687 3.80138 8.4331C3.89515 8.33934 4.02232 8.28666 4.15493 8.28666H6.09093ZM6.59093 11.2907C6.59093 11.1581 6.53825 11.0309 6.44449 10.9371C6.35072 10.8433 6.22354 10.7907 6.09093 10.7907H4.15493C4.02232 10.7907 3.89515 10.8433 3.80138 10.9371C3.70761 11.0309 3.65493 11.1581 3.65493 11.2907C3.65493 11.4233 3.70761 11.5504 3.80138 11.6442C3.89515 11.738 4.02232 11.7907 4.15493 11.7907H6.09093C6.22354 11.7907 6.35072 11.738 6.44449 11.6442C6.53825 11.5504 6.59093 11.4233 6.59093 11.2907ZM6.09093 13.2947C6.22354 13.2947 6.35072 13.3473 6.44449 13.4411C6.53825 13.5349 6.59093 13.6621 6.59093 13.7947C6.59093 13.9273 6.53825 14.0544 6.44449 14.1482C6.35072 14.242 6.22354 14.2947 6.09093 14.2947H5.2516C5.11899 14.2947 4.99181 14.242 4.89805 14.1482C4.80428 14.0544 4.7516 13.9273 4.7516 13.7947C4.7516 13.6621 4.80428 13.5349 4.89805 13.4411C4.99181 13.3473 5.11899 13.2947 5.2516 13.2947H6.09093Z" fill="#94A3B8"/>
</svg>
