<svg width="24" height="24" viewBox="0 0 24 24" fill="none" xmlns="http://www.w3.org/2000/svg">
<path d="M13.75 12H19M13.75 15.5H19M13.75 19H19M5 5.875C5 5.64294 5.09219 5.42038 5.25628 5.25628C5.42038 5.09219 5.64294 5 5.875 5H18.125C18.3571 5 18.5796 5.09219 18.7437 5.25628C18.9078 5.42038 19 5.64294 19 5.875V7.625C19 7.85706 18.9078 8.07962 18.7437 8.24372C18.5796 8.40781 18.3571 8.5 18.125 8.5H5.875C5.64294 8.5 5.42038 8.40781 5.25628 8.24372C5.09219 8.07962 5 7.85706 5 7.625V5.875ZM5 12.875C5 12.6429 5.09219 12.4204 5.25628 12.2563C5.42038 12.0922 5.64294 12 5.875 12H9.375C9.60706 12 9.82962 12.0922 9.99372 12.2563C10.1578 12.4204 10.25 12.6429 10.25 12.875V18.125C10.25 18.3571 10.1578 18.5796 9.99372 18.7437C9.82962 18.9078 9.60706 19 9.375 19H5.875C5.64294 19 5.42038 18.9078 5.25628 18.7437C5.09219 18.5796 5 18.3571 5 18.125V12.875Z" stroke="#BC8B41" stroke-width="1.33333" stroke-linecap="round" stroke-linejoin="round"/>
</svg>
