<svg width="20" height="20" viewBox="0 0 20 20" fill="none" xmlns="http://www.w3.org/2000/svg">
<path d="M7.48887 5.15552C7.48895 4.65029 7.62527 4.15556 7.88184 3.7294C8.13841 3.30323 8.50459 2.9633 8.9374 2.74951C9.37021 2.53572 9.85169 2.45693 10.3253 2.52239C10.799 2.58785 11.2452 2.79484 11.6115 3.11907C11.9779 3.44331 12.2492 3.87133 12.3936 4.35292C12.538 4.8345 12.5496 5.34967 12.4269 5.83796C12.3043 6.32626 12.0525 6.76742 11.7011 7.10967C11.3497 7.45193 10.9133 7.68108 10.4431 7.77024V9.68753H13.102C13.4546 9.68753 13.7927 9.83567 14.042 10.0994C14.2913 10.3631 14.4314 10.7207 14.4314 11.0936V12.2285C15.0492 12.3456 15.6032 12.7031 15.9842 13.2307C16.3652 13.7582 16.5457 14.4175 16.4901 15.0787C16.4345 15.7399 16.1469 16.3552 15.6839 16.8033C15.2208 17.2515 14.6159 17.5 13.9883 17.5C13.3606 17.5 12.7557 17.2515 12.2927 16.8033C11.8296 16.3552 11.542 15.7399 11.4864 15.0787C11.4308 14.4175 11.6113 13.7582 11.9924 13.2307C12.3734 12.7031 12.9273 12.3456 13.5451 12.2285V11.0936C13.5451 10.9693 13.4984 10.8501 13.4153 10.7622C13.3322 10.6743 13.2195 10.6249 13.102 10.6249H6.89801C6.78048 10.6249 6.66777 10.6743 6.58466 10.7622C6.50156 10.8501 6.45487 10.9693 6.45487 11.0936V12.2285C7.07267 12.3456 7.62662 12.7031 8.00765 13.2307C8.38868 13.7582 8.56917 14.4175 8.51358 15.0787C8.458 15.7399 8.17036 16.3552 7.70732 16.8033C7.24427 17.2515 6.63937 17.5 6.01173 17.5C5.38409 17.5 4.77919 17.2515 4.31614 16.8033C3.8531 16.3552 3.56546 15.7399 3.50987 15.0787C3.45429 14.4175 3.63478 13.7582 4.01581 13.2307C4.39684 12.7031 4.95079 12.3456 5.56859 12.2285V11.0936C5.56859 10.7207 5.70865 10.3631 5.95797 10.0994C6.20728 9.83567 6.54543 9.68753 6.89801 9.68753H9.55686V7.77024C8.9769 7.66026 8.45197 7.33809 8.07392 6.86009C7.69586 6.3821 7.48877 5.77871 7.48887 5.15552Z" fill="#BC8B41"/>
</svg>
