<svg width="20" height="20" viewBox="0 0 20 20" fill="none" xmlns="http://www.w3.org/2000/svg">
<g clip-path="url(#clip0_322_9740)">
<path fill-rule="evenodd" clip-rule="evenodd" d="M7.16095 3.11821C8.10425 2.70949 9.12152 2.49906 10.1496 2.5C11.1776 2.50094 12.1945 2.71322 13.1371 3.12367C14.0796 3.53411 14.9277 4.13395 15.6287 4.88593C16.3297 5.63791 16.8686 6.52599 17.212 7.495C17.5013 8.30714 17.3727 9.23714 16.8745 9.94C16.6247 10.2885 16.2957 10.5728 15.9146 10.7695C15.5335 10.9662 15.1112 11.0697 14.6824 11.0714H12.6788C12.2943 11.0701 11.9221 11.2066 11.6296 11.4562C11.3372 11.7059 11.144 12.0521 11.085 12.432C11.026 12.812 11.1052 13.2005 11.3082 13.527C11.5112 13.8536 11.8245 14.0965 12.1913 14.2118C12.7806 14.4314 13.1931 14.9639 13.2327 15.5896C13.2714 15.9453 13.1844 16.3034 12.9867 16.6016C12.789 16.8998 12.4932 17.1195 12.1506 17.2225C11.4961 17.4085 10.8188 17.5019 10.1384 17.5C8.76418 17.4992 7.41656 17.1207 6.24273 16.4061C5.07346 15.6859 4.12232 14.6609 3.49131 13.4412C2.86031 12.2215 2.57326 10.853 2.66095 9.4825C2.76273 8.11313 3.23535 6.7973 4.0281 5.67612C4.82086 4.55494 5.90385 3.67069 7.16095 3.11821ZM7.32166 10C7.53271 10 7.7417 9.95843 7.93669 9.87766C8.13168 9.79689 8.30885 9.67851 8.45808 9.52927C8.60732 9.38004 8.7257 9.20287 8.80647 9.00788C8.88723 8.81289 8.9288 8.60391 8.9288 8.39285C8.9288 8.1818 8.88723 7.97281 8.80647 7.77783C8.7257 7.58284 8.60732 7.40567 8.45808 7.25643C8.30885 7.10719 8.13168 6.98881 7.93669 6.90805C7.7417 6.82728 7.53271 6.78571 7.32166 6.78571C6.89542 6.78571 6.48664 6.95503 6.18524 7.25643C5.88384 7.55783 5.71452 7.96661 5.71452 8.39285C5.71452 8.81909 5.88384 9.22788 6.18524 9.52927C6.48664 9.83067 6.89542 10 7.32166 10ZM13.7502 6.78571C13.7502 7.21195 13.5809 7.62073 13.2795 7.92213C12.9781 8.22353 12.5693 8.39285 12.1431 8.39285C11.7168 8.39285 11.3081 8.22353 11.0067 7.92213C10.7053 7.62073 10.5359 7.21195 10.5359 6.78571C10.5359 6.35947 10.7053 5.95069 11.0067 5.64929C11.3081 5.34789 11.7168 5.17857 12.1431 5.17857C12.5693 5.17857 12.9781 5.34789 13.2795 5.64929C13.5809 5.95069 13.7502 6.35947 13.7502 6.78571ZM7.32166 13.75C7.60582 13.75 7.87834 13.6371 8.07928 13.4362C8.28021 13.2353 8.39309 12.9627 8.39309 12.6786C8.39309 12.3944 8.28021 12.1219 8.07928 11.921C7.87834 11.72 7.60582 11.6071 7.32166 11.6071C7.0375 11.6071 6.76498 11.72 6.56405 11.921C6.36311 12.1219 6.25023 12.3944 6.25023 12.6786C6.25023 12.9627 6.36311 13.2353 6.56405 13.4362C6.76498 13.6371 7.0375 13.75 7.32166 13.75Z" fill="#BC8B41"/>
</g>
<defs>
<clipPath id="clip0_322_9740">
<rect width="15" height="15" fill="white" transform="translate(2.5 2.5)"/>
</clipPath>
</defs>
</svg>
