<svg width="20" height="20" viewBox="0 0 20 20" fill="none" xmlns="http://www.w3.org/2000/svg">
<path d="M10.7595 2.65937C10.816 2.60553 10.8829 2.5637 10.956 2.53642C11.0291 2.50914 11.107 2.49697 11.1849 2.50064C14.5996 2.66052 17.3395 5.40043 17.4994 8.81507C17.503 8.89307 17.4908 8.971 17.4635 9.04415C17.4362 9.1173 17.3943 9.18415 17.3404 9.24064C17.2865 9.29714 17.2217 9.34211 17.1499 9.37283C17.0781 9.40355 17.0008 9.41939 16.9228 9.41938H11.1578C11.0047 9.41938 10.8579 9.35857 10.7497 9.25033C10.6414 9.14208 10.5806 8.99527 10.5806 8.84219V3.07725C10.5806 2.99911 10.5965 2.92178 10.6272 2.84995C10.658 2.77812 10.703 2.71328 10.7595 2.65937ZM9.24732 4.39093C9.30388 4.44484 9.3489 4.50968 9.37965 4.58151C9.41041 4.65334 9.42626 4.73067 9.42625 4.80881V9.13079C9.42625 9.51349 9.57827 9.88051 9.84888 10.1511C10.1195 10.4217 10.4865 10.5738 10.8692 10.5738H15.1912C15.2693 10.5737 15.3467 10.5894 15.4185 10.6201C15.4904 10.6508 15.5553 10.6958 15.6092 10.7523C15.6632 10.8088 15.7051 10.8757 15.7325 10.9489C15.7598 11.022 15.7721 11.1 15.7684 11.1781C15.6021 14.6978 12.6972 17.5 9.13765 17.5C5.47194 17.5 2.5 14.5281 2.5 10.8623C2.5 7.30226 5.30224 4.39728 8.82193 4.2322C8.89988 4.22853 8.97777 4.2407 9.05089 4.26798C9.124 4.29526 9.19083 4.33709 9.24732 4.39093Z" fill="#BC8B41"/>
</svg>
