<svg width="20" height="20" viewBox="0 0 20 20" fill="none" xmlns="http://www.w3.org/2000/svg">
<path d="M10 2.5C7.75628 2.5 5.9375 4.17888 5.9375 6.25C5.9375 8.32113 7.75628 10 10 10C12.2437 10 14.0625 8.32113 14.0625 6.25C14.0625 4.17888 12.2437 2.5 10 2.5ZM5.22656 11.5C4.76872 11.5 4.32962 11.6679 4.00584 11.9667C3.68206 12.2655 3.50011 12.6708 3.5 13.0934V13.375C3.5 14.7831 4.28894 15.8376 5.49875 16.5175C6.68906 17.1861 8.28806 17.5 10 17.5C11.7119 17.5 13.3109 17.1861 14.5013 16.5175C15.7111 15.8376 16.5 14.7831 16.5 13.375V13.0934C16.4999 12.6708 16.3179 12.2655 15.9942 11.9667C15.6704 11.6679 15.2313 11.5 14.7734 11.5H5.22656Z" fill="#BC8B41"/>
</svg>
