<svg width="20" height="20" viewBox="0 0 20 20" fill="none" xmlns="http://www.w3.org/2000/svg">
<path d="M3.12865 8.1936C2.92941 8.39174 2.77131 8.6273 2.66342 8.88674C2.55554 9.14619 2.5 9.4244 2.5 9.70538C2.5 9.98636 2.55554 10.2646 2.66342 10.524C2.77131 10.7835 2.92941 11.019 3.12865 11.2172L6.66014 14.7314C6.85686 14.9273 7.08975 15.083 7.34587 15.19C6.82197 14.0796 6.65801 12.8333 6.87688 11.6251C7.09575 10.417 7.68652 9.30742 8.56668 8.45135C9.44684 7.59529 10.5724 7.03552 11.7862 6.85024C12.9999 6.66496 14.2413 6.86341 15.3367 7.41789L15.3571 4.65361C15.3585 4.37013 15.3037 4.08919 15.1958 3.82705C15.0878 3.56492 14.929 3.3268 14.7284 3.1265C14.5278 2.92619 14.2894 2.76768 14.0271 2.66015C13.7648 2.55262 13.4838 2.4982 13.2003 2.50005L9.71806 2.51505C9.15157 2.51573 8.6084 2.7407 8.20732 3.14076L3.12865 8.1936ZM12.1428 6.78575C11.8586 6.78575 11.5861 6.67286 11.3851 6.47193C11.1842 6.271 11.0713 5.99848 11.0713 5.71432C11.0713 5.43016 11.1842 5.15764 11.3851 4.95671C11.5861 4.75578 11.8586 4.6429 12.1428 4.6429C12.4269 4.6429 12.6994 4.75578 12.9004 4.95671C13.1013 5.15764 13.2142 5.43016 13.2142 5.71432C13.2142 5.99848 13.1013 6.271 12.9004 6.47193C12.6994 6.67286 12.4269 6.78575 12.1428 6.78575ZM17.5 12.6786C17.5 13.3117 17.3753 13.9387 17.133 14.5237C16.8907 15.1086 16.5355 15.6401 16.0878 16.0878C15.6401 16.5355 15.1086 16.8907 14.5236 17.133C13.9386 17.3753 13.3116 17.5 12.6785 17.5C12.0453 17.5 11.4183 17.3753 10.8334 17.133C10.2484 16.8907 9.71687 16.5355 9.26915 16.0878C8.82143 15.6401 8.46628 15.1086 8.22397 14.5237C7.98167 13.9387 7.85695 13.3117 7.85695 12.6786C7.85695 11.3999 8.36493 10.1735 9.26915 9.26933C10.1734 8.36514 11.3997 7.85717 12.6785 7.85717C13.9572 7.85717 15.1836 8.36514 16.0878 9.26933C16.992 10.1735 17.5 11.3999 17.5 12.6786ZM13.2142 10.5357C13.2142 10.3937 13.1578 10.2574 13.0573 10.1569C12.9568 10.0565 12.8206 10 12.6785 10C12.5364 10 12.4001 10.0565 12.2997 10.1569C12.1992 10.2574 12.1428 10.3937 12.1428 10.5357V12.1429H10.5356C10.3935 12.1429 10.2572 12.1993 10.1568 12.2998C10.0563 12.4002 9.99985 12.5365 9.99985 12.6786C9.99985 12.8207 10.0563 12.9569 10.1568 13.0574C10.2572 13.1579 10.3935 13.2143 10.5356 13.2143H12.1428V14.8214C12.1428 14.9635 12.1992 15.0998 12.2997 15.2002C12.4001 15.3007 12.5364 15.3571 12.6785 15.3571C12.8206 15.3571 12.9568 15.3007 13.0573 15.2002C13.1578 15.0998 13.2142 14.9635 13.2142 14.8214V13.2143H14.8214C14.9635 13.2143 15.0997 13.1579 15.2002 13.0574C15.3007 12.9569 15.3571 12.8207 15.3571 12.6786C15.3571 12.5365 15.3007 12.4002 15.2002 12.2998C15.0997 12.1993 14.9635 12.1429 14.8214 12.1429H13.2142V10.5357Z" fill="#BC8B41"/>
</svg>
