<svg width="20" height="20" viewBox="0 0 20 20" fill="none" xmlns="http://www.w3.org/2000/svg">
<path d="M5.76946 3.6545C5.36489 3.6545 4.80802 4.13906 4.80802 5.05512V14.9456C4.80802 15.8625 5.36489 16.3463 5.76946 16.3463H11.1505C11.3034 16.3463 11.4502 16.4071 11.5584 16.5152C11.6665 16.6234 11.7273 16.7701 11.7273 16.9231C11.7273 17.0761 11.6665 17.2229 11.5584 17.331C11.4502 17.4392 11.3034 17.5 11.1505 17.5H5.76946C4.47498 17.5 3.6543 16.2132 3.6543 14.9456V5.05435C3.6543 3.78679 4.47498 2.5 5.76946 2.5H11.1535C11.3065 2.5 11.4532 2.56078 11.5614 2.66896C11.6696 2.77714 11.7304 2.92387 11.7304 3.07686C11.7304 3.22986 11.6696 3.37659 11.5614 3.48477C11.4532 3.59295 11.3065 3.65373 11.1535 3.65373L5.76946 3.6545Z" fill="#BC8B41"/>
<path d="M13.484 6.90064C13.3758 6.79261 13.2292 6.73193 13.0764 6.73193C12.9235 6.73193 12.7769 6.79261 12.6687 6.90064V9.42038H8.07686C7.92387 9.42038 7.77714 9.48116 7.66896 9.58934C7.56078 9.69752 7.5 9.84425 7.5 9.99725C7.5 10.1502 7.56078 10.297 7.66896 10.4051C7.77714 10.5133 7.92387 10.5741 8.07686 10.5741H12.6687V13.1C12.7769 13.208 12.9235 13.2687 13.0764 13.2687C13.2292 13.2687 13.3758 13.208 13.484 13.1L16.176 10.408C16.2298 10.3543 16.2724 10.2905 16.3015 10.2203C16.3305 10.15 16.3454 10.0748 16.3452 9.99878V9.99725C16.3452 9.91288 16.3266 9.82956 16.2909 9.75314C16.2551 9.67673 16.2031 9.60909 16.1383 9.55498L13.484 6.90064Z" fill="#BC8B41"/>
</svg>
