<svg width="20" height="20" viewBox="0 0 20 20" fill="none" xmlns="http://www.w3.org/2000/svg">
<path d="M9.005 2.75718C9.30752 2.5887 9.65068 2.5 10 2.5C10.3493 2.5 10.6925 2.5887 10.995 2.75718L16.005 5.54681C16.3075 5.71529 16.5587 5.95761 16.7334 6.24943C16.908 6.54124 17 6.87226 17 7.20922V12.79C17 13.127 16.908 13.458 16.7334 13.7498C16.5587 14.0416 16.3075 14.2839 16.005 14.4524L10.995 17.2428C10.6925 17.4113 10.3493 17.5 10 17.5C9.65068 17.5 9.30752 17.4113 9.005 17.2428L3.995 14.4524C3.69249 14.2839 3.44128 14.0416 3.26662 13.7498C3.09196 13.458 3.00001 13.127 3 12.79V7.20999C2.99987 6.8729 3.09176 6.54172 3.26642 6.24976C3.44109 5.9578 3.69237 5.71535 3.995 5.54681L9.005 2.75718ZM10 7.69681C9.36666 7.69681 8.75927 7.93951 8.31143 8.37151C7.8636 8.80352 7.61201 9.38944 7.61201 10.0004C7.61201 10.6113 7.8636 11.1973 8.31143 11.6293C8.75927 12.0613 9.36666 12.304 10 12.304C10.6333 12.304 11.2407 12.0613 11.6886 11.6293C12.1364 11.1973 12.388 10.6113 12.388 10.0004C12.388 9.38944 12.1364 8.80352 11.6886 8.37151C11.2407 7.93951 10.6333 7.69681 10 7.69681Z" fill="#BC8B41"/>
</svg>
