<svg width="20" height="20" viewBox="0 0 20 20" fill="none" xmlns="http://www.w3.org/2000/svg">
<path d="M6.80129 15.472L8.91756 17.4988L8.75006 17.5C4.82502 17.5 2.5 15.0652 2.5 12.7V12.1C2.5 11.6226 2.69755 11.1648 3.04918 10.8272C3.40081 10.4896 3.87773 10.3 4.37502 10.3H9.59256C9.48919 10.3659 9.39288 10.4415 9.30506 10.5256L6.80004 12.9244C6.62542 13.0916 6.48689 13.2902 6.39236 13.5089C6.29784 13.7276 6.24918 13.962 6.24918 14.1988C6.24918 14.4356 6.29784 14.67 6.39236 14.8887C6.48689 15.1074 6.62542 15.306 6.80004 15.4732M8.75006 2.5C9.66175 2.5 10.5361 2.84768 11.1808 3.46655C11.8254 4.08542 12.1876 4.92479 12.1876 5.8C12.1876 6.67521 11.8254 7.51458 11.1808 8.13345C10.5361 8.75232 9.66175 9.1 8.75006 9.1C7.83837 9.1 6.96402 8.75232 6.31935 8.13345C5.67469 7.51458 5.31253 6.67521 5.31253 5.8C5.31253 4.92479 5.67469 4.08542 6.31935 3.46655C6.96402 2.84768 7.83837 2.5 8.75006 2.5ZM9.63756 14.7976H15.3664L13.9339 16.1692C13.8741 16.2245 13.8264 16.2906 13.7935 16.3638C13.7607 16.4369 13.7433 16.5156 13.7425 16.5953C13.7416 16.675 13.7573 16.754 13.7886 16.8278C13.82 16.9015 13.8663 16.9686 13.9249 17.025C13.9835 17.0814 14.0532 17.1261 14.1299 17.1563C14.2067 17.1866 14.289 17.2019 14.372 17.2013C14.455 17.2007 14.537 17.1843 14.6133 17.153C14.6896 17.1216 14.7586 17.076 14.8164 17.0188L17.3164 14.6236C17.3746 14.5679 17.4208 14.5017 17.4523 14.4288C17.4838 14.3559 17.5 14.2777 17.5 14.1988C17.5 14.1199 17.4838 14.0417 17.4523 13.9688C17.4208 13.8959 17.3746 13.8297 17.3164 13.774L14.8164 11.3752C14.699 11.2627 14.5399 11.1996 14.374 11.1997C14.2082 11.1998 14.0492 11.2631 13.932 11.3758C13.8148 11.4885 13.749 11.6412 13.7491 11.8004C13.7492 11.9596 13.8152 12.1123 13.9326 12.2248L15.3639 13.5976H9.63756L11.0701 12.2248C11.1841 12.1118 11.2473 11.9603 11.2461 11.803C11.245 11.6457 11.1794 11.4951 11.0637 11.3837C10.948 11.2723 10.7913 11.209 10.6275 11.2074C10.4636 11.2058 10.3056 11.2661 10.1876 11.3752L7.6838 13.774C7.62559 13.8297 7.57941 13.8959 7.5479 13.9688C7.5164 14.0417 7.50018 14.1199 7.50018 14.1988C7.50018 14.2777 7.5164 14.3559 7.5479 14.4288C7.57941 14.5017 7.62559 14.5679 7.6838 14.6236L10.1876 17.0188C10.3056 17.1279 10.4636 17.1882 10.6275 17.1866C10.7913 17.185 10.948 17.1217 11.0637 17.0103C11.1794 16.8989 11.245 16.7483 11.2461 16.591C11.2473 16.4337 11.1841 16.2822 11.0701 16.1692L9.63756 14.7976Z" fill="#BC8B41"/>
</svg>
