<svg width="20" height="20" viewBox="0 0 20 20" fill="none" xmlns="http://www.w3.org/2000/svg">
<path fill-rule="evenodd" clip-rule="evenodd" d="M11.6473 2.96331C11.2373 3.50136 10.9887 4.13569 10.9281 4.79826C10.8675 5.46083 10.9972 6.12663 11.3033 6.72424C11.6094 7.32185 12.0803 7.82872 12.6656 8.19048C13.2509 8.55224 13.9284 8.75523 14.6254 8.77769V8.78536C14.6364 8.92352 14.6474 9.06516 14.662 9.20192C14.8354 10.7698 15.2306 11.8464 15.6103 12.5532C15.8628 13.0242 16.1108 13.3368 16.2864 13.5259C16.3635 13.6093 16.4466 13.6874 16.5352 13.7596L16.5425 13.7638C16.6364 13.8288 16.7063 13.9205 16.7421 14.0257C16.778 14.1309 16.7779 14.2443 16.742 14.3494C16.7061 14.4546 16.6361 14.5463 16.5422 14.6112C16.4482 14.6761 16.3351 14.7109 16.2191 14.7107H3.04814C2.93239 14.7106 2.81964 14.6755 2.72602 14.6106C2.6324 14.5457 2.56271 14.4542 2.52691 14.3492C2.49111 14.2443 2.49103 14.1312 2.52669 14.0262C2.56235 13.9211 2.63192 13.8296 2.72545 13.7645L2.73131 13.7596L2.77814 13.722C2.82204 13.6843 2.89302 13.6208 2.98082 13.5259C3.15644 13.3375 3.40449 13.0249 3.65693 12.5539C4.16182 11.6127 4.69451 10.0218 4.69451 7.48894C4.69451 6.17646 5.20672 4.91144 6.12868 3.97366C7.05212 3.03448 8.31214 2.5 9.63362 2.5C9.91363 2.5 10.19 2.52349 10.4627 2.57047C10.6368 2.60048 11.2076 2.77003 11.6473 2.96331Z" fill="#BC8B41"/>
<path fill-rule="evenodd" clip-rule="evenodd" d="M12.012 5.11658C12.012 4.42262 12.3011 3.75708 12.8157 3.26638C13.3302 2.77567 14.0282 2.5 14.7559 2.5C15.4837 2.5 16.1816 2.77567 16.6962 3.26638C17.2108 3.75708 17.4999 4.42262 17.4999 5.11658C17.4999 5.81054 17.2108 6.47607 16.6962 6.96677C16.1816 7.45748 15.4837 7.73315 14.7559 7.73315C14.0282 7.73315 13.3302 7.45748 12.8157 6.96677C12.3011 6.47607 12.012 5.81054 12.012 5.11658ZM8.09288 15.8278C8.15524 15.7933 8.22411 15.7709 8.29555 15.7619C8.367 15.7528 8.43962 15.7572 8.50926 15.7749C8.57891 15.7926 8.64422 15.8232 8.70146 15.8649C8.75871 15.9067 8.80677 15.9588 8.84289 16.0183C8.92332 16.1504 9.03871 16.26 9.17753 16.3362C9.31634 16.4124 9.47371 16.4525 9.63388 16.4525C9.79406 16.4525 9.95143 16.4124 10.0902 16.3362C10.2291 16.26 10.3444 16.1504 10.4249 16.0183C10.4611 15.9588 10.5092 15.9067 10.5664 15.865C10.6237 15.8232 10.6891 15.7927 10.7588 15.775C10.8284 15.7574 10.9011 15.753 10.9726 15.7621C11.044 15.7712 11.1129 15.7936 11.1753 15.8281C11.2376 15.8626 11.2922 15.9085 11.336 15.9631C11.3798 16.0178 11.4118 16.0801 11.4304 16.1465C11.4489 16.213 11.4535 16.2823 11.4439 16.3504C11.4344 16.4185 11.4108 16.4842 11.3746 16.5437C11.1978 16.8345 10.9439 17.076 10.6384 17.2438C10.3329 17.4117 9.98647 17.5 9.63388 17.5C9.2813 17.5 8.93491 17.4117 8.62939 17.2438C8.32388 17.076 8.06998 16.8345 7.89312 16.5437C7.85687 16.4842 7.83328 16.4185 7.8237 16.3503C7.81413 16.2821 7.81875 16.2127 7.8373 16.1462C7.85585 16.0797 7.88798 16.0174 7.93184 15.9627C7.97569 15.9081 8.03042 15.8622 8.09288 15.8278Z" fill="#BC8B41"/>
</svg>
