<svg width="20" height="20" viewBox="0 0 20 20" fill="none" xmlns="http://www.w3.org/2000/svg">
<path fill-rule="evenodd" clip-rule="evenodd" d="M6.46848 8.5C6.46839 8.03031 6.59124 7.56894 6.8246 7.16254C7.05795 6.75615 7.39354 6.41916 7.79741 6.18567C7.79278 5.89256 7.79025 5.55289 7.78981 5.16667C7.78981 4.31633 7.80435 3.69833 7.81954 3.285C7.83375 2.885 8.10164 2.556 8.49672 2.52333C8.66519 2.50967 8.86934 2.5 9.11114 2.5C9.35294 2.5 9.55709 2.50967 9.72556 2.52333C10.1206 2.556 10.3885 2.885 10.4027 3.285C10.4179 3.69833 10.4325 4.31633 10.4325 5.16667C10.4322 5.55289 10.4297 5.89256 10.4249 6.18567C10.8277 6.41855 11.1626 6.75439 11.3959 7.15939C11.6292 7.56439 11.7526 8.02426 11.7538 8.49271C11.755 8.96116 11.6338 9.42166 11.4026 9.82785C11.1713 10.234 10.8381 10.5716 10.4365 10.8065C10.0349 11.0415 9.57898 11.1655 9.11475 11.1661C8.65052 11.1668 8.19431 11.044 7.79205 10.8102C7.38978 10.5764 7.05566 10.2397 6.82331 9.83416C6.59096 9.42861 6.46858 8.96845 6.46848 8.5ZM11.4218 5.67C11.4229 5.51222 11.4235 5.34444 11.4235 5.16667C11.4235 4.305 11.4089 3.67467 11.3934 3.24833C11.3883 3.1105 11.368 2.97366 11.333 2.84033C13.7602 3.675 15.5159 5.952 15.5708 8.648L16.8525 10.4513C17.0814 10.7737 17.0573 11.2447 16.6856 11.4743C16.4039 11.6477 15.9923 11.85 15.44 11.9977L15.2497 14.2743C15.2366 14.4308 15.1924 14.583 15.1197 14.7219C15.0469 14.8607 14.9471 14.9833 14.8263 15.0822C14.7055 15.1812 14.5661 15.2546 14.4165 15.2979C14.2669 15.3412 14.1102 15.3536 13.9558 15.3343L13.1233 15.2303V16.2027C13.1233 16.705 12.7993 17.1593 12.2912 17.2543C11.6798 17.3693 10.6779 17.5 9.28588 17.5C7.89387 17.5 6.8923 17.3693 6.28053 17.2543C5.77281 17.159 5.44809 16.705 5.44809 16.2027V13.75C3.96027 12.6027 3 10.8023 3 8.77767C3 6.16967 4.5922 3.93433 6.85728 2.986C6.84187 3.07267 6.8324 3.16011 6.82888 3.24833C6.81335 3.67467 6.79882 4.305 6.79882 5.16667C6.79882 5.34444 6.79937 5.51222 6.80047 5.67C6.38636 6.01371 6.05292 6.44579 5.82416 6.93514C5.5954 7.42449 5.477 7.95894 5.47749 8.5C5.47749 10.4553 6.99437 12.0533 8.90534 12.161C9.98487 13.1723 11.5556 13.8333 13.0751 13.8333C13.2065 13.8333 13.3326 13.7807 13.4255 13.6869C13.5184 13.5931 13.5706 13.4659 13.5706 13.3333C13.5706 13.2007 13.5184 13.0735 13.4255 12.9798C13.3326 12.886 13.2065 12.8333 13.0751 12.8333C12.1099 12.8333 11.1034 12.5057 10.2799 11.973C11.7135 11.482 12.7448 10.1123 12.7448 8.5C12.7453 7.95894 12.6269 7.42449 12.3981 6.93514C12.1694 6.44579 11.8359 6.01371 11.4218 5.67Z" fill="#BC8B41"/>
</svg>
