<svg width="20" height="20" viewBox="0 0 20 20" fill="none" xmlns="http://www.w3.org/2000/svg">
<g clip-path="url(#clip0_1206_20026)">
<path fill-rule="evenodd" clip-rule="evenodd" d="M7.59622 3.34225C7.43889 3.65825 7.23022 4.11459 7.09089 4.57559C5.87322 4.64492 4.99155 4.75159 4.37589 4.85325C3.42555 5.00992 2.78755 5.78325 2.69789 6.69659C2.60387 7.67642 2.54406 8.65924 2.51855 9.64325C3.4698 9.95154 4.42628 10.2435 5.38755 10.5189C6.25755 10.7679 7.18489 11.0149 8.01489 11.1993C8.85689 11.3866 9.55989 11.4999 10.0002 11.4999C10.4402 11.4999 11.1436 11.3866 11.9856 11.1993C12.8156 11.0149 13.7426 10.7679 14.6129 10.5193C15.5741 10.2438 16.5304 9.95187 17.4816 9.64359C17.4565 8.65935 17.3967 7.67629 17.3026 6.69625C17.2126 5.78292 16.5749 5.00959 15.6246 4.85292C15.0089 4.75159 14.1272 4.64492 12.9096 4.57559C12.7702 4.11459 12.5616 3.65825 12.4042 3.34225C12.1609 2.85359 11.6969 2.48525 11.1199 2.40625C10.8336 2.36659 10.4546 2.33325 10.0002 2.33325C9.54589 2.33325 9.16689 2.36692 8.88022 2.40625C8.30355 2.48525 7.83955 2.85359 7.59622 3.34225ZM10.0002 3.66659C9.61155 3.66659 9.29355 3.69559 9.06122 3.72725C8.95655 3.74159 8.85289 3.80959 8.78955 3.93692C8.70289 4.11092 8.60955 4.31192 8.52589 4.51792C8.98144 4.50592 9.47289 4.49992 10.0002 4.49992C10.5278 4.50036 11.0192 4.50636 11.4746 4.51792C11.3912 4.31192 11.2979 4.11125 11.2109 3.93692C11.1476 3.80959 11.0439 3.74159 10.9392 3.72725C10.6279 3.68599 10.3142 3.66572 10.0002 3.66659Z" fill="#BC8B41"/>
<path d="M17.499 10.6882L17.1817 10.7892C16.585 10.9776 15.7683 11.2292 14.8873 11.4806C14.0073 11.7319 13.0597 11.9849 12.2023 12.1756C11.3567 12.3632 10.5597 12.4999 10 12.4999C9.44033 12.4999 8.64333 12.3632 7.79767 12.1756C6.94033 11.9849 5.99233 11.7322 5.11267 11.4806C4.2381 11.23 3.36744 10.9659 2.501 10.6886C2.50033 10.791 2.5 10.8948 2.5 10.9999C2.5 12.8762 2.60467 14.3569 2.69767 15.3032C2.78767 16.2166 3.42533 16.9899 4.37567 17.1466C5.40233 17.3159 7.16933 17.4999 10 17.4999C12.8307 17.4999 14.5977 17.3159 15.6243 17.1466C16.5747 16.9899 17.2127 16.2166 17.3023 15.3032C17.3957 14.3569 17.5 12.8762 17.5 10.9999C17.5 10.8948 17.4997 10.7909 17.499 10.6882Z" fill="#BC8B41"/>
</g>
<defs>
<clipPath id="clip0_1206_20026">
<rect width="16" height="16" fill="white" transform="translate(2 2)"/>
</clipPath>
</defs>
</svg>
