<svg width="20" height="20" viewBox="0 0 20 20" fill="none" xmlns="http://www.w3.org/2000/svg">
<path d="M9.93066 11.4976H15.8126C16.2601 11.4976 16.6893 11.6754 17.0058 11.9919C17.3222 12.3084 17.5 12.7377 17.5 13.1854V13.8642C17.5 14.2696 17.4124 14.6701 17.2432 15.0384C17.074 15.4068 16.8273 15.7342 16.5198 15.9983C15.3454 17.0072 13.6655 17.5 11.4981 17.5H11.3638C11.477 17.2723 11.5216 17.0165 11.4921 16.7639C11.4627 16.5113 11.3606 16.2727 11.1981 16.077L11.1148 15.9863L9.44244 14.318C9.9375 13.4667 10.1112 12.4658 9.93066 11.4976ZM5.87338 8.87221C6.51449 8.87223 7.14233 9.05491 7.68342 9.39885C8.2245 9.7428 8.65644 10.2338 8.92868 10.8143C9.20092 11.3949 9.3022 12.041 9.22065 12.677C9.13911 13.3131 8.87813 13.9127 8.46824 14.4058L10.5854 16.5166C10.6853 16.617 10.7437 16.7514 10.7489 16.893C10.7541 17.0346 10.7057 17.1729 10.6133 17.2804C10.521 17.3878 10.3915 17.4564 10.2508 17.4725C10.11 17.4886 9.96839 17.451 9.85417 17.3672L9.79042 17.3132L7.61329 15.1409C7.16751 15.4089 6.66584 15.5702 6.14744 15.6122C5.62904 15.6542 5.10795 15.5758 4.62484 15.3832C4.14173 15.1905 3.70969 14.8887 3.36243 14.5015C3.01517 14.1142 2.7621 13.6519 2.62298 13.1506C2.48386 12.6494 2.46244 12.1228 2.56041 11.6119C2.65838 11.101 2.87308 10.6197 3.18775 10.2055C3.50242 9.79127 3.90854 9.45543 4.37441 9.22415C4.84028 8.99288 5.35329 8.87243 5.87338 8.87221ZM5.87338 9.99737C5.27668 9.99737 4.70442 10.2345 4.28248 10.6565C3.86055 11.0785 3.62351 11.6509 3.62351 12.2477C3.62351 12.8445 3.86055 13.4169 4.28248 13.8389C4.70442 14.261 5.27668 14.498 5.87338 14.498C6.47009 14.498 7.04235 14.261 7.46429 13.8389C7.88622 13.4169 8.12326 12.8445 8.12326 12.2477C8.12326 11.6509 7.88622 11.0785 7.46429 10.6565C7.04235 10.2345 6.47009 9.99737 5.87338 9.99737ZM11.4981 2.5C11.9905 2.5 12.4781 2.59701 12.9331 2.78549C13.388 2.97398 13.8014 3.25024 14.1496 3.59851C14.4978 3.94679 14.774 4.36024 14.9624 4.81528C15.1509 5.27032 15.2479 5.75803 15.2479 6.25056C15.2479 6.74309 15.1509 7.2308 14.9624 7.68584C14.774 8.14088 14.4978 8.55434 14.1496 8.90261C13.8014 9.25088 13.388 9.52715 12.9331 9.71563C12.4781 9.90411 11.9905 10.0011 11.4981 10.0011C10.5036 10.0011 9.5498 9.60598 8.84657 8.90261C8.14335 8.19924 7.74828 7.24527 7.74828 6.25056C7.74828 5.25585 8.14335 4.30188 8.84657 3.59851C9.5498 2.89515 10.5036 2.5 11.4981 2.5Z" fill="#BC8B41"/>
</svg>
