<svg width="20" height="20" viewBox="0 0 20 20" fill="none" xmlns="http://www.w3.org/2000/svg">
<path fill-rule="evenodd" clip-rule="evenodd" d="M4.4 16.5C3.76348 16.5 3.15303 16.2432 2.70294 15.7861C2.25286 15.329 2 14.709 2 14.0625V5.9375C2 5.29103 2.25286 4.67105 2.70294 4.21393C3.15303 3.75681 3.76348 3.5 4.4 3.5H15.6C16.2365 3.5 16.847 3.75681 17.2971 4.21393C17.7471 4.67105 18 5.29103 18 5.9375V14.0625C18 14.709 17.7471 15.329 17.2971 15.7861C16.847 16.2432 16.2365 16.5 15.6 16.5H4.4ZM6.5 6.92875C6.41851 6.85808 6.32387 6.80475 6.22169 6.77194C6.11952 6.73913 6.01189 6.7275 5.90521 6.73774C5.79852 6.74799 5.69495 6.77989 5.60064 6.83157C5.50634 6.88325 5.42321 6.95364 5.3562 7.03858C5.28919 7.12351 5.23967 7.22125 5.21057 7.32599C5.18147 7.43074 5.17338 7.54035 5.1868 7.64833C5.20021 7.75631 5.23484 7.86045 5.28865 7.95457C5.34245 8.0487 5.41432 8.13088 5.5 8.19625L8.5 10.6346C8.92567 10.9807 9.45471 11.1693 10 11.1693C10.5453 11.1693 11.0743 10.9807 11.5 10.6346L14.5 8.19706C14.5821 8.13038 14.6504 8.04793 14.701 7.95443C14.7517 7.86093 14.7838 7.7582 14.7954 7.65213C14.8069 7.54605 14.7978 7.43869 14.7686 7.33618C14.7393 7.23367 14.6905 7.13802 14.6248 7.05469C14.5591 6.97136 14.478 6.90197 14.3859 6.85051C14.2938 6.79904 14.1927 6.76649 14.0882 6.75472C13.9838 6.74295 13.8781 6.75219 13.7772 6.78191C13.6762 6.81163 13.5821 6.86125 13.5 6.92794L10.5 9.36544C10.3581 9.48081 10.1818 9.54368 10 9.54368C9.81824 9.54368 9.64189 9.48081 9.5 9.36544L6.5 6.92875Z" fill="#BC8B41"/>
</svg>
