<svg width="20" height="20" viewBox="0 0 20 20" fill="none" xmlns="http://www.w3.org/2000/svg">
<path d="M10.0001 15.2505C10.1838 15.2505 10.3611 15.318 10.4984 15.44C10.6357 15.5621 10.7234 15.7303 10.7449 15.9127L10.7501 16.0005V16.7505C10.7499 16.9416 10.6767 17.1255 10.5455 17.2645C10.4143 17.4035 10.2349 17.4872 10.0441 17.4984C9.85327 17.5096 9.66536 17.4475 9.51877 17.3248C9.37218 17.2021 9.27797 17.0281 9.2554 16.8382L9.25015 16.7505V16.0005C9.25015 15.8016 9.32916 15.6108 9.46982 15.4702C9.61047 15.3295 9.80123 15.2505 10.0001 15.2505ZM14.7349 13.683L14.8054 13.7452L15.3304 14.2702C15.4649 14.4052 15.543 14.5863 15.5488 14.7768C15.5546 14.9672 15.4877 15.1528 15.3617 15.2957C15.2357 15.4386 15.06 15.5282 14.8703 15.5463C14.6806 15.5644 14.4911 15.5095 14.3404 15.393L14.2699 15.3307L13.7449 14.8057C13.6155 14.6765 13.5377 14.5045 13.5262 14.322C13.5148 14.1395 13.5704 13.9591 13.6826 13.8147C13.7948 13.6703 13.956 13.5719 14.1357 13.538C14.3154 13.504 14.5013 13.5369 14.6584 13.6305L14.7349 13.683ZM6.2554 13.7452C6.38453 13.8744 6.4621 14.0462 6.47356 14.2285C6.48502 14.4107 6.42958 14.5909 6.31765 14.7352L6.2554 14.8057L5.7304 15.3307C5.59543 15.4652 5.41432 15.5433 5.22386 15.5492C5.0334 15.555 4.84786 15.4881 4.70494 15.3621C4.56201 15.236 4.47242 15.0603 4.45435 14.8706C4.43628 14.6809 4.49109 14.4915 4.60765 14.3407L4.6699 14.2702L5.1949 13.7452C5.33554 13.6046 5.52627 13.5256 5.72515 13.5256C5.92402 13.5256 6.11475 13.6046 6.2554 13.7452ZM4.00015 9.25049C4.19131 9.2507 4.37517 9.3239 4.51417 9.45512C4.65317 9.58635 4.73682 9.7657 4.74802 9.95653C4.75923 10.1474 4.69714 10.3353 4.57445 10.4819C4.45175 10.6285 4.27772 10.7227 4.0879 10.7452L4.00015 10.7505H3.25015C3.05899 10.7503 2.87512 10.6771 2.73612 10.5459C2.59712 10.4146 2.51347 10.2353 2.50227 10.0444C2.49106 9.85361 2.55315 9.6657 2.67584 9.51911C2.79854 9.37252 2.97257 9.27832 3.1624 9.25574L3.25015 9.25049H4.00015ZM16.7501 9.25049C16.9413 9.2507 17.1252 9.3239 17.2642 9.45512C17.4032 9.58635 17.4868 9.7657 17.498 9.95653C17.5092 10.1474 17.4471 10.3353 17.3244 10.4819C17.2018 10.6285 17.0277 10.7227 16.8379 10.7452L16.7501 10.7505H16.0001C15.809 10.7503 15.6251 10.6771 15.4861 10.5459C15.3471 10.4146 15.2635 10.2353 15.2523 10.0444C15.2411 9.85361 15.3032 9.6657 15.4258 9.51911C15.5485 9.37252 15.7226 9.27832 15.9124 9.25574L16.0001 9.25049H16.7501ZM5.6599 4.60799L5.7304 4.67024L6.2554 5.19524C6.38991 5.33021 6.468 5.51131 6.47382 5.70178C6.47963 5.89224 6.41273 6.07777 6.28671 6.2207C6.16068 6.36362 5.98498 6.45322 5.79529 6.47129C5.6056 6.48936 5.41614 6.43455 5.2654 6.31799L5.1949 6.25574L4.6699 5.73074C4.54096 5.6015 4.46359 5.42967 4.4523 5.24746C4.441 5.06526 4.49654 4.88518 4.60852 4.741C4.72049 4.59682 4.88121 4.49843 5.06055 4.46428C5.23988 4.43013 5.42551 4.46256 5.58265 4.55549L5.6599 4.60799ZM15.3304 4.67024C15.4595 4.79938 15.5371 4.97121 15.5486 5.15348C15.56 5.33575 15.5046 5.51594 15.3926 5.66024L15.3304 5.73074L14.8054 6.25574C14.6704 6.39025 14.4893 6.46834 14.2989 6.47416C14.1084 6.47998 13.9229 6.41308 13.7799 6.28705C13.637 6.16103 13.5474 5.98532 13.5293 5.79563C13.5113 5.60594 13.5661 5.41648 13.6826 5.26574L13.7449 5.19524L14.2699 4.67024C14.4105 4.52964 14.6013 4.45065 14.8001 4.45065C14.999 4.45065 15.1897 4.52964 15.3304 4.67024ZM10.0001 2.50049C10.1838 2.50051 10.3611 2.56796 10.4984 2.69002C10.6357 2.81209 10.7234 2.9803 10.7449 3.16274L10.7501 3.25049V4.00049C10.7499 4.19165 10.6767 4.37551 10.5455 4.51451C10.4143 4.65352 10.2349 4.73716 10.0441 4.74837C9.85327 4.75957 9.66536 4.69748 9.51877 4.57479C9.37218 4.4521 9.27797 4.27806 9.2554 4.08824L9.25015 4.00049V3.25049C9.25015 3.05158 9.32916 2.86081 9.46982 2.72016C9.61047 2.57951 9.80123 2.50049 10.0001 2.50049ZM10.0001 6.25049C10.7349 6.25045 11.4535 6.46626 12.0666 6.87111C12.6798 7.27597 13.1605 7.85204 13.4491 8.52776C13.7376 9.20348 13.8213 9.94909 13.6898 10.672C13.5582 11.3949 13.2172 12.0632 12.709 12.5939C12.2009 13.1246 11.548 13.4944 10.8315 13.6572C10.1151 13.8201 9.36652 13.7689 8.6789 13.5099C7.99127 13.251 7.39486 12.7958 6.96374 12.2008C6.53262 11.6058 6.28578 10.8973 6.2539 10.1632L6.25015 10.0005L6.2539 9.83774C6.29584 8.8723 6.70885 7.96032 7.40681 7.29198C8.10477 6.62364 9.0338 6.25054 10.0001 6.25049Z" fill="#BC8B41"/>
</svg>
