<svg width="20" height="20" viewBox="0 0 20 20" fill="none" xmlns="http://www.w3.org/2000/svg">
<path d="M8.12498 8.55547C8.46969 8.55547 8.81103 8.49009 9.12951 8.36306C9.44799 8.23603 9.73736 8.04984 9.98112 7.81512C10.2249 7.58039 10.4182 7.30174 10.5501 6.99506C10.6821 6.68838 10.75 6.35968 10.75 6.02774C10.75 5.69579 10.6821 5.36709 10.5501 5.06041C10.4182 4.75373 10.2249 4.47508 9.98112 4.24036C9.73736 4.00563 9.44799 3.81944 9.12951 3.69241C8.81103 3.56538 8.46969 3.5 8.12498 3.5C7.42879 3.5 6.76112 3.76631 6.26884 4.24036C5.77656 4.7144 5.5 5.35734 5.5 6.02774C5.5 6.69813 5.77656 7.34107 6.26884 7.81512C6.76112 8.28916 7.42879 8.55547 8.12498 8.55547Z" fill="#BC8B41" stroke="#BC8B41" stroke-width="1.5" stroke-linecap="round" stroke-linejoin="round"/>
<path d="M13.228 3.86035C13.6161 4.08514 13.9372 4.40281 14.1601 4.78247C14.383 5.16212 14.5001 5.59086 14.5 6.02698C14.5001 6.46311 14.383 6.89184 14.1601 7.2715C13.9372 7.65116 13.6161 7.96882 13.228 8.19361" stroke="#BC8B41" stroke-width="1.5" stroke-linecap="round" stroke-linejoin="round"/>
<path d="M2.5 16.0665V16.4998H13.7499V16.0665C13.7499 14.4487 13.7499 13.6399 13.4229 13.0216C13.1353 12.4781 12.6764 12.0362 12.1119 11.7592C11.4699 11.4443 10.6299 11.4443 8.94994 11.4443H7.29996C5.61997 11.4443 4.77998 11.4443 4.13799 11.7592C3.57353 12.0362 3.11461 12.4781 2.827 13.0216C2.5 13.6399 2.5 14.4487 2.5 16.0665Z" fill="#BC8B41" stroke="#BC8B41" stroke-width="1.5" stroke-linecap="round" stroke-linejoin="round"/>
<path d="M17.4998 16.4999V16.0665C17.4998 14.4488 17.4998 13.6399 17.1728 13.0217C16.8852 12.4782 16.4263 12.0362 15.8618 11.7593" fill="#BC8B41"/>
<path d="M17.4998 16.4999V16.0665C17.4998 14.4488 17.4998 13.6399 17.1728 13.0217C16.8852 12.4782 16.4263 12.0362 15.8618 11.7593" stroke="#BC8B41" stroke-width="1.5" stroke-linecap="round" stroke-linejoin="round"/>
</svg>
