<svg width="36" height="36" viewBox="0 0 36 36" fill="none" xmlns="http://www.w3.org/2000/svg">
<path d="M28.125 36C30.2136 36 32.2166 35.1703 33.6935 33.6935C35.1703 32.2166 36 30.2136 36 28.125C36 26.0364 35.1703 24.0334 33.6935 22.5565C32.2166 21.0797 30.2136 20.25 28.125 20.25C26.0364 20.25 24.0334 21.0797 22.5565 22.5565C21.0797 24.0334 20.25 26.0364 20.25 28.125C20.25 30.2136 21.0797 32.2166 22.5565 33.6935C24.0334 35.1703 26.0364 36 28.125 36ZM31.9027 25.8907L28.899 30.8992C28.767 31.1193 28.5866 31.3063 28.3714 31.4461C28.1562 31.586 27.912 31.6749 27.6573 31.7061C27.4027 31.7374 27.1442 31.7101 26.9016 31.6264C26.6591 31.5428 26.4388 31.4049 26.2575 31.2232L24.516 29.484C24.3048 29.2728 24.1861 28.9862 24.1861 28.6875C24.1861 28.3888 24.3048 28.1022 24.516 27.891C24.7272 27.6798 25.0138 27.5611 25.3125 27.5611C25.6112 27.5611 25.8978 27.6798 26.109 27.891L27.3398 29.124L29.9723 24.7343C30.0482 24.6075 30.1483 24.4969 30.267 24.4089C30.3857 24.3208 30.5205 24.257 30.6639 24.2211C30.8072 24.1851 30.9562 24.1778 31.1023 24.1994C31.2485 24.2211 31.389 24.2713 31.5157 24.3473C31.6425 24.4232 31.7531 24.5233 31.8411 24.642C31.9292 24.7607 31.993 24.8955 32.0289 25.0389C32.0649 25.1822 32.0722 25.3312 32.0506 25.4773C32.0289 25.6235 31.9787 25.764 31.9027 25.8907ZM24.75 11.25C24.75 13.0402 24.0388 14.7571 22.773 16.023C21.5071 17.2888 19.7902 18 18 18C16.2098 18 14.4929 17.2888 13.227 16.023C11.9612 14.7571 11.25 13.0402 11.25 11.25C11.25 9.45979 11.9612 7.7429 13.227 6.47703C14.4929 5.21116 16.2098 4.5 18 4.5C19.7902 4.5 21.5071 5.21116 22.773 6.47703C24.0388 7.7429 24.75 9.45979 24.75 11.25ZM18 15.75C19.1935 15.75 20.3381 15.2759 21.182 14.432C22.0259 13.5881 22.5 12.4435 22.5 11.25C22.5 10.0565 22.0259 8.91193 21.182 8.06802C20.3381 7.22411 19.1935 6.75 18 6.75C16.8065 6.75 15.6619 7.22411 14.818 8.06802C13.9741 8.91193 13.5 10.0565 13.5 11.25C13.5 12.4435 13.9741 13.5881 14.818 14.432C15.6619 15.2759 16.8065 15.75 18 15.75Z" fill="#012352"/>
<path d="M18.576 31.5C18.3184 30.7692 18.1455 30.0112 18.0608 29.241H6.75C6.75225 28.6875 7.0965 27.0225 8.622 25.497C10.089 24.03 12.8497 22.5 18 22.5C18.585 22.5 19.14 22.5187 19.665 22.5562C20.1735 21.789 20.781 21.0938 21.474 20.4908C20.424 20.3333 19.266 20.253 18 20.25C6.75 20.25 4.5 27 4.5 29.25C4.5 31.5 6.75 31.5 6.75 31.5H18.576Z" fill="#012352"/>
</svg>
