<svg width="36" height="36" viewBox="0 0 36 36" fill="none" xmlns="http://www.w3.org/2000/svg">
<path fill-rule="evenodd" clip-rule="evenodd" d="M19.125 2.25H20.25C23.8304 2.25 27.2642 3.67232 29.7959 6.20406C32.3277 8.7358 33.75 12.1696 33.75 15.75V16.875H19.125V2.25ZM16.8683 2.25V19.1318H33.7523L33.5498 20.4278C32.9343 24.3408 30.8665 27.8781 27.7588 30.3343C24.6511 32.7905 20.7317 33.9852 16.7823 33.68C12.8329 33.3748 9.14366 31.5922 6.4502 28.6877C3.75673 25.7832 2.25698 21.9702 2.25 18.009C2.25072 14.2531 3.59362 10.6211 6.03646 7.76818C8.4793 4.91524 11.8612 3.02919 15.5723 2.45025L16.8683 2.25ZM14.6183 19.89V4.941C12.276 5.54798 10.1399 6.77331 8.43354 8.48878C6.72716 10.2042 5.51319 12.3468 4.91867 14.6922C4.32414 17.0377 4.37091 19.4998 5.05408 21.821C5.73724 24.1422 7.0317 26.2371 8.802 27.8865L14.6183 19.89ZM10.575 29.2792C12.3687 30.4591 14.418 31.1941 16.5527 31.4233C18.6874 31.6525 20.846 31.3692 22.8493 30.597C24.8526 29.8249 26.6428 28.586 28.0714 26.9833C29.5 25.3806 30.5258 23.4603 31.0635 21.3818H16.317L10.575 29.2792Z" fill="#012352"/>
</svg>
