<svg width="17" height="17" viewBox="0 0 17 17" fill="none" xmlns="http://www.w3.org/2000/svg">
<path d="M11 4.33333C11.9205 4.33333 12.6667 5.07953 12.6667 6M16 6C16 8.76142 13.7614 11 11 11C10.4949 11 10.0072 10.9251 9.54756 10.7858L7.66667 12.6667H6V14.3333H4.33333V16H1.83333C1.3731 16 1 15.6269 1 15.1667V13.0118C1 12.7908 1.0878 12.5789 1.24408 12.4226L6.21423 7.45244C6.07491 6.99279 6 6.50514 6 6C6 3.23858 8.23858 1 11 1C13.7614 1 16 3.23858 16 6Z" stroke="#94A3B8" stroke-width="2" stroke-linecap="round" stroke-linejoin="round"/>
</svg>
