<svg width="20" height="20" viewBox="0 0 20 20" fill="none" xmlns="http://www.w3.org/2000/svg">
<path d="M12.6786 2.5C13.389 2.5 14.0703 2.78221 14.5726 3.28454C15.0749 3.78686 15.3571 4.46817 15.3571 5.17857V7.42857C15.0146 7.25358 14.6557 7.11255 14.2857 7.0075V6.78571H3.57143V12.6786C3.57143 13.1048 3.74075 13.5136 4.04215 13.815C4.34355 14.1164 4.75233 14.2857 5.17857 14.2857H7.0075C7.11393 14.66 7.25429 15.0171 7.42857 15.3571H5.17857C4.46817 15.3571 3.78686 15.0749 3.28454 14.5726C2.78221 14.0703 2.5 13.389 2.5 12.6786V5.17857C2.5 4.46817 2.78221 3.78686 3.28454 3.28454C3.78686 2.78221 4.46817 2.5 5.17857 2.5H12.6786ZM12.6786 3.57143H5.17857C4.75233 3.57143 4.34355 3.74075 4.04215 4.04215C3.74075 4.34355 3.57143 4.75233 3.57143 5.17857V5.71429H14.2857V5.17857C14.2857 4.75233 14.1164 4.34355 13.815 4.04215C13.5136 3.74075 13.1048 3.57143 12.6786 3.57143ZM17.5 12.6786C17.5 13.9573 16.992 15.1836 16.0878 16.0878C15.1836 16.992 13.9573 17.5 12.6786 17.5C11.3998 17.5 10.1735 16.992 9.26931 16.0878C8.36511 15.1836 7.85714 13.9573 7.85714 12.6786C7.85714 11.3998 8.36511 10.1735 9.26931 9.26931C10.1735 8.36511 11.3998 7.85714 12.6786 7.85714C13.9573 7.85714 15.1836 8.36511 16.0878 9.26931C16.992 10.1735 17.5 11.3998 17.5 12.6786ZM13.2143 10.5357C13.2143 10.3936 13.1578 10.2574 13.0574 10.1569C12.9569 10.0564 12.8207 10 12.6786 10C12.5365 10 12.4002 10.0564 12.2998 10.1569C12.1993 10.2574 12.1429 10.3936 12.1429 10.5357V12.1429H10.5357C10.3936 12.1429 10.2574 12.1993 10.1569 12.2998C10.0564 12.4002 10 12.5365 10 12.6786C10 12.8207 10.0564 12.9569 10.1569 13.0574C10.2574 13.1578 10.3936 13.2143 10.5357 13.2143H12.1429V14.8214C12.1429 14.9635 12.1993 15.0998 12.2998 15.2002C12.4002 15.3007 12.5365 15.3571 12.6786 15.3571C12.8207 15.3571 12.9569 15.3007 13.0574 15.2002C13.1578 15.0998 13.2143 14.9635 13.2143 14.8214V13.2143H14.8214C14.9635 13.2143 15.0998 13.1578 15.2002 13.0574C15.3007 12.9569 15.3571 12.8207 15.3571 12.6786C15.3571 12.5365 15.3007 12.4002 15.2002 12.2998C15.0998 12.1993 14.9635 12.1429 14.8214 12.1429H13.2143V10.5357Z" fill="#BC8B41"/>
</svg>
