<svg width="20" height="20" viewBox="0 0 20 20" fill="none" xmlns="http://www.w3.org/2000/svg">
<path d="M3.5 4.3125C3.5 4.09701 3.5856 3.89035 3.73798 3.73798C3.89035 3.5856 4.09701 3.5 4.3125 3.5H15.6875C15.903 3.5 16.1097 3.5856 16.262 3.73798C16.4144 3.89035 16.5 4.09701 16.5 4.3125V5.9375C16.5 6.15299 16.4144 6.35965 16.262 6.51202C16.1097 6.6644 15.903 6.75 15.6875 6.75H4.3125C4.09701 6.75 3.89035 6.6644 3.73798 6.51202C3.5856 6.35965 3.5 6.15299 3.5 5.9375V4.3125ZM3.5 10.8125C3.5 10.597 3.5856 10.3903 3.73798 10.238C3.89035 10.0856 4.09701 10 4.3125 10H9.1875C9.40299 10 9.60965 10.0856 9.76202 10.238C9.9144 10.3903 10 10.597 10 10.8125V15.6875C10 15.903 9.9144 16.1097 9.76202 16.262C9.60965 16.4144 9.40299 16.5 9.1875 16.5H4.3125C4.09701 16.5 3.89035 16.4144 3.73798 16.262C3.5856 16.1097 3.5 15.903 3.5 15.6875V10.8125ZM13.25 10.8125C13.25 10.597 13.3356 10.3903 13.488 10.238C13.6403 10.0856 13.847 10 14.0625 10H15.6875C15.903 10 16.1097 10.0856 16.262 10.238C16.4144 10.3903 16.5 10.597 16.5 10.8125V15.6875C16.5 15.903 16.4144 16.1097 16.262 16.262C16.1097 16.4144 15.903 16.5 15.6875 16.5H14.0625C13.847 16.5 13.6403 16.4144 13.488 16.262C13.3356 16.1097 13.25 15.903 13.25 15.6875V10.8125Z" stroke="#BC8B41" stroke-linecap="round" stroke-linejoin="round"/>
</svg>
