<svg width="20" height="20" viewBox="0 0 20 20" fill="none" xmlns="http://www.w3.org/2000/svg">
<path d="M6.78843 13.7917C6.3001 14.213 5.79154 14.4056 5.26275 14.3694C4.73395 14.3333 4.27167 14.1468 3.87589 13.8097C3.4801 13.4727 3.20989 13.0304 3.06526 12.483C2.92062 11.9356 3.01642 11.3727 3.35267 10.7944L4.6607 8.55556C4.37003 8.29074 4.14051 7.97176 3.97216 7.59861C3.8038 7.22546 3.71939 6.82222 3.71892 6.38889C3.71892 5.59444 3.99215 4.91435 4.53862 4.34861C5.08509 3.78287 5.74201 3.5 6.50939 3.5C7.27676 3.5 7.93368 3.78287 8.48015 4.34861C9.02662 4.91435 9.29985 5.59444 9.29985 6.38889C9.29985 7.18333 9.02662 7.86343 8.48015 8.42917C7.93368 8.99491 7.27676 9.27778 6.50939 9.27778C6.40474 9.27778 6.3001 9.27176 6.19546 9.25972C6.09082 9.24769 5.99199 9.22963 5.89897 9.20555L4.55606 11.5528C4.42816 11.7694 4.38747 11.9832 4.43398 12.1941C4.48049 12.405 4.57931 12.5764 4.73046 12.7083C4.88162 12.8403 5.06183 12.9156 5.27112 12.9344C5.4804 12.9532 5.68387 12.8778 5.88153 12.7083L13.2065 6.19028C13.6948 5.76898 14.2064 5.57928 14.7413 5.62117C15.2761 5.66306 15.7412 5.85276 16.1365 6.19028C16.5318 6.5278 16.7992 6.97028 16.9387 7.51772C17.0783 8.06517 16.9794 8.62778 16.6423 9.20555L15.3342 11.4444C15.6249 11.7093 15.8547 12.0282 16.0235 12.4014C16.1923 12.7745 16.2765 13.1778 16.276 13.6111C16.276 14.4056 16.0028 15.0856 15.4563 15.6514C14.9098 16.2171 14.2529 16.5 13.4855 16.5C12.7182 16.5 12.0612 16.2171 11.5148 15.6514C10.9683 15.0856 10.6951 14.4056 10.6951 13.6111C10.6951 12.8167 10.9683 12.1366 11.5148 11.5708C12.0612 11.0051 12.7182 10.7222 13.4855 10.7222C13.5902 10.7222 13.692 10.7282 13.7911 10.7403C13.8902 10.7523 13.986 10.7704 14.0785 10.7944L15.4389 8.44722C15.5668 8.23056 15.6075 8.01678 15.561 7.80589C15.5144 7.595 15.4156 7.42359 15.2645 7.29167C15.1133 7.15974 14.9331 7.08463 14.7238 7.06633C14.5145 7.04804 14.3111 7.12315 14.1134 7.29167L6.78843 13.7917ZM7.49512 7.40939C7.76812 7.12628 7.90462 6.78611 7.90462 6.38889C7.90462 5.99167 7.76812 5.65174 7.49512 5.36911C7.22212 5.08648 6.89354 4.94493 6.50939 4.94444C6.12523 4.94396 5.79689 5.08552 5.52435 5.36911C5.25182 5.6527 5.11508 5.99263 5.11415 6.38889C5.11322 6.78515 5.24996 7.12531 5.52435 7.40939C5.79875 7.69346 6.12709 7.83478 6.50939 7.83333C6.89168 7.83189 7.22026 7.69057 7.49512 7.40939ZM14.4713 14.6316C14.7443 14.3485 14.8808 14.0083 14.8808 13.6111C14.8808 13.2139 14.7443 12.874 14.4713 12.5913C14.1983 12.3087 13.8697 12.1671 13.4855 12.1667C13.1014 12.1662 12.773 12.3077 12.5005 12.5913C12.228 12.8749 12.0912 13.2149 12.0903 13.6111C12.0894 14.0074 12.2261 14.3475 12.5005 14.6316C12.7749 14.9157 13.1033 15.057 13.4855 15.0556C13.8678 15.0541 14.1964 14.9128 14.4713 14.6316Z" fill="#BC8B41"/>
</svg>
