<svg width="20" height="20" viewBox="0 0 20 20" fill="none" xmlns="http://www.w3.org/2000/svg">
<path d="M2.5 2.5H8.125M11.875 2.5H17.5M2.5 8.125C2.5 7.62772 2.69754 7.15081 3.04917 6.79918C3.40081 6.44754 3.87772 6.25 4.375 6.25H6.25C6.74728 6.25 7.22419 6.44754 7.57582 6.79918C7.92746 7.15081 8.125 7.62772 8.125 8.125V15.625C8.125 16.1223 7.92746 16.5992 7.57582 16.9508C7.22419 17.3025 6.74728 17.5 6.25 17.5H4.375C3.87772 17.5 3.40081 17.3025 3.04917 16.9508C2.69754 16.5992 2.5 16.1223 2.5 15.625V8.125ZM11.875 8.125C11.875 7.62772 12.0725 7.15081 12.4242 6.79918C12.7758 6.44754 13.2527 6.25 13.75 6.25H15.625C16.1223 6.25 16.5992 6.44754 16.9508 6.79918C17.3025 7.15081 17.5 7.62772 17.5 8.125V10C17.5 10.4973 17.3025 10.9742 16.9508 11.3258C16.5992 11.6775 16.1223 11.875 15.625 11.875H13.75C13.2527 11.875 12.7758 11.6775 12.4242 11.3258C12.0725 10.9742 11.875 10.4973 11.875 10V8.125Z" stroke="#BC8B41" stroke-width="1.2" stroke-linecap="round" stroke-linejoin="round"/>
</svg>
