<svg width="20" height="20" viewBox="0 0 20 20" fill="none" xmlns="http://www.w3.org/2000/svg">
<path d="M7.71657 5.33139C7.71657 4.71307 7.95715 4.12007 8.38537 3.68285C8.8136 3.24563 9.3944 3 10 3C10.6056 3 11.1864 3.24563 11.6146 3.68285C12.0429 4.12007 12.2834 4.71307 12.2834 5.33139C12.2834 5.94971 12.0429 6.54271 11.6146 6.97993C11.1864 7.41715 10.6056 7.66278 10 7.66278C9.3944 7.66278 8.8136 7.41715 8.38537 6.97993C7.95715 6.54271 7.71657 5.94971 7.71657 5.33139ZM10 4.16686C9.85022 4.16686 9.7019 4.19698 9.56352 4.25551C9.42514 4.31403 9.29941 4.39981 9.19349 4.50794C9.08758 4.61608 9.00357 4.74446 8.94625 4.88574C8.88893 5.02703 8.85943 5.17846 8.85943 5.33139C8.85943 5.48432 8.88893 5.63575 8.94625 5.77703C9.00357 5.91832 9.08758 6.0467 9.19349 6.15483C9.29941 6.26297 9.42514 6.34875 9.56352 6.40727C9.7019 6.46579 9.85022 6.49592 10 6.49592C10.3025 6.49592 10.5926 6.37323 10.8065 6.15483C11.0204 5.93644 11.1406 5.64024 11.1406 5.33139C11.1406 5.02254 11.0204 4.72633 10.8065 4.50794C10.5926 4.28955 10.3025 4.16686 10 4.16686ZM13.4286 5.91482C13.4286 5.68497 13.4729 5.45737 13.5591 5.24501C13.6452 5.03266 13.7715 4.83971 13.9307 4.67718C14.0899 4.51465 14.2788 4.38572 14.4868 4.29776C14.6948 4.2098 14.9177 4.16453 15.1429 4.16453C15.368 4.16453 15.5909 4.2098 15.7989 4.29776C16.0069 4.38572 16.1959 4.51465 16.355 4.67718C16.5142 4.83971 16.6405 5.03266 16.7267 5.24501C16.8128 5.45737 16.8571 5.68497 16.8571 5.91482C16.8571 6.37903 16.6765 6.82422 16.355 7.15246C16.0336 7.48071 15.5975 7.66511 15.1429 7.66511C14.6882 7.66511 14.2522 7.48071 13.9307 7.15246C13.6092 6.82422 13.4286 6.37903 13.4286 5.91482ZM15.1429 5.33139C14.9913 5.33139 14.846 5.39286 14.7388 5.50227C14.6316 5.61169 14.5714 5.76008 14.5714 5.91482C14.5714 6.06955 14.6316 6.21795 14.7388 6.32737C14.846 6.43678 14.9913 6.49825 15.1429 6.49825C15.2944 6.49825 15.4398 6.43678 15.5469 6.32737C15.6541 6.21795 15.7143 6.06955 15.7143 5.91482C15.7143 5.76008 15.6541 5.61169 15.5469 5.50227C15.4398 5.39286 15.2944 5.33139 15.1429 5.33139ZM4.85714 4.16453C4.40249 4.16453 3.96645 4.34893 3.64496 4.67718C3.32347 5.00542 3.14286 5.45061 3.14286 5.91482C3.14286 6.37903 3.32347 6.82422 3.64496 7.15246C3.96645 7.48071 4.40249 7.66511 4.85714 7.66511C5.3118 7.66511 5.74784 7.48071 6.06933 7.15246C6.39082 6.82422 6.57143 6.37903 6.57143 5.91482C6.57143 5.45061 6.39082 5.00542 6.06933 4.67718C5.74784 4.34893 5.3118 4.16453 4.85714 4.16453ZM4.28571 5.91482C4.28571 5.76008 4.34592 5.61169 4.45308 5.50227C4.56025 5.39286 4.70559 5.33139 4.85714 5.33139C5.0087 5.33139 5.15404 5.39286 5.2612 5.50227C5.36837 5.61169 5.42857 5.76008 5.42857 5.91482C5.42857 6.06955 5.36837 6.21795 5.2612 6.32737C5.15404 6.43678 5.0087 6.49825 4.85714 6.49825C4.70559 6.49825 4.56025 6.43678 4.45308 6.32737C4.34592 6.21795 4.28571 6.06955 4.28571 5.91482ZM5.73486 8.83197C5.53422 9.18674 5.42859 9.58917 5.42857 9.99883H3.14286V12.916C3.14276 13.2062 3.21337 13.4919 3.34831 13.7474C3.48324 14.0029 3.67829 14.22 3.91587 14.3794C4.15346 14.5388 4.42613 14.6353 4.70934 14.6603C4.99256 14.6854 5.27742 14.6381 5.53829 14.5228C5.62286 14.909 5.75543 15.2777 5.92686 15.6219C5.4931 15.8008 5.02298 15.8681 4.55778 15.8181C4.09258 15.768 3.64652 15.6021 3.25879 15.3349C2.87106 15.0678 2.55351 14.7075 2.33403 14.2857C2.11454 13.8639 1.99984 13.3936 2 12.916V9.99883C2 9.68936 2.12041 9.39257 2.33474 9.17374C2.54906 8.95491 2.83975 8.83197 3.14286 8.83197H5.73486ZM14.0731 15.6219C14.5069 15.8008 14.977 15.8681 15.4422 15.8181C15.9074 15.768 16.3535 15.6021 16.7412 15.3349C17.1289 15.0678 17.4465 14.7075 17.666 14.2857C17.8855 13.8639 18.0002 13.3936 18 12.916V9.99883C18 9.68936 17.8796 9.39257 17.6653 9.17374C17.4509 8.95491 17.1602 8.83197 16.8571 8.83197H14.2651C14.4594 9.17503 14.5714 9.57293 14.5714 9.99883H16.8571V12.916C16.8572 13.2062 16.7866 13.4919 16.6517 13.7474C16.5168 14.0029 16.3217 14.22 16.0841 14.3794C15.8465 14.5388 15.5739 14.6353 15.2907 14.6603C15.0074 14.6854 14.7226 14.6381 14.4617 14.5228C14.3749 14.9102 14.2453 15.2765 14.0731 15.6219ZM7.71429 8.8308C7.41118 8.8308 7.12049 8.95374 6.90616 9.17257C6.69184 9.3914 6.57143 9.6882 6.57143 9.99767V13.4994C6.57143 14.4278 6.93265 15.3182 7.57563 15.9747C8.21862 16.6312 9.09069 17 10 17C10.9093 17 11.7814 16.6312 12.4244 15.9747C13.0673 15.3182 13.4286 14.4278 13.4286 13.4994V9.99883C13.4286 9.68936 13.3082 9.39257 13.0938 9.17374C12.8795 8.95491 12.5888 8.83197 12.2857 8.83197L7.71429 8.8308ZM7.71429 9.99767H12.2857V13.4994C12.2857 14.1184 12.0449 14.7119 11.6162 15.1496C11.1876 15.5873 10.6062 15.8331 10 15.8331C9.39379 15.8331 8.81241 15.5873 8.38376 15.1496C7.9551 14.7119 7.71429 14.1184 7.71429 13.4994V9.99767Z" fill="#BC8B41"/>
</svg>
