<svg width="20" height="20" viewBox="0 0 20 20" fill="none" xmlns="http://www.w3.org/2000/svg">
<path d="M9.99966 15.25C10.1986 15.25 10.3893 15.329 10.53 15.4697C10.6706 15.6103 10.7497 15.8011 10.7497 16V16.75C10.7497 16.9489 10.6706 17.1397 10.53 17.2803C10.3893 17.421 10.1986 17.5 9.99966 17.5C9.80075 17.5 9.60998 17.421 9.46933 17.2803C9.32867 17.1397 9.24966 16.9489 9.24966 16.75V16C9.24966 15.8011 9.32867 15.6103 9.46933 15.4697C9.60998 15.329 9.80075 15.25 9.99966 15.25ZM14.7727 13.7125L15.3029 14.2428C15.4395 14.3842 15.5151 14.5737 15.5134 14.7703C15.5117 14.9669 15.4328 15.1551 15.2938 15.2941C15.1547 15.4332 14.9666 15.512 14.77 15.5138C14.5733 15.5155 14.3839 15.4399 14.2424 15.3032L13.7122 14.773C13.5755 14.6315 13.4999 14.4421 13.5017 14.2454C13.5034 14.0488 13.5822 13.8607 13.7213 13.7216C13.8603 13.5826 14.0485 13.5037 14.2451 13.502C14.4418 13.5003 14.6312 13.5759 14.7727 13.7125ZM5.22666 13.7125C5.36163 13.578 5.54273 13.4999 5.7332 13.4941C5.92366 13.4883 6.10919 13.5552 6.25212 13.6812C6.39504 13.8072 6.48464 13.9829 6.50271 14.1726C6.52078 14.3623 6.46597 14.5518 6.34941 14.7025L6.28716 14.773L5.75691 15.3032C5.62194 15.4378 5.44083 15.5159 5.25037 15.5217C5.05991 15.5275 4.87437 15.4606 4.73145 15.3346C4.58852 15.2085 4.49893 15.0328 4.48086 14.8431C4.46279 14.6535 4.5176 14.464 4.63416 14.3132L4.69641 14.2428L5.22666 13.7125ZM9.99966 5.5C11.1931 5.5 12.3377 5.97411 13.1816 6.81802C14.0256 7.66193 14.4997 8.80653 14.4997 10C14.4997 11.1935 14.0256 12.3381 13.1816 13.182C12.3377 14.0259 11.1931 14.5 9.99966 14.5C8.80618 14.5 7.66159 14.0259 6.81768 13.182C5.97376 12.3381 5.49966 11.1935 5.49966 10C5.49966 8.80653 5.97376 7.66193 6.81768 6.81802C7.66159 5.97411 8.80618 5.5 9.99966 5.5ZM9.99966 7C9.20401 7 8.44095 7.31607 7.87834 7.87868C7.31573 8.44129 6.99966 9.20435 6.99966 10C6.99966 10.7956 7.31573 11.5587 7.87834 12.1213C8.44095 12.6839 9.20401 13 9.99966 13C10.7953 13 11.5584 12.6839 12.121 12.1213C12.6836 11.5587 12.9997 10.7956 12.9997 10C12.9997 9.20435 12.6836 8.44129 12.121 7.87868C11.5584 7.31607 10.7953 7 9.99966 7ZM3.99966 9.25C4.19082 9.25021 4.37468 9.32341 4.51368 9.45464C4.65269 9.58586 4.73633 9.76521 4.74754 9.95605C4.75874 10.1469 4.69665 10.3348 4.57396 10.4814C4.45127 10.628 4.27723 10.7222 4.08741 10.7448L3.99966 10.75H3.24966C3.0585 10.7498 2.87463 10.6766 2.73563 10.5454C2.59663 10.4141 2.51298 10.2348 2.50178 10.044C2.49058 9.85312 2.55266 9.66522 2.67536 9.51863C2.79805 9.37204 2.97209 9.27783 3.16191 9.25525L3.24966 9.25H3.99966ZM16.7497 9.25C16.9486 9.25 17.1393 9.32902 17.28 9.46967C17.4206 9.61032 17.4997 9.80109 17.4997 10C17.4997 10.1989 17.4206 10.3897 17.28 10.5303C17.1393 10.671 16.9486 10.75 16.7497 10.75H15.9997C15.8007 10.75 15.61 10.671 15.4693 10.5303C15.3287 10.3897 15.2497 10.1989 15.2497 10C15.2497 9.80109 15.3287 9.61032 15.4693 9.46967C15.61 9.32902 15.8007 9.25 15.9997 9.25H16.7497ZM4.69641 4.69675C4.82555 4.56762 4.99738 4.49004 5.17965 4.47858C5.36192 4.46712 5.5421 4.52256 5.68641 4.6345L5.75691 4.69675L6.28716 5.227C6.42167 5.36197 6.49976 5.54308 6.50558 5.73354C6.51139 5.924 6.4445 6.10953 6.31847 6.25246C6.19245 6.39538 6.01674 6.48498 5.82705 6.50305C5.63736 6.52112 5.4479 6.46631 5.29716 6.34975L5.22666 6.2875L4.69641 5.75725C4.5558 5.6166 4.47682 5.42587 4.47682 5.227C4.47682 5.02813 4.5558 4.8374 4.69641 4.69675ZM15.3029 4.69675C15.4435 4.8374 15.5225 5.02813 15.5225 5.227C15.5225 5.42587 15.4435 5.6166 15.3029 5.75725L14.7727 6.2875C14.7035 6.35913 14.6207 6.41627 14.5292 6.45558C14.4377 6.49488 14.3393 6.51557 14.2397 6.51644C14.1401 6.5173 14.0414 6.49833 13.9492 6.46062C13.857 6.42291 13.7733 6.36722 13.7029 6.2968C13.6324 6.22638 13.5768 6.14264 13.539 6.05047C13.5013 5.95829 13.4824 5.85953 13.4832 5.75995C13.4841 5.66036 13.5048 5.56195 13.5441 5.47045C13.5834 5.37894 13.6405 5.29619 13.7122 5.227L14.2424 4.69675C14.3831 4.55615 14.5738 4.47716 14.7727 4.47716C14.9715 4.47716 15.1623 4.55615 15.3029 4.69675ZM9.99966 2.5C10.1986 2.5 10.3893 2.57902 10.53 2.71967C10.6706 2.86032 10.7497 3.05109 10.7497 3.25V4C10.7497 4.19891 10.6706 4.38968 10.53 4.53033C10.3893 4.67098 10.1986 4.75 9.99966 4.75C9.80075 4.75 9.60998 4.67098 9.46933 4.53033C9.32867 4.38968 9.24966 4.19891 9.24966 4V3.25C9.24966 3.05109 9.32867 2.86032 9.46933 2.71967C9.60998 2.57902 9.80075 2.5 9.99966 2.5Z" fill="#BC8B41"/>
</svg>
