<svg width="20" height="20" viewBox="0 0 20 20" fill="none" xmlns="http://www.w3.org/2000/svg">
<path d="M12.188 5.8C12.188 4.92479 11.8258 4.08542 11.1811 3.46655C10.5364 2.84768 9.66204 2.5 8.75032 2.5C7.83859 2.5 6.9642 2.84768 6.31951 3.46655C5.67482 4.08542 5.31264 4.92479 5.31264 5.8C5.31264 6.67521 5.67482 7.51458 6.31951 8.13345C6.9642 8.75232 7.83859 9.1 8.75032 9.1C9.66204 9.1 10.5364 8.75232 11.1811 8.13345C11.8258 7.51458 12.188 6.67521 12.188 5.8ZM6.56271 5.8C6.56271 5.24305 6.79319 4.7089 7.20344 4.31508C7.6137 3.92125 8.17013 3.7 8.75032 3.7C9.33051 3.7 9.88693 3.92125 10.2972 4.31508C10.7074 4.7089 10.9379 5.24305 10.9379 5.8C10.9379 6.35695 10.7074 6.8911 10.2972 7.28492C9.88693 7.67875 9.33051 7.9 8.75032 7.9C8.17013 7.9 7.6137 7.67875 7.20344 7.28492C6.79319 6.8911 6.56271 6.35695 6.56271 5.8ZM7.56401 16.2088L8.91282 17.4988L8.75032 17.5C4.82512 17.5 2.5 15.0652 2.5 12.7V12.1C2.5 11.6226 2.69755 11.1648 3.0492 10.8272C3.40085 10.4896 3.87779 10.3 4.37509 10.3H9.60036C9.49619 10.3664 9.39785 10.4436 9.30534 10.5316L8.29279 11.5H4.37509C4.20933 11.5 4.05035 11.5632 3.93313 11.6757C3.81591 11.7883 3.75006 11.9409 3.75006 12.1V12.7C3.75006 14.2 5.10263 15.8116 7.56401 16.2088ZM7.68401 14.6284C7.6258 14.5727 7.57962 14.5065 7.54811 14.4336C7.5166 14.3607 7.50039 14.2825 7.50039 14.2036C7.50039 14.1247 7.5166 14.0465 7.54811 13.9736C7.57962 13.9007 7.6258 13.8345 7.68401 13.7788L10.1879 11.3812C10.2456 11.324 10.3147 11.2784 10.391 11.247C10.4673 11.2157 10.5493 11.1993 10.6323 11.1987C10.7153 11.1981 10.7976 11.2134 10.8743 11.2437C10.9511 11.2739 11.0208 11.3186 11.0794 11.375C11.138 11.4314 11.1843 11.4985 11.2156 11.5722C11.247 11.646 11.2627 11.725 11.2618 11.8047C11.261 11.8844 11.2436 11.9631 11.2108 12.0362C11.1779 12.1094 11.1302 12.1755 11.0704 12.2308L9.63786 13.6024H15.3644L13.9331 12.2296C13.8734 12.1743 13.8258 12.108 13.793 12.0348C13.7603 11.9616 13.743 11.8829 13.7423 11.8032C13.7416 11.7236 13.7574 11.6446 13.7888 11.5708C13.8202 11.4971 13.8666 11.4301 13.9253 11.3738C13.984 11.3174 14.0538 11.2729 14.1306 11.2427C14.2074 11.2125 14.2897 11.1974 14.3727 11.1981C14.4557 11.1987 14.5377 11.2153 14.614 11.2467C14.6902 11.2782 14.7592 11.3239 14.8169 11.3812L17.317 13.78C17.4342 13.8925 17.5 14.0451 17.5 14.2042C17.5 14.3633 17.4342 14.5159 17.317 14.6284L14.8169 17.0248C14.7591 17.082 14.6901 17.1276 14.6138 17.159C14.5375 17.1903 14.4555 17.2067 14.3725 17.2073C14.2895 17.2079 14.2072 17.1926 14.1304 17.1623C14.0537 17.1321 13.9839 17.0874 13.9253 17.031C13.8667 16.9746 13.8204 16.9075 13.7891 16.8338C13.7578 16.76 13.7421 16.681 13.7429 16.6013C13.7438 16.5216 13.7611 16.4429 13.794 16.3698C13.8268 16.2966 13.8746 16.2305 13.9343 16.1752L15.3669 14.8024H9.63661L11.0704 16.1752C11.1845 16.2882 11.2477 16.4397 11.2465 16.597C11.2453 16.7543 11.1798 16.9049 11.0641 17.0163C10.9484 17.1277 10.7917 17.191 10.6278 17.1926C10.4639 17.1942 10.3059 17.1339 10.1879 17.0248L7.68401 14.6284Z" fill="#BC8B41"/>
</svg>
