<svg width="20" height="20" viewBox="0 0 20 20" fill="none" xmlns="http://www.w3.org/2000/svg">
<path d="M10 4.64286C9.43168 4.64286 8.88663 4.86862 8.48477 5.27049C8.08291 5.67235 7.85714 6.21739 7.85714 6.78571C7.85714 7.35404 8.08291 7.89908 8.48477 8.30094C8.88663 8.70281 9.43168 8.92857 10 8.92857C10.5683 8.92857 11.1134 8.70281 11.5152 8.30094C11.9171 7.89908 12.1429 7.35404 12.1429 6.78571C12.1429 6.21739 11.9171 5.67235 11.5152 5.27049C11.1134 4.86862 10.5683 4.64286 10 4.64286ZM12.6786 10H7.32143C6.89519 10 6.4864 10.1693 6.18501 10.4707C5.88361 10.7721 5.71429 11.1809 5.71429 11.6071C5.71429 12.8029 6.20607 13.7607 7.01286 14.4089C7.80679 15.0464 8.87179 15.3571 10 15.3571C11.1282 15.3571 12.1932 15.0464 12.9871 14.4089C13.7929 13.7607 14.2857 12.8029 14.2857 11.6071C14.2857 11.1809 14.1164 10.7721 13.815 10.4707C13.5136 10.1693 13.1048 10 12.6786 10ZM5.71429 2.5C4.8618 2.5 4.04424 2.83865 3.44144 3.44144C2.83865 4.04424 2.5 4.8618 2.5 5.71429V14.2857C2.5 15.1382 2.83865 15.9558 3.44144 16.5586C4.04424 17.1614 4.8618 17.5 5.71429 17.5H14.2857C15.1382 17.5 15.9558 17.1614 16.5586 16.5586C17.1614 15.9558 17.5 15.1382 17.5 14.2857V5.71429C17.5 4.8618 17.1614 4.04424 16.5586 3.44144C15.9558 2.83865 15.1382 2.5 14.2857 2.5H5.71429ZM3.57143 5.71429C3.57143 5.14596 3.79719 4.60092 4.19906 4.19906C4.60092 3.79719 5.14596 3.57143 5.71429 3.57143H14.2857C14.854 3.57143 15.3991 3.79719 15.8009 4.19906C16.2028 4.60092 16.4286 5.14596 16.4286 5.71429V14.2857C16.4286 14.854 16.2028 15.3991 15.8009 15.8009C15.3991 16.2028 14.854 16.4286 14.2857 16.4286H5.71429C5.14596 16.4286 4.60092 16.2028 4.19906 15.8009C3.79719 15.3991 3.57143 14.854 3.57143 14.2857V5.71429Z" fill="#BC8B41"/>
</svg>
