<svg width="20" height="20" viewBox="0 0 20 20" fill="none" xmlns="http://www.w3.org/2000/svg">
<path d="M3.19533 6.73777C3.26533 6.02677 3.752 5.4551 4.457 5.3391C5.451 5.1751 7.19 4.99243 10 4.99243C12.81 4.99243 14.549 5.1751 15.5433 5.3391C16.248 5.4551 16.735 6.02677 16.8047 6.73777C16.8967 7.6701 17 9.13443 17 10.9924C17 12.8504 16.8967 14.3148 16.8047 15.2471C16.7347 15.9581 16.248 16.5298 15.543 16.6458C14.549 16.8098 12.81 16.9924 10 16.9924C7.19 16.9924 5.45133 16.8098 4.45667 16.6458C3.752 16.5298 3.265 15.9581 3.19533 15.2471C3.10333 14.3148 3 12.8504 3 10.9924C3 9.13443 3.10333 7.6701 3.19533 6.73777Z" stroke="#BC8B41" stroke-width="1.2" stroke-linecap="round" stroke-linejoin="round"/>
<path d="M16.9955 10.3163C15.2002 10.8823 11.4902 11.9923 10.0002 11.9923C8.51022 11.9923 4.80022 10.8823 3.00488 10.3163M7.57955 5.05901C7.73188 4.58968 7.99222 4.04168 8.18755 3.65768C8.34688 3.34501 8.63422 3.11935 8.98222 3.07268C9.31972 3.02833 9.65981 3.0065 10.0002 3.00735C10.4152 3.00735 10.7595 3.03768 11.0179 3.07268C11.3659 3.11935 11.6532 3.34501 11.8125 3.65768C12.0079 4.04168 12.2682 4.58968 12.4205 5.05868" stroke="#BC8B41" stroke-width="1.2" stroke-linecap="round" stroke-linejoin="round"/>
</svg>
