<svg width="20" height="20" viewBox="0 0 20 20" fill="none" xmlns="http://www.w3.org/2000/svg">
<path d="M14.1514 9.30112C14.5795 13.0643 16.2632 14.202 16.2632 14.202H3C3 14.202 5.21053 12.7086 5.21053 7.48079C5.21053 6.29268 5.67621 5.15288 6.50516 4.31273C7.33411 3.47258 8.46 3 9.63158 3C9.88063 3 10.1262 3.021 10.3684 3.06301M10.9063 16.3024C10.7768 16.5145 10.5908 16.6907 10.3671 16.8131C10.1434 16.9356 9.88975 17 9.63158 17C9.3734 17 9.11976 16.9356 8.89604 16.8131C8.67233 16.6907 8.48639 16.5145 8.35684 16.3024M14.7895 7.20074C15.3757 7.20074 15.938 6.97946 16.3526 6.58556C16.7671 6.19166 17 5.65743 17 5.10037C17 4.54332 16.7671 4.00908 16.3526 3.61518C15.938 3.22129 15.3757 3 14.7895 3C14.2032 3 13.6409 3.22129 13.2264 3.61518C12.8118 4.00908 12.5789 4.54332 12.5789 5.10037C12.5789 5.65743 12.8118 6.19166 13.2264 6.58556C13.6409 6.97946 14.2032 7.20074 14.7895 7.20074Z" stroke="#BC8B41" stroke-width="1.2" stroke-linecap="round" stroke-linejoin="round"/>
</svg>
