<svg width="20" height="20" viewBox="0 0 20 20" fill="none" xmlns="http://www.w3.org/2000/svg">
<path fill-rule="evenodd" clip-rule="evenodd" d="M8.59191 2.52393C8.76271 2.50832 8.93408 2.50033 9.10556 2.5C9.28693 2.5 9.46178 2.50989 9.61951 2.52393C9.89473 2.54685 10.1503 2.67924 10.3316 2.89284C13.0461 3.40631 15.2805 5.74579 15.3934 8.60608L16.6715 10.2751C16.8843 10.5529 17 10.896 17 11.2494C17 11.8701 16.6422 12.4525 16.0552 12.6886C15.8274 12.7805 15.5468 12.8884 15.2643 12.9822L14.979 14.9387C14.9255 15.3092 14.7311 15.6428 14.4385 15.8667C14.1458 16.0905 13.7787 16.1865 13.4172 16.1335L12.7484 16.0352V16.8618C12.7484 17.031 12.6828 17.1934 12.5661 17.3131C12.4494 17.4328 12.2912 17.5 12.1261 17.5C11.9611 17.5 11.8028 17.4328 11.6862 17.3131C11.5695 17.1934 11.5039 17.031 11.5039 16.8618V15.299C11.5039 15.2076 11.5231 15.1172 11.5601 15.034C11.5971 14.9508 11.6511 14.8767 11.7185 14.8168C11.7858 14.7569 11.8649 14.7125 11.9505 14.6867C12.036 14.6609 12.1259 14.6542 12.2142 14.6672L13.594 14.8701C13.6118 14.8726 13.6299 14.8715 13.6473 14.8669C13.6647 14.8622 13.681 14.8541 13.6953 14.8429C13.7097 14.8318 13.7217 14.8178 13.7308 14.8019C13.7399 14.786 13.7458 14.7684 13.7483 14.7501L14.092 12.3925C14.11 12.2693 14.1626 12.1543 14.2435 12.0615C14.3244 11.9686 14.4299 11.9021 14.5472 11.8701C14.8795 11.7794 15.2774 11.6307 15.6 11.5005C15.6865 11.4657 15.7556 11.3729 15.7556 11.2494C15.7558 11.1819 15.7339 11.1164 15.6933 11.0633L14.2862 9.22677C14.2 9.1144 14.1531 8.97561 14.153 8.83265C14.153 6.74113 12.6451 4.88863 10.6269 4.27591C10.6319 4.5711 10.6353 4.91767 10.6353 5.3188C10.6353 5.61654 10.6334 6.10001 10.6306 6.41722C11.0493 6.70378 11.3832 7.10274 11.5961 7.57061C11.8089 8.03847 11.8924 8.55728 11.8375 9.07049C11.7827 9.5837 11.5915 10.0716 11.2849 10.481C10.9782 10.8904 10.5679 11.2057 10.0986 11.3923C10.8705 12.0804 11.8505 12.4994 12.7614 12.4994C12.8431 12.4994 12.924 12.5159 12.9995 12.5479C13.075 12.58 13.1436 12.627 13.2014 12.6863C13.2592 12.7456 13.305 12.8159 13.3363 12.8934C13.3676 12.9708 13.3836 13.0538 13.3836 13.1376C13.3836 13.2214 13.3676 13.3044 13.3363 13.3819C13.305 13.4593 13.2592 13.5296 13.2014 13.5889C13.1436 13.6482 13.075 13.6952 12.9995 13.7273C12.924 13.7593 12.8431 13.7758 12.7614 13.7758C11.2093 13.7758 9.64129 12.919 8.62769 11.6712C8.59078 11.6258 8.5602 11.5753 8.53684 11.5213C8.00778 11.4061 7.52359 11.1334 7.14487 10.7373C6.76616 10.3412 6.50974 9.83938 6.40772 9.29456C6.30571 8.74974 6.36262 8.18616 6.57133 7.67436C6.78005 7.16255 7.1313 6.72526 7.58111 6.41722C7.57796 6.05109 7.5763 5.68495 7.57613 5.3188C7.57655 4.94671 7.57904 4.62046 7.5836 4.34006C5.63978 5.02744 4.24444 6.91856 4.24444 9.14188C4.24444 11.0703 5.28884 12.8871 6.79462 13.7459C6.89157 13.8011 6.97234 13.882 7.02857 13.9801C7.0848 14.0782 7.11445 14.1899 7.11444 14.3037V16.8614C7.11444 17.0307 7.04889 17.193 6.9322 17.3127C6.81551 17.4324 6.65725 17.4997 6.49222 17.4997C6.3272 17.4997 6.16893 17.4324 6.05224 17.3127C5.93556 17.193 5.87 17.0307 5.87 16.8614V14.6646C4.13182 13.5116 3 11.378 3 9.14188C3 6.11022 5.07138 3.5764 7.8412 2.94039C7.93127 2.82129 8.04454 2.72275 8.17379 2.65105C8.30304 2.57935 8.44544 2.53606 8.59191 2.52393Z" fill="#BC8B41"/>
</svg>
