<svg width="20" height="20" viewBox="0 0 20 20" fill="none" xmlns="http://www.w3.org/2000/svg">
<path d="M12.1428 6.78575C11.8586 6.78575 11.5861 6.67287 11.3851 6.47194C11.1842 6.27101 11.0713 5.99849 11.0713 5.71433C11.0713 5.43017 11.1842 5.15765 11.3851 4.95672C11.5861 4.75578 11.8586 4.6429 12.1428 4.6429C12.4269 4.6429 12.6994 4.75578 12.9004 4.95672C13.1013 5.15765 13.2142 5.43017 13.2142 5.71433C13.2142 5.99849 13.1013 6.27101 12.9004 6.47194C12.6994 6.67287 12.4269 6.78575 12.1428 6.78575ZM3.12865 11.2172C2.92941 11.019 2.77131 10.7835 2.66342 10.524C2.55554 10.2646 2.5 9.98636 2.5 9.70538C2.5 9.4244 2.55554 9.14619 2.66342 8.88675C2.77131 8.6273 2.92941 8.39174 3.12865 8.1936L8.20732 3.14076C8.6084 2.74071 9.15157 2.51574 9.71806 2.51505L13.1992 2.50005C13.4828 2.49806 13.7639 2.55238 14.0263 2.65985C14.2888 2.76732 14.5273 2.9258 14.728 3.12612C14.9287 3.32644 15.0877 3.5646 15.1957 3.82681C15.3037 4.08901 15.3585 4.37005 15.3571 4.65362L15.3367 7.41789C14.994 7.24474 14.6351 7.10551 14.2653 7.00218L14.2835 4.64505C14.2841 4.50335 14.2565 4.36295 14.2025 4.23197C14.1484 4.10099 14.0689 3.98204 13.9686 3.88199C13.8682 3.78195 13.749 3.7028 13.6179 3.64913C13.4867 3.59546 13.3463 3.56834 13.2046 3.56933L9.72235 3.58326C9.4391 3.58361 9.16751 3.69609 8.96698 3.89612L3.8883 8.95003C3.78872 9.04901 3.70969 9.1667 3.65576 9.29633C3.60183 9.42596 3.57407 9.56498 3.57407 9.70538C3.57407 9.84579 3.60183 9.9848 3.65576 10.1144C3.70969 10.2441 3.78872 10.3618 3.8883 10.4607L6.82729 13.3857C6.90336 14.0243 7.0823 14.6318 7.34587 15.19C7.08975 15.083 6.85686 14.9273 6.66014 14.7314L3.12865 11.2172ZM17.5 12.6786C17.5 13.3117 17.3753 13.9387 17.133 14.5237C16.8907 15.1086 16.5355 15.6401 16.0878 16.0878C15.6401 16.5355 15.1086 16.8907 14.5236 17.133C13.9386 17.3753 13.3116 17.5 12.6785 17.5C12.0453 17.5 11.4183 17.3753 10.8334 17.133C10.2484 16.8907 9.71687 16.5355 9.26915 16.0878C8.82143 15.6401 8.46628 15.1086 8.22397 14.5237C7.98167 13.9387 7.85695 13.3117 7.85695 12.6786C7.85695 11.3999 8.36493 10.1735 9.26915 9.26933C10.1734 8.36514 11.3997 7.85718 12.6785 7.85718C13.9572 7.85718 15.1836 8.36514 16.0878 9.26933C16.992 10.1735 17.5 11.3999 17.5 12.6786ZM13.2142 10.5357C13.2142 10.3937 13.1578 10.2574 13.0573 10.1569C12.9568 10.0565 12.8206 10 12.6785 10C12.5364 10 12.4001 10.0565 12.2997 10.1569C12.1992 10.2574 12.1428 10.3937 12.1428 10.5357V12.1429H10.5356C10.3935 12.1429 10.2572 12.1993 10.1568 12.2998C10.0563 12.4002 9.99985 12.5365 9.99985 12.6786C9.99985 12.8207 10.0563 12.9569 10.1568 13.0574C10.2572 13.1579 10.3935 13.2143 10.5356 13.2143H12.1428V14.8214C12.1428 14.9635 12.1992 15.0998 12.2997 15.2002C12.4001 15.3007 12.5364 15.3572 12.6785 15.3572C12.8206 15.3572 12.9568 15.3007 13.0573 15.2002C13.1578 15.0998 13.2142 14.9635 13.2142 14.8214V13.2143H14.8214C14.9635 13.2143 15.0997 13.1579 15.2002 13.0574C15.3007 12.9569 15.3571 12.8207 15.3571 12.6786C15.3571 12.5365 15.3007 12.4002 15.2002 12.2998C15.0997 12.1993 14.9635 12.1429 14.8214 12.1429H13.2142V10.5357Z" fill="#BC8B41"/>
</svg>
