<svg width="20" height="20" viewBox="0 0 20 20" fill="none" xmlns="http://www.w3.org/2000/svg">
<path d="M13.228 3.86111C13.6161 4.08591 13.9372 4.40358 14.1601 4.78324C14.383 5.1629 14.5001 5.59164 14.5 6.02778C14.5001 6.46391 14.383 6.89265 14.1601 7.27231C13.9372 7.65198 13.6161 7.96965 13.228 8.19444M17.5 16.5V16.0667C17.5 14.4489 17.5 13.64 17.173 13.0218C16.8854 12.4782 16.4265 12.0363 15.862 11.7593M8.125 8.55556C8.46972 8.55556 8.81106 8.49017 9.12954 8.36314C9.44802 8.23611 9.7374 8.04991 9.98116 7.81519C10.2249 7.58046 10.4183 7.3018 10.5502 6.99512C10.6821 6.68843 10.75 6.35973 10.75 6.02778C10.75 5.69583 10.6821 5.36712 10.5502 5.06044C10.4183 4.75375 10.2249 4.47509 9.98116 4.24037C9.7374 4.00564 9.44802 3.81945 9.12954 3.69242C8.81106 3.56538 8.46972 3.5 8.125 3.5C7.42881 3.5 6.76113 3.76632 6.26884 4.24037C5.77656 4.71442 5.5 5.35737 5.5 6.02778C5.5 6.69819 5.77656 7.34114 6.26884 7.81519C6.76113 8.28924 7.42881 8.55556 8.125 8.55556ZM2.5 16.0667V16.5H13.75V16.0667C13.75 14.4489 13.75 13.64 13.423 13.0218C13.1354 12.4782 12.6765 12.0363 12.112 11.7593C11.47 11.4444 10.63 11.4444 8.95 11.4444H7.3C5.62 11.4444 4.78 11.4444 4.138 11.7593C3.57354 12.0363 3.11462 12.4782 2.827 13.0218C2.5 13.64 2.5 14.4489 2.5 16.0667Z" stroke="#BC8B41" stroke-width="1.2" stroke-linecap="round" stroke-linejoin="round"/>
</svg>
