<svg width="20" height="20" viewBox="0 0 20 20" fill="none" xmlns="http://www.w3.org/2000/svg">
<g clip-path="url(#clip0_322_9731)">
<path fill-rule="evenodd" clip-rule="evenodd" d="M11.1679 2.56965C9.80654 2.38831 8.42153 2.58101 7.1614 3.12708C5.90127 3.67315 4.81359 4.55198 4.01502 5.6693C3.22773 6.79471 2.76171 8.11324 2.66695 9.48342C2.5722 10.8536 2.85228 12.2237 3.47716 13.4468C4.11437 14.6633 5.07072 15.6834 6.24363 16.3976C7.41654 17.1118 8.76177 17.4933 10.135 17.5011C10.8154 17.503 11.4927 17.4096 12.1472 17.2236C12.9775 16.99 13.33 16.2572 13.3118 15.6014C13.2936 14.9693 12.9293 14.2686 12.1986 13.9964L12.1739 13.9879C11.8525 13.8778 11.5798 13.6586 11.4032 13.3683C11.2266 13.078 11.1574 12.735 11.2075 12.3989C11.2656 12.0641 11.4393 11.7603 11.6983 11.5402C11.9573 11.3202 12.2852 11.1979 12.625 11.1947H14.5932V10.525L14.5911 11.1947C15.0351 11.1938 15.4724 11.0872 15.8671 10.8837C16.2617 10.6803 16.6022 10.3858 16.8604 10.0247C17.3757 9.29608 17.5086 8.33608 17.2107 7.49608C16.7458 6.20346 15.9377 5.06184 14.8731 4.19374C13.8085 3.32563 12.5276 2.76489 11.1679 2.56965ZM5.10788 6.44287C5.76401 5.52464 6.65782 4.80242 7.69336 4.35374C8.7289 3.90506 9.86708 3.74684 10.9857 3.89608C12.102 4.05698 13.1534 4.51862 14.0273 5.23151C14.9012 5.94441 15.5646 6.88168 15.9464 7.94287C16.0214 8.15954 16.0442 8.39085 16.0129 8.61798C15.9816 8.84511 15.8972 9.06166 15.7664 9.25001C15.6323 9.43614 15.4562 9.58799 15.2523 9.69318C15.0485 9.79837 14.8226 9.85394 14.5932 9.85537H12.6272V10.525L12.6293 9.85537H12.6282C11.9696 9.85792 11.3331 10.0932 10.8312 10.5196C10.3293 10.9461 9.9943 11.5362 9.88538 12.1857C9.78478 12.8336 9.91537 13.4962 10.2543 14.0574C10.5932 14.6187 11.1188 15.0427 11.7389 15.2554C11.86 15.3036 11.9672 15.4461 11.9725 15.6411C11.9768 15.7107 11.9604 15.78 11.9254 15.8404C11.9029 15.8757 11.8654 15.9122 11.785 15.9347H11.7818C11.2471 16.0861 10.694 16.1626 10.1382 16.1618H10.1372C9.00888 16.1557 7.90356 15.8425 6.93978 15.2558C5.97599 14.6692 5.19011 13.8312 4.66645 12.8318C4.15313 11.8271 3.92301 10.7016 4.00078 9.57609C4.07854 8.45055 4.46126 7.36741 5.10788 6.44287ZM7.32145 11.6072C7.03729 11.6072 6.76476 11.72 6.56383 11.921C6.3629 12.1219 6.25002 12.3944 6.25002 12.6786C6.25002 12.9627 6.3629 13.2353 6.56383 13.4362C6.76476 13.6371 7.03729 13.75 7.32145 13.75C7.60561 13.75 7.87813 13.6371 8.07906 13.4362C8.27999 13.2353 8.39288 12.9627 8.39288 12.6786C8.39288 12.3944 8.27999 12.1219 8.07906 11.921C7.87813 11.72 7.60561 11.6072 7.32145 11.6072ZM10 6.78572C10 6.35948 10.1693 5.9507 10.4707 5.6493C10.7721 5.34791 11.1809 5.17858 11.6072 5.17858C12.0334 5.17858 12.4422 5.34791 12.7436 5.6493C13.045 5.9507 13.2143 6.35948 13.2143 6.78572C13.2143 7.21197 13.045 7.62075 12.7436 7.92215C12.4422 8.22354 12.0334 8.39287 11.6072 8.39287C11.1809 8.39287 10.7721 8.22354 10.4707 7.92215C10.1693 7.62075 10 7.21197 10 6.78572ZM7.32145 6.78572C7.11039 6.78572 6.90141 6.82729 6.70642 6.90806C6.51143 6.98883 6.33426 7.10721 6.18503 7.25645C6.03579 7.40568 5.91741 7.58285 5.83664 7.77784C5.75587 7.97283 5.7143 8.18181 5.7143 8.39287C5.7143 8.60392 5.75587 8.81291 5.83664 9.00789C5.91741 9.20288 6.03579 9.38005 6.18503 9.52929C6.33426 9.67853 6.51143 9.79691 6.70642 9.87767C6.90141 9.95844 7.11039 10 7.32145 10C7.74769 10 8.15647 9.83069 8.45787 9.52929C8.75927 9.22789 8.92859 8.81911 8.92859 8.39287C8.92859 7.96663 8.75927 7.55784 8.45787 7.25645C8.15647 6.95505 7.74769 6.78572 7.32145 6.78572Z" fill="#BC8B41"/>
</g>
<defs>
<clipPath id="clip0_322_9731">
<rect width="15" height="15" fill="white" transform="translate(2.5 2.5)"/>
</clipPath>
</defs>
</svg>
