<svg width="20" height="20" viewBox="0 0 20 20" fill="none" xmlns="http://www.w3.org/2000/svg">
<path d="M13.7917 6.25C13.7917 7.24456 13.3922 8.19839 12.6811 8.90165C11.97 9.60491 11.0056 10 10 10C8.99439 10 8.02996 9.60491 7.31889 8.90165C6.60781 8.19839 6.20833 7.24456 6.20833 6.25C6.20833 5.25544 6.60781 4.30161 7.31889 3.59835C8.02996 2.89509 8.99439 2.5 10 2.5C11.0056 2.5 11.97 2.89509 12.6811 3.59835C13.3922 4.30161 13.7917 5.25544 13.7917 6.25ZM12.7083 6.25C12.7083 5.5396 12.423 4.85829 11.9151 4.35596C11.4072 3.85363 10.7183 3.57143 10 3.57143C9.28171 3.57143 8.59283 3.85363 8.08492 4.35596C7.57701 4.85829 7.29167 5.5396 7.29167 6.25C7.29167 6.9604 7.57701 7.64171 8.08492 8.14404C8.59283 8.64637 9.28171 8.92857 10 8.92857C10.7183 8.92857 11.4072 8.64637 11.9151 8.14404C12.423 7.64171 12.7083 6.9604 12.7083 6.25ZM5.39583 11.0714C4.89303 11.0714 4.41081 11.269 4.05528 11.6206C3.69974 11.9722 3.5 12.4491 3.5 12.9464V13.2143C3.5 14.4962 4.32496 15.5805 5.49604 16.3177C6.67362 17.0591 8.26775 17.5 10 17.5C11.7323 17.5 13.3258 17.0591 14.504 16.3177C15.675 15.5805 16.5 14.4962 16.5 13.2143V12.9464C16.5 12.4491 16.3003 11.9722 15.9447 11.6206C15.5892 11.269 15.107 11.0714 14.6042 11.0714H5.39583ZM4.58333 12.9464C4.58333 12.7333 4.66894 12.5289 4.82131 12.3782C4.97368 12.2275 5.18034 12.1429 5.39583 12.1429H14.6042C14.8197 12.1429 15.0263 12.2275 15.1787 12.3782C15.3311 12.5289 15.4167 12.7333 15.4167 12.9464V13.2143C15.4167 14.0034 14.9075 14.7941 13.9222 15.4139C12.9434 16.03 11.5584 16.4286 10 16.4286C8.44163 16.4286 7.05658 16.03 6.07779 15.4139C5.09196 14.7946 4.58333 14.0029 4.58333 13.2143V12.9464Z" fill="#BC8B41"/>
</svg>
