<svg width="20" height="20" viewBox="0 0 20 20" fill="none" xmlns="http://www.w3.org/2000/svg">
<path d="M7.50083 8.33268C9.34178 8.33268 10.8342 6.8403 10.8342 4.99935C10.8342 3.1584 9.34178 1.66602 7.50083 1.66602C5.65988 1.66602 4.1675 3.1584 4.1675 4.99935C4.1675 6.8403 5.65988 8.33268 7.50083 8.33268Z" fill="#94A3B8"/>
<path d="M7.50083 17.5006C10.7225 17.5006 13.3342 16.0083 13.3342 14.1673C13.3342 12.3264 10.7225 10.834 7.50083 10.834C4.27917 10.834 1.6675 12.3264 1.6675 14.1673C1.6675 16.0083 4.27917 17.5006 7.50083 17.5006Z" fill="#94A3B8"/>
<path d="M17.5 14.1672C17.5 15.548 15.8033 16.6672 13.7325 16.6672C14.3425 16.0005 14.7625 15.163 14.7625 14.1689C14.7625 13.173 14.3417 12.3355 13.73 11.668C15.8017 11.6672 17.5 12.7872 17.5 14.1672ZM15 5.00052C15.0003 5.40279 14.9035 5.79918 14.7178 6.15603C14.5321 6.51289 14.2631 6.81967 13.9336 7.05034C13.604 7.281 13.2236 7.42874 12.8248 7.481C12.4259 7.53326 12.0204 7.4885 11.6425 7.35052C12.0492 6.63413 12.2625 5.8243 12.2617 5.00052C12.2617 4.14636 12.0367 3.34469 11.6433 2.65136C12.0211 2.51355 12.4266 2.46892 12.8254 2.52126C13.2241 2.57361 13.6043 2.72137 13.9338 2.95202C14.2632 3.18266 14.5322 3.48938 14.7178 3.84615C14.9034 4.20292 15.0002 4.59836 15 5.00052Z" fill="#94A3B8"/>
</svg>
