<svg width="16" height="16" viewBox="0 0 16 16" fill="none" xmlns="http://www.w3.org/2000/svg">
<g clip-path="url(#clip0_2353_1856)">
<path d="M2.66667 7C2.11334 7 1.66667 7.44667 1.66667 8C1.66667 8.55333 2.11334 9 2.66667 9C3.22 9 3.66667 8.55333 3.66667 8C3.66667 7.44667 3.22 7 2.66667 7ZM2.66667 3C2.11334 3 1.66667 3.44667 1.66667 4C1.66667 4.55333 2.11334 5 2.66667 5C3.22 5 3.66667 4.55333 3.66667 4C3.66667 3.44667 3.22 3 2.66667 3ZM2.66667 11C2.11334 11 1.66667 11.4533 1.66667 12C1.66667 12.5467 2.12001 13 2.66667 13C3.21334 13 3.66667 12.5467 3.66667 12C3.66667 11.4533 3.22 11 2.66667 11ZM4.66667 12.6667H14V11.3333H4.66667V12.6667ZM4.66667 8.66667H14V7.33333H4.66667V8.66667ZM4.66667 3.33333V4.66667H14V3.33333H4.66667Z" fill="#94A3B8"/>
</g>
<defs>
<clipPath id="clip0_2353_1856">
<rect width="16" height="16" fill="white"/>
</clipPath>
</defs>
</svg>
