<svg width="14" height="14" viewBox="0 0 14 14" fill="none" xmlns="http://www.w3.org/2000/svg">
<path d="M11.0833 6.41675H4.16499L6.2825 3.87341C6.38151 3.75429 6.42914 3.60071 6.41492 3.44646C6.4007 3.29221 6.32579 3.14993 6.20666 3.05091C6.08754 2.9519 5.93395 2.90426 5.77971 2.91848C5.62546 2.93271 5.48318 3.00762 5.38416 3.12675L2.46749 6.62675C2.44747 6.65432 2.42991 6.6836 2.41499 6.71425C2.41499 6.74341 2.415 6.76091 2.37416 6.79008C2.34772 6.85696 2.33388 6.92816 2.33333 7.00008C2.33388 7.072 2.34772 7.14319 2.37416 7.21008C2.37416 7.23925 2.37416 7.25675 2.41499 7.28591C2.42991 7.31656 2.44747 7.34584 2.46749 7.37341L5.38416 10.8734C5.43901 10.9393 5.50769 10.9922 5.58532 11.0285C5.66295 11.0648 5.74763 11.0836 5.83333 11.0834C5.96963 11.0837 6.10171 11.0362 6.20666 10.9492C6.26573 10.9003 6.31456 10.8401 6.35034 10.7723C6.38613 10.7044 6.40818 10.6301 6.41522 10.5537C6.42227 10.4773 6.41417 10.4003 6.3914 10.327C6.36862 10.2537 6.33161 10.1857 6.2825 10.1267L4.16499 7.58341H11.0833C11.238 7.58341 11.3864 7.52195 11.4958 7.41256C11.6052 7.30316 11.6667 7.15479 11.6667 7.00008C11.6667 6.84537 11.6052 6.697 11.4958 6.5876C11.3864 6.4782 11.238 6.41675 11.0833 6.41675Z" fill="#012352"/>
</svg>
