<svg width="12" height="12" viewBox="0 0 12 12" fill="none" xmlns="http://www.w3.org/2000/svg">
<path d="M5.65701 7.75002C5.7425 7.48593 5.86147 7.23388 6.01101 7.00003H2.62601C2.32799 7.00029 2.04225 7.1188 1.83152 7.32953C1.62079 7.54026 1.50228 7.826 1.50201 8.12402V8.41302C1.50201 8.85903 1.66101 9.29102 1.95101 9.63052C2.73401 10.5475 3.92701 11 5.50001 11C5.80001 11 6.08618 10.9834 6.35851 10.95C6.16193 10.7368 5.99478 10.4981 5.86151 10.2405C5.74418 10.2465 5.62368 10.2495 5.50001 10.2495C4.13101 10.2495 3.14801 9.87702 2.52151 9.14302C2.34741 8.93944 2.25167 8.6804 2.25151 8.41253V8.12352C2.25165 8.02416 2.29121 7.9289 2.36153 7.85868C2.43184 7.78847 2.52714 7.74902 2.62651 7.74902L5.65701 7.75002ZM5.50001 1.00153C6.16306 1.00153 6.79894 1.26492 7.26778 1.73376C7.73662 2.2026 8.00001 2.83848 8.00001 3.50153C8.00001 4.16457 7.73662 4.80045 7.26778 5.26929C6.79894 5.73813 6.16306 6.00153 5.50001 6.00153C4.83697 6.00153 4.20109 5.73813 3.73225 5.26929C3.26341 4.80045 3.00001 4.16457 3.00001 3.50153C3.00001 2.83848 3.26341 2.2026 3.73225 1.73376C4.20109 1.26492 4.83697 1.00153 5.50001 1.00153ZM5.50001 1.75153C5.03589 1.75153 4.59077 1.9359 4.26258 2.26409C3.93439 2.59228 3.75001 3.0374 3.75001 3.50153C3.75001 3.96565 3.93439 4.41077 4.26258 4.73896C4.59077 5.06715 5.03589 5.25153 5.50001 5.25153C5.96414 5.25153 6.40926 5.06715 6.73745 4.73896C7.06564 4.41077 7.25001 3.96565 7.25001 3.50153C7.25001 3.0374 7.06564 2.59228 6.73745 2.26409C6.40926 1.9359 5.96414 1.75153 5.50001 1.75153ZM11.5 8.75002C11.5 9.47937 11.2103 10.1788 10.6946 10.6946C10.1788 11.2103 9.47936 11.5 8.75001 11.5C8.02067 11.5 7.3212 11.2103 6.80547 10.6946C6.28975 10.1788 6.00001 9.47937 6.00001 8.75002C6.00001 8.02068 6.28975 7.32121 6.80547 6.80548C7.3212 6.28976 8.02067 6.00003 8.75001 6.00003C9.47936 6.00003 10.1788 6.28976 10.6946 6.80548C11.2103 7.32121 11.5 8.02068 11.5 8.75002ZM9.02751 7.21002C9.01035 7.14966 8.97397 7.09654 8.92389 7.05872C8.87382 7.02089 8.81277 7.00043 8.75001 7.00043C8.68726 7.00043 8.62621 7.02089 8.57613 7.05872C8.52606 7.09654 8.48968 7.14966 8.47251 7.21002L8.19401 8.10402H7.29251C7.00951 8.10402 6.89251 8.48103 7.12101 8.65403L7.85001 9.20652L7.57151 10.1C7.48401 10.3805 7.79201 10.614 8.02101 10.4405L8.75001 9.88853L9.47901 10.4405C9.70801 10.614 10.016 10.3805 9.92851 10.1005L9.65001 9.20652L10.379 8.65452C10.608 8.48102 10.4905 8.10402 10.2075 8.10402H9.30601L9.02751 7.21002Z" fill="#94A3B8"/>
</svg>
