<svg width="12" height="12" viewBox="0 0 12 12" fill="none" xmlns="http://www.w3.org/2000/svg">
<path d="M4.07143 2.14288C3.81817 2.14288 3.56739 2.19277 3.3334 2.28969C3.09942 2.38661 2.88681 2.52866 2.70773 2.70775C2.52864 2.88683 2.38659 3.09944 2.28967 3.33342C2.19275 3.56741 2.14286 3.81819 2.14286 4.07145C2.14286 4.32472 2.19275 4.5755 2.28967 4.80949C2.38659 5.04347 2.52864 5.25608 2.70773 5.43516C2.88681 5.61425 3.09942 5.7563 3.3334 5.85322C3.56739 5.95014 3.81817 6.00003 4.07143 6.00003C4.58292 6.00003 5.07346 5.79684 5.43514 5.43516C5.79682 5.07348 6 4.58294 6 4.07145C6 3.55997 5.79682 3.06943 5.43514 2.70775C5.07346 2.34607 4.58292 2.14288 4.07143 2.14288ZM2.78572 4.07145C2.78572 3.90261 2.81897 3.73542 2.88359 3.57943C2.9482 3.42344 3.04291 3.28171 3.1623 3.16232C3.28169 3.04293 3.42342 2.94822 3.57941 2.88361C3.7354 2.819 3.90259 2.78574 4.07143 2.78574C4.24028 2.78574 4.40746 2.819 4.56345 2.88361C4.71944 2.94822 4.86118 3.04293 4.98057 3.16232C5.09996 3.28171 5.19466 3.42344 5.25928 3.57943C5.32389 3.73542 5.35715 3.90261 5.35715 4.07145C5.35715 4.41245 5.22169 4.73947 4.98057 4.98059C4.73945 5.22171 4.41243 5.35717 4.07143 5.35717C3.73044 5.35717 3.40341 5.22171 3.1623 4.98059C2.92118 4.73947 2.78572 4.41245 2.78572 4.07145ZM8.57143 3.00003C8.17361 3.00003 7.79208 3.15806 7.51077 3.43937C7.22947 3.72067 7.07143 4.1022 7.07143 4.50003C7.07143 4.89785 7.22947 5.27938 7.51077 5.56069C7.79208 5.84199 8.17361 6.00003 8.57143 6.00003C8.96926 6.00003 9.35079 5.84199 9.63209 5.56069C9.9134 5.27938 10.0714 4.89785 10.0714 4.50003C10.0714 4.1022 9.9134 3.72067 9.63209 3.43937C9.35079 3.15806 8.96926 3.00003 8.57143 3.00003ZM7.71429 4.50003C7.71429 4.2727 7.8046 4.05468 7.96534 3.89393C8.12609 3.73319 8.3441 3.64288 8.57143 3.64288C8.79876 3.64288 9.01678 3.73319 9.17752 3.89393C9.33827 4.05468 9.42858 4.2727 9.42858 4.50003C9.42858 4.72735 9.33827 4.94537 9.17752 5.10612C9.01678 5.26686 8.79876 5.35717 8.57143 5.35717C8.3441 5.35717 8.12609 5.26686 7.96534 5.10612C7.8046 4.94537 7.71429 4.72735 7.71429 4.50003ZM0.857147 7.82146C0.857147 7.56571 0.958741 7.32044 1.13958 7.1396C1.32042 6.95876 1.56569 6.85717 1.82143 6.85717H6.32143C6.57718 6.85717 6.82245 6.95876 7.00329 7.1396C7.18412 7.32044 7.28572 7.56571 7.28572 7.82146V8.04903C7.28539 8.08371 7.28296 8.11835 7.27843 8.15274C7.26878 8.24115 7.25303 8.32879 7.23129 8.41503C7.1603 8.69641 7.03399 8.96084 6.85972 9.19288C6.42515 9.77274 5.59629 10.2857 4.07143 10.2857C2.54658 10.2857 1.71772 9.77274 1.28315 9.19288C1.10903 8.9608 0.982865 8.69638 0.912004 8.41503C0.883957 8.303 0.866028 8.18869 0.858433 8.07345L0.857147 8.04903V7.82146ZM1.5 8.0336V8.04131L1.50386 8.08417C1.50815 8.12446 1.51672 8.18488 1.53558 8.25903C1.58554 8.45726 1.67441 8.64358 1.797 8.80717C2.08586 9.1916 2.70343 9.64288 4.07143 9.64288C5.43943 9.64288 6.057 9.1916 6.34543 8.80717C6.49543 8.60745 6.57 8.40774 6.60686 8.25903C6.62493 8.18761 6.63684 8.11477 6.64243 8.04131L6.64286 8.0336V7.82146C6.64286 7.73621 6.609 7.65445 6.54872 7.59417C6.48844 7.53389 6.40668 7.50003 6.32143 7.50003H1.82143C1.73618 7.50003 1.65443 7.53389 1.59415 7.59417C1.53387 7.65445 1.5 7.73621 1.5 7.82146V8.0336ZM7.32858 9.26574C7.65986 9.36731 8.06872 9.4286 8.57058 9.4286C9.75772 9.4286 10.4211 9.08746 10.7816 8.67603C10.9255 8.51306 11.0322 8.32077 11.0944 8.11246C11.1188 8.02827 11.1344 7.94182 11.1411 7.85445L11.142 7.83431V7.82146C11.142 7.56571 11.0404 7.32044 10.8596 7.1396C10.6787 6.95876 10.4335 6.85717 10.1777 6.85717H7.326C7.49486 7.03331 7.61829 7.25403 7.67658 7.50003H10.1781C10.2627 7.50002 10.3438 7.5333 10.4039 7.59265C10.4641 7.65201 10.4984 7.73267 10.4996 7.81717L10.4974 7.83688C10.4932 7.86921 10.4864 7.90116 10.4773 7.93246C10.4411 8.05092 10.3797 8.16014 10.2973 8.2526C10.0954 8.48403 9.63429 8.78574 8.57058 8.78574C8.16729 8.78574 7.85058 8.74246 7.60158 8.6756C7.53591 8.88307 7.44418 9.08137 7.32858 9.26574Z" fill="#94A3B8"/>
</svg>
