<svg width="12" height="12" viewBox="0 0 12 12" fill="none" xmlns="http://www.w3.org/2000/svg">
<path d="M8.75001 6C9.47936 6 10.1788 6.28973 10.6946 6.80546C11.2103 7.32118 11.5 8.02066 11.5 8.75C11.5 9.47935 11.2103 10.1788 10.6946 10.6945C10.1788 11.2103 9.47936 11.5 8.75001 11.5C8.02067 11.5 7.3212 11.2103 6.80547 10.6945C6.28975 10.1788 6.00001 9.47935 6.00001 8.75C6.00001 8.02066 6.28975 7.32118 6.80547 6.80546C7.3212 6.28973 8.02067 6 8.75001 6ZM6.01151 7C5.8618 7.23383 5.74266 7.48589 5.65701 7.75H2.12651C2.02706 7.75 1.93168 7.78951 1.86135 7.85984C1.79102 7.93016 1.75151 8.02555 1.75151 8.125V8.4135C1.75151 8.681 1.84751 8.94 2.02151 9.1435C2.64801 9.878 3.63151 10.2505 5.00001 10.2505C5.29868 10.2505 5.57868 10.2328 5.84001 10.1975C5.96301 10.445 6.11651 10.6745 6.29601 10.881C5.89835 10.961 5.46635 11.001 5.00001 11.001C3.42751 11.001 2.23401 10.548 1.45101 9.631C1.16121 9.29155 1.002 8.85984 1.00201 8.4135V8.1245C1.00215 7.82631 1.12066 7.54036 1.33152 7.32951C1.54237 7.11865 1.82832 7.00013 2.12651 7H6.01151ZM8.75001 7L8.70501 7.004C8.65506 7.01313 8.60907 7.03725 8.57317 7.07316C8.53726 7.10906 8.51314 7.15505 8.50401 7.205L8.50001 7.25V8.5H7.25201L7.20701 8.504C7.15706 8.51313 7.11107 8.53725 7.07517 8.57315C7.03926 8.60906 7.01514 8.65505 7.00601 8.705L7.00201 8.75L7.00601 8.795C7.01514 8.84495 7.03926 8.89094 7.07517 8.92685C7.11107 8.96276 7.15706 8.98688 7.20701 8.996L7.25201 9H8.50001V10.25L8.50401 10.295C8.51314 10.345 8.53726 10.3909 8.57317 10.4268C8.60907 10.4628 8.65506 10.4869 8.70501 10.496L8.75001 10.5L8.79501 10.496C8.84497 10.4869 8.89096 10.4628 8.92686 10.4268C8.96277 10.3909 8.98689 10.345 8.99601 10.295L9.00001 10.25V9H10.252L10.297 8.996C10.347 8.98688 10.393 8.96276 10.4289 8.92685C10.4648 8.89094 10.4889 8.84495 10.498 8.795L10.502 8.75L10.498 8.705C10.4889 8.65505 10.4648 8.60906 10.4289 8.57315C10.393 8.53725 10.347 8.51313 10.297 8.504L10.252 8.5H9.00001V7.25L8.99601 7.205C8.98689 7.15505 8.96277 7.10906 8.92686 7.07316C8.89096 7.03725 8.84497 7.01313 8.79501 7.004L8.75001 7ZM5.00001 1.0025C5.32832 1.0025 5.65341 1.06717 5.95672 1.1928C6.26004 1.31844 6.53563 1.50259 6.76778 1.73474C6.99993 1.96688 7.18408 2.24248 7.30971 2.54579C7.43535 2.84911 7.50001 3.1742 7.50001 3.5025C7.50001 3.83081 7.43535 4.1559 7.30971 4.45921C7.18408 4.76252 6.99993 5.03812 6.76778 5.27027C6.53563 5.50242 6.26004 5.68656 5.95672 5.8122C5.65341 5.93784 5.32832 6.0025 5.00001 6.0025C4.33697 6.0025 3.70109 5.73911 3.23225 5.27027C2.76341 4.80143 2.50001 4.16554 2.50001 3.5025C2.50001 2.83946 2.76341 2.20358 3.23225 1.73474C3.70109 1.26589 4.33697 1.0025 5.00001 1.0025ZM5.00001 1.7525C4.7702 1.7525 4.54264 1.79777 4.33032 1.88571C4.118 1.97366 3.92508 2.10256 3.76258 2.26507C3.60008 2.42757 3.47117 2.62049 3.38323 2.83281C3.29528 3.04513 3.25001 3.27269 3.25001 3.5025C3.25001 3.73232 3.29528 3.95988 3.38323 4.1722C3.47117 4.38452 3.60008 4.57744 3.76258 4.73994C3.92508 4.90244 4.118 5.03135 4.33032 5.11929C4.54264 5.20724 4.7702 5.2525 5.00001 5.2525C5.46414 5.2525 5.90926 5.06813 6.23745 4.73994C6.56564 4.41175 6.75001 3.96663 6.75001 3.5025C6.75001 3.03837 6.56564 2.59325 6.23745 2.26507C5.90926 1.93688 5.46414 1.7525 5.00001 1.7525Z" fill="#94A3B8"/>
</svg>
