<svg width="14" height="14" viewBox="0 0 14 14" fill="none" xmlns="http://www.w3.org/2000/svg">
<path d="M4.59375 7.875C4.7678 7.875 4.93472 7.80586 5.05779 7.68279C5.18086 7.55972 5.25 7.3928 5.25 7.21875C5.25 7.0447 5.18086 6.87778 5.05779 6.75471C4.93472 6.63164 4.7678 6.5625 4.59375 6.5625C4.4197 6.5625 4.25278 6.63164 4.12971 6.75471C4.00664 6.87778 3.9375 7.0447 3.9375 7.21875C3.9375 7.3928 4.00664 7.55972 4.12971 7.68279C4.25278 7.80586 4.4197 7.875 4.59375 7.875ZM5.25 9.40625C5.25 9.5803 5.18086 9.74722 5.05779 9.87029C4.93472 9.99336 4.7678 10.0625 4.59375 10.0625C4.4197 10.0625 4.25278 9.99336 4.12971 9.87029C4.00664 9.74722 3.9375 9.5803 3.9375 9.40625C3.9375 9.2322 4.00664 9.06528 4.12971 8.94221C4.25278 8.81914 4.4197 8.75 4.59375 8.75C4.7678 8.75 4.93472 8.81914 5.05779 8.94221C5.18086 9.06528 5.25 9.2322 5.25 9.40625ZM7 10.0625C7.17405 10.0625 7.34097 9.99336 7.46404 9.87029C7.58711 9.74722 7.65625 9.5803 7.65625 9.40625C7.65625 9.2322 7.58711 9.06528 7.46404 8.94221C7.34097 8.81914 7.17405 8.75 7 8.75C6.82595 8.75 6.65903 8.81914 6.53596 8.94221C6.41289 9.06528 6.34375 9.2322 6.34375 9.40625C6.34375 9.5803 6.41289 9.74722 6.53596 9.87029C6.65903 9.99336 6.82595 10.0625 7 10.0625ZM7.65625 7.21875C7.65625 7.3928 7.58711 7.55972 7.46404 7.68279C7.34097 7.80586 7.17405 7.875 7 7.875C6.82595 7.875 6.65903 7.80586 6.53596 7.68279C6.41289 7.55972 6.34375 7.3928 6.34375 7.21875C6.34375 7.0447 6.41289 6.87778 6.53596 6.75471C6.65903 6.63164 6.82595 6.5625 7 6.5625C7.17405 6.5625 7.34097 6.63164 7.46404 6.75471C7.58711 6.87778 7.65625 7.0447 7.65625 7.21875ZM9.40625 7.875C9.5803 7.875 9.74722 7.80586 9.87029 7.68279C9.99336 7.55972 10.0625 7.3928 10.0625 7.21875C10.0625 7.0447 9.99336 6.87778 9.87029 6.75471C9.74722 6.63164 9.5803 6.5625 9.40625 6.5625C9.2322 6.5625 9.06528 6.63164 8.94221 6.75471C8.81914 6.87778 8.75 7.0447 8.75 7.21875C8.75 7.3928 8.81914 7.55972 8.94221 7.68279C9.06528 7.80586 9.2322 7.875 9.40625 7.875ZM1.75 3.9375C1.75 3.35734 1.98047 2.80094 2.3907 2.3907C2.80094 1.98047 3.35734 1.75 3.9375 1.75H10.0625C10.6427 1.75 11.1991 1.98047 11.6093 2.3907C12.0195 2.80094 12.25 3.35734 12.25 3.9375V10.0625C12.25 10.6427 12.0195 11.1991 11.6093 11.6093C11.1991 12.0195 10.6427 12.25 10.0625 12.25H3.9375C3.35734 12.25 2.80094 12.0195 2.3907 11.6093C1.98047 11.1991 1.75 10.6427 1.75 10.0625V3.9375ZM3.9375 2.625C3.5894 2.625 3.25556 2.76328 3.00942 3.00942C2.76328 3.25556 2.625 3.5894 2.625 3.9375V4.375H11.375V3.9375C11.375 3.5894 11.2367 3.25556 10.9906 3.00942C10.7444 2.76328 10.4106 2.625 10.0625 2.625H3.9375ZM2.625 10.0625C2.625 10.4106 2.76328 10.7444 3.00942 10.9906C3.25556 11.2367 3.5894 11.375 3.9375 11.375H10.0625C10.4106 11.375 10.7444 11.2367 10.9906 10.9906C11.2367 10.7444 11.375 10.4106 11.375 10.0625V5.25H2.625V10.0625Z" fill="#94A3B8"/>
</svg>
