<svg width="16" height="16" viewBox="0 0 16 16" fill="none" xmlns="http://www.w3.org/2000/svg">
<path fill-rule="evenodd" clip-rule="evenodd" d="M8 16C12.4183 16 16 12.4183 16 8C16 3.58172 12.4183 0 8 0C3.58172 0 0 3.58172 0 8C0 12.4183 3.58172 16 8 16Z" fill="#BC8B41"/>
<path d="M12.9497 4.87867C13.3402 5.2692 13.3402 5.90236 12.9497 6.29289L7.29286 11.9497C7.26839 11.9742 7.24316 11.9974 7.21691 12.0188C6.85039 12.3176 6.32112 12.3176 5.95461 12.0188L5.87865 11.9497L3.05022 9.12131C2.6597 8.73079 2.6597 8.09762 3.05022 7.7071C3.44075 7.31658 4.07391 7.31658 4.46444 7.7071L6.58576 9.82842L11.5355 4.87867C11.926 4.48815 12.5592 4.48815 12.9497 4.87867Z" fill="white"/>
</svg>
