<svg width="24" height="23" viewBox="0 0 24 23" fill="none" xmlns="http://www.w3.org/2000/svg">
<path d="M20.25 0H6.75C5.7558 0.00119089 4.80267 0.396661 4.09966 1.09966C3.39666 1.80267 3.00119 2.7558 3 3.75V7.914C3.48508 7.74294 3.9885 7.62916 4.5 7.575V3.7485C4.5 2.508 5.5095 1.4985 6.75 1.4985H12.75V18.5775L14.3355 20.163C14.571 20.3865 14.7465 20.679 14.8605 20.9985H20.25C22.317 20.9985 24 19.3155 24 17.2485V3.75C24 1.683 22.317 0 20.25 0ZM22.5 17.25C22.5 18.4905 21.4905 19.5 20.25 19.5H14.25V1.5H20.25C21.4905 1.5 22.5 2.5095 22.5 3.75V17.25ZM9.435 17.385C10.11 16.515 10.5 15.42 10.5 14.25C10.5 11.355 8.145 9 5.25 9C2.355 9 0 11.355 0 14.25C0 17.145 2.355 19.5 5.25 19.5C6.42 19.5 7.515 19.11 8.385 18.435L12.225 22.275C12.36 22.425 12.555 22.5 12.75 22.5C12.945 22.5 13.14 22.425 13.275 22.275C13.575 21.99 13.575 21.51 13.275 21.225L9.435 17.385ZM8.25 16.5C7.9007 16.9657 7.44776 17.3437 6.92705 17.6041C6.40634 17.8645 5.83217 18 5.25 18C4.25544 18 3.30161 17.6049 2.59835 16.9016C1.89509 16.1984 1.5 15.2446 1.5 14.25C1.5 13.2554 1.89509 12.3016 2.59835 11.5983C3.30161 10.8951 4.25544 10.5 5.25 10.5C5.94642 10.5 6.62908 10.6939 7.22149 11.0601C7.8139 11.4262 8.29265 11.9501 8.6041 12.5729C8.91555 13.1958 9.04739 13.8932 8.98485 14.5868C8.92231 15.2804 8.66785 15.9429 8.25 16.5Z" fill="#BC8B41"/>
</svg>
