<svg width="14" height="14" viewBox="0 0 14 14" fill="none" xmlns="http://www.w3.org/2000/svg">
<path d="M1.75 5.25H12.25V4.375C12.25 4.14294 12.1578 3.92038 11.9937 3.75628C11.8296 3.59219 11.6071 3.5 11.375 3.5H2.625C2.39294 3.5 2.17038 3.59219 2.00628 3.75628C1.84219 3.92038 1.75 4.14294 1.75 4.375V5.25ZM1.75 6.125V10.5C1.75 10.7321 1.84219 10.9546 2.00628 11.1187C2.17038 11.2828 2.39294 11.375 2.625 11.375H11.375C11.6071 11.375 11.8296 11.2828 11.9937 11.1187C12.1578 10.9546 12.25 10.7321 12.25 10.5V6.125H1.75ZM2.625 2.625H11.375C11.8391 2.625 12.2842 2.80937 12.6124 3.13756C12.9406 3.46575 13.125 3.91087 13.125 4.375V10.5C13.125 10.9641 12.9406 11.4092 12.6124 11.7374C12.2842 12.0656 11.8391 12.25 11.375 12.25H2.625C2.16087 12.25 1.71575 12.0656 1.38756 11.7374C1.05937 11.4092 0.875 10.9641 0.875 10.5V4.375C0.875 3.91087 1.05937 3.46575 1.38756 3.13756C1.71575 2.80937 2.16087 2.625 2.625 2.625Z" fill="#94A3B8"/>
<path d="M5.25 1.75V2.625H8.75V1.75H5.25ZM5.25 0.875H8.75C8.98206 0.875 9.20462 0.967187 9.36872 1.13128C9.53281 1.29538 9.625 1.51794 9.625 1.75V2.625C9.625 2.85706 9.53281 3.07962 9.36872 3.24372C9.20462 3.40781 8.98206 3.5 8.75 3.5H5.25C5.01794 3.5 4.79538 3.40781 4.63128 3.24372C4.46719 3.07962 4.375 2.85706 4.375 2.625V1.75C4.375 1.51794 4.46719 1.29538 4.63128 1.13128C4.79538 0.967187 5.01794 0.875 5.25 0.875Z" fill="#94A3B8"/>
</svg>
