<svg width="64" height="64" viewBox="0 0 64 64" fill="none" xmlns="http://www.w3.org/2000/svg">
<g clip-path="url(#clip0_1382_44403)">
<path fill-rule="evenodd" clip-rule="evenodd" d="M34 44C35.0609 44 36.0783 44.4214 36.8284 45.1716C37.5786 45.9217 38 46.9391 38 48C38 49.0609 37.5786 50.0783 36.8284 50.8284C36.0783 51.5786 35.0609 52 34 52C32.9391 52 31.9217 51.5786 31.1716 50.8284C30.4214 50.0783 30 49.0609 30 48C30 46.9391 30.4214 45.9217 31.1716 45.1716C31.9217 44.4214 32.9391 44 34 44ZM21.482 38C22.8081 38 24.0799 38.5268 25.0175 39.4645C25.9552 40.4021 26.482 41.6739 26.482 43C26.482 44.3261 25.9552 45.5979 25.0175 46.5355C24.0799 47.4732 22.8081 48 21.482 48C20.1559 48 18.8841 47.4732 17.9465 46.5355C17.0088 45.5979 16.482 44.3261 16.482 43C16.482 41.6739 17.0088 40.4021 17.9465 39.4645C18.8841 38.5268 20.1559 38 21.482 38ZM44.638 39C45.6989 39 46.7163 39.4214 47.4664 40.1716C48.2166 40.9217 48.638 41.9391 48.638 43C48.638 44.0609 48.2166 45.0783 47.4664 45.8284C46.7163 46.5786 45.6989 47 44.638 47C43.5771 47 42.5597 46.5786 41.8096 45.8284C41.0594 45.0783 40.638 44.0609 40.638 43C40.638 41.9391 41.0594 40.9217 41.8096 40.1716C42.5597 39.4214 43.5771 39 44.638 39ZM49 30.638C49.7957 30.638 50.5587 30.9541 51.1213 31.5167C51.6839 32.0793 52 32.8424 52 33.638C52 34.4336 51.6839 35.1967 51.1213 35.7593C50.5587 36.3219 49.7957 36.638 49 36.638C48.2043 36.638 47.4413 36.3219 46.8787 35.7593C46.3161 35.1967 46 34.4336 46 33.638C46 32.8424 46.3161 32.0793 46.8787 31.5167C47.4413 30.9541 48.2043 30.638 49 30.638ZM17 24C18.3261 24 19.5979 24.5268 20.5355 25.4645C21.4732 26.4021 22 27.6739 22 29C22 30.3261 21.4732 31.5979 20.5355 32.5355C19.5979 33.4732 18.3261 34 17 34C15.6739 34 14.4021 33.4732 13.4645 32.5355C12.5268 31.5979 12 30.3261 12 29C12 27.6739 12.5268 26.4021 13.4645 25.4645C14.4021 24.5268 15.6739 24 17 24ZM47.572 22.414C48.1024 22.414 48.6111 22.6247 48.9862 22.9998C49.3613 23.3749 49.572 23.8836 49.572 24.414C49.572 24.9444 49.3613 25.4531 48.9862 25.8282C48.6111 26.2033 48.1024 26.414 47.572 26.414C47.0416 26.414 46.5329 26.2033 46.1578 25.8282C45.7827 25.4531 45.572 24.9444 45.572 24.414C45.572 23.8836 45.7827 23.3749 46.1578 22.9998C46.5329 22.6247 47.0416 22.414 47.572 22.414ZM28 12C29.5913 12 31.1174 12.6321 32.2426 13.7574C33.3679 14.8826 34 16.4087 34 18C34 19.5913 33.3679 21.1174 32.2426 22.2426C31.1174 23.3679 29.5913 24 28 24C26.4087 24 24.8826 23.3679 23.7574 22.2426C22.6321 21.1174 22 19.5913 22 18C22 16.4087 22.6321 14.8826 23.7574 13.7574C24.8826 12.6321 26.4087 12 28 12ZM43 18C43.2652 18 43.5196 18.1054 43.7071 18.2929C43.8946 18.4804 44 18.7348 44 19C44 19.2652 43.8946 19.5196 43.7071 19.7071C43.5196 19.8946 43.2652 20 43 20C42.7348 20 42.4804 19.8946 42.2929 19.7071C42.1054 19.5196 42 19.2652 42 19C42 18.7348 42.1054 18.4804 42.2929 18.2929C42.4804 18.1054 42.7348 18 43 18Z" fill="url(#paint0_linear_1382_44403)"/>
</g>
<defs>
<linearGradient id="paint0_linear_1382_44403" x1="32" y1="12" x2="32" y2="52" gradientUnits="userSpaceOnUse">
<stop stop-color="#172B85"/>
<stop offset="1" stop-color="#006BFF"/>
</linearGradient>
<clipPath id="clip0_1382_44403">
<rect width="40" height="40" fill="white" transform="translate(12 12)"/>
</clipPath>
</defs>
</svg>
