<svg width="20" height="20" viewBox="0 0 20 20" fill="none" xmlns="http://www.w3.org/2000/svg">
<path d="M9.16669 12.4991C9.16669 12.2074 9.21669 11.9266 9.30919 11.6658H3.54419C3.04691 11.6658 2.56999 11.8633 2.21836 12.2149C1.86673 12.5666 1.66919 13.0435 1.66919 13.5408V14.3066C1.66919 14.7833 1.81919 15.2483 2.09502 15.6366C3.38002 17.4399 5.48336 18.3324 8.33336 18.3324C8.66447 18.3324 8.98586 18.3205 9.29752 18.2966C9.21095 18.0396 9.16676 17.7703 9.16669 17.4991V12.4991ZM8.33336 1.66992C8.88053 1.66992 9.42235 1.7777 9.92787 1.98709C10.4334 2.19648 10.8927 2.5034 11.2796 2.89031C11.6665 3.27722 11.9735 3.73655 12.1829 4.24207C12.3922 4.7476 12.5 5.28941 12.5 5.83659C12.5 6.38376 12.3922 6.92558 12.1829 7.4311C11.9735 7.93663 11.6665 8.39596 11.2796 8.78287C10.8927 9.16978 10.4334 9.47669 9.92787 9.68609C9.42235 9.89548 8.88053 10.0033 8.33336 10.0033C7.22829 10.0033 6.16848 9.56427 5.38708 8.78287C4.60568 8.00146 4.16669 6.94166 4.16669 5.83659C4.16669 4.73152 4.60568 3.67171 5.38708 2.89031C6.16848 2.10891 7.22829 1.66992 8.33336 1.66992ZM10 12.4991C10 12.0571 10.1756 11.6331 10.4882 11.3206C10.8007 11.008 11.2247 10.8324 11.6667 10.8324H17.5C17.942 10.8324 18.366 11.008 18.6785 11.3206C18.9911 11.6331 19.1667 12.0571 19.1667 12.4991V17.4991C19.1667 17.9411 18.9911 18.365 18.6785 18.6776C18.366 18.9902 17.942 19.1658 17.5 19.1658H11.6667C11.2247 19.1658 10.8007 18.9902 10.4882 18.6776C10.1756 18.365 10 17.9411 10 17.4991V12.4991ZM12.0834 13.3324C11.9728 13.3324 11.8669 13.3763 11.7887 13.4545C11.7106 13.5326 11.6667 13.6386 11.6667 13.7491C11.6667 13.8596 11.7106 13.9656 11.7887 14.0437C11.8669 14.1219 11.9728 14.1658 12.0834 14.1658H17.0834C17.1939 14.1658 17.2998 14.1219 17.378 14.0437C17.4561 13.9656 17.5 13.8596 17.5 13.7491C17.5 13.6386 17.4561 13.5326 17.378 13.4545C17.2998 13.3763 17.1939 13.3324 17.0834 13.3324H12.0834ZM12.0834 15.8324C11.9728 15.8324 11.8669 15.8763 11.7887 15.9545C11.7106 16.0326 11.6667 16.1386 11.6667 16.2491C11.6667 16.3596 11.7106 16.4656 11.7887 16.5437C11.8669 16.6219 11.9728 16.6658 12.0834 16.6658H17.0834C17.1939 16.6658 17.2998 16.6219 17.378 16.5437C17.4561 16.4656 17.5 16.3596 17.5 16.2491C17.5 16.1386 17.4561 16.0326 17.378 15.9545C17.2998 15.8763 17.1939 15.8324 17.0834 15.8324H12.0834Z" fill="#94A3B8"/>
</svg>
