<svg width="12" height="12" viewBox="0 0 12 12" fill="none" xmlns="http://www.w3.org/2000/svg">
<path d="M5.51531 7.98468C5.55017 8.0195 5.57783 8.06086 5.5967 8.10639C5.61558 8.15191 5.62529 8.20071 5.62529 8.24999C5.62529 8.29927 5.61558 8.34807 5.5967 8.39359C5.57783 8.43912 5.55017 8.48047 5.51531 8.5153L4.01531 10.0153C3.98048 10.0502 3.93912 10.0778 3.8936 10.0967C3.84807 10.1156 3.79928 10.1253 3.74999 10.1253C3.70071 10.1253 3.65192 10.1156 3.60639 10.0967C3.56087 10.0778 3.51951 10.0502 3.48468 10.0153L1.98468 8.5153C1.94984 8.48046 1.9222 8.4391 1.90335 8.39358C1.88449 8.34805 1.87479 8.29926 1.87479 8.24999C1.87479 8.20072 1.88449 8.15193 1.90335 8.1064C1.9222 8.06088 1.94984 8.01952 1.98468 7.98468C2.05505 7.91431 2.15048 7.87478 2.24999 7.87478C2.29927 7.87478 2.34806 7.88449 2.39358 7.90334C2.4391 7.9222 2.48047 7.94984 2.51531 7.98468L3.37499 8.84483V2.24999C3.37499 2.15053 3.4145 2.05515 3.48483 1.98482C3.55516 1.9145 3.65054 1.87499 3.74999 1.87499C3.84945 1.87499 3.94483 1.9145 4.01516 1.98482C4.08549 2.05515 4.12499 2.15053 4.12499 2.24999V8.84483L4.98468 7.98468C5.01951 7.94981 5.06087 7.92215 5.10639 7.90328C5.15192 7.88441 5.20071 7.87469 5.24999 7.87469C5.29928 7.87469 5.34807 7.88441 5.3936 7.90328C5.43912 7.92215 5.48048 7.94981 5.51531 7.98468ZM10.0153 3.48468L8.51531 1.98468C8.48048 1.94981 8.43912 1.92215 8.3936 1.90328C8.34807 1.88441 8.29928 1.87469 8.25 1.87469C8.20071 1.87469 8.15192 1.88441 8.10639 1.90328C8.06087 1.92215 8.01951 1.94981 7.98468 1.98468L6.48468 3.48468C6.41432 3.55504 6.37479 3.65048 6.37479 3.74999C6.37479 3.8495 6.41432 3.94494 6.48468 4.0153C6.55505 4.08567 6.65048 4.1252 6.74999 4.1252C6.84951 4.1252 6.94494 4.08567 7.01531 4.0153L7.875 3.15515V9.74999C7.875 9.84945 7.9145 9.94483 7.98483 10.0152C8.05516 10.0855 8.15054 10.125 8.25 10.125C8.34945 10.125 8.44483 10.0855 8.51516 10.0152C8.58549 9.94483 8.625 9.84945 8.625 9.74999V3.15515L9.48468 4.0153C9.55505 4.08567 9.65048 4.1252 9.75 4.1252C9.84951 4.1252 9.94494 4.08567 10.0153 4.0153C10.0857 3.94494 10.1252 3.8495 10.1252 3.74999C10.1252 3.65048 10.0857 3.55504 10.0153 3.48468Z" fill="#94A3B8"/>
</svg>
