<svg width="24" height="24" viewBox="0 0 24 24" fill="none" xmlns="http://www.w3.org/2000/svg">
<path d="M17.9999 17.25H19.4999V23.25H17.9999V17.25ZM20.9999 15.75H22.4999V23.25H20.9999V15.75ZM14.9999 20.25H16.4999V23.25H14.9999V20.25ZM13.4999 15V13.5H14.2499V8.25H13.4999V6.75H16.4999V8.25H15.7499V13.5H16.4999V15H13.4999ZM10.8749 15H12.3749L9.74995 6.75H7.49995L4.8772 15H6.3772L6.82795 13.5H10.4114L10.8749 15ZM7.27945 12L8.50045 7.94175L8.69245 7.9395L9.94795 12H7.27945Z" fill="#BC8B41"/>
<path d="M12.75 22.5H0V0H22.5V12.75H21V1.5H1.5V21H12.75V22.5Z" fill="#BC8B41"/>
</svg>
