<svg width="26" height="26" viewBox="0 0 26 26" fill="none" xmlns="http://www.w3.org/2000/svg">
<path d="M3.52087 5.41667C3.52087 4.62654 3.83475 3.86878 4.39345 3.31008C4.95215 2.75138 5.70992 2.4375 6.50004 2.4375H17.3334C18.1235 2.4375 18.8813 2.75138 19.44 3.31008C19.9987 3.86878 20.3125 4.62654 20.3125 5.41667V11.375C20.3125 11.5905 20.2269 11.7972 20.0746 11.9495C19.9222 12.1019 19.7155 12.1875 19.5 12.1875C19.2846 12.1875 19.0779 12.1019 18.9255 11.9495C18.7731 11.7972 18.6875 11.5905 18.6875 11.375V5.41667C18.6875 4.66917 18.0809 4.0625 17.3334 4.0625H6.50004C5.75254 4.0625 5.14587 4.66917 5.14587 5.41667V20.5833C5.14587 21.3308 5.75254 21.9375 6.50004 21.9375H14.625C14.8405 21.9375 15.0472 22.0231 15.1996 22.1755C15.3519 22.3278 15.4375 22.5345 15.4375 22.75C15.4375 22.9655 15.3519 23.1722 15.1996 23.3245C15.0472 23.4769 14.8405 23.5625 14.625 23.5625H6.50004C5.70992 23.5625 4.95215 23.2486 4.39345 22.6899C3.83475 22.1312 3.52087 21.3735 3.52087 20.5833V5.41667Z" fill="#BC8B41"/>
<path d="M19.5 14.6979C19.7155 14.6979 19.9222 14.7835 20.0745 14.9359C20.2269 15.0882 20.3125 15.2949 20.3125 15.5104V15.9632C21.4251 16.0044 22.4792 16.8245 22.4792 18.0378C22.4792 18.2533 22.3936 18.4599 22.2412 18.6123C22.0888 18.7647 21.8822 18.8503 21.6667 18.8503C21.4512 18.8503 21.2445 18.7647 21.0921 18.6123C20.9398 18.4599 20.8542 18.2533 20.8542 18.0378C20.8542 17.884 20.6787 17.5871 20.2248 17.5871H18.5933C18.4638 17.5837 18.3373 17.6267 18.2368 17.7085C18.1632 17.7735 18.1458 17.8352 18.1458 17.8753C18.1442 17.9298 18.1507 17.9842 18.1653 18.0367C18.1797 18.0473 18.1949 18.0568 18.2108 18.0649C18.2542 18.0865 18.3192 18.1125 18.4199 18.1429L21.0394 18.9023C21.3384 18.9911 21.7219 19.1385 22.0231 19.458C22.3481 19.8047 22.4792 20.2489 22.4792 20.7288C22.4792 21.8847 21.4435 22.642 20.4068 22.642H20.3125V23.0937C20.3125 23.3092 20.2269 23.5159 20.0745 23.6682C19.9222 23.8206 19.7155 23.9062 19.5 23.9062C19.2845 23.9062 19.0778 23.8206 18.9255 23.6682C18.7731 23.5159 18.6875 23.3092 18.6875 23.0937V22.6409C17.5749 22.5997 16.5208 21.7796 16.5208 20.5663C16.5208 20.3508 16.6064 20.1441 16.7588 19.9918C16.9112 19.8394 17.1178 19.7538 17.3333 19.7538C17.5488 19.7538 17.7555 19.8394 17.9079 19.9918C18.0602 20.1441 18.1458 20.3508 18.1458 20.5663C18.1458 20.7201 18.3213 21.017 18.7752 21.017H20.4068C20.5362 21.0204 20.6627 20.9774 20.7632 20.8956C20.8368 20.8306 20.8542 20.7689 20.8542 20.7288C20.8558 20.6743 20.8493 20.6199 20.8347 20.5674C20.8203 20.5568 20.8051 20.5473 20.7892 20.5392C20.7458 20.5175 20.6808 20.4915 20.5801 20.4612L17.9606 19.7018C17.6616 19.613 17.2781 19.4656 16.9769 19.146C16.6519 18.7994 16.5208 18.3552 16.5208 17.8753C16.5208 16.7194 17.5565 15.9621 18.5933 15.9621H18.6875V15.5104C18.6875 15.2949 18.7731 15.0882 18.9255 14.9359C19.0778 14.7835 19.2845 14.6979 19.5 14.6979ZM6.77083 12.2604C6.77083 12.0449 6.85644 11.8382 7.00881 11.6859C7.16118 11.5335 7.36784 11.4479 7.58333 11.4479H8.125C8.34049 11.4479 8.54715 11.5335 8.69952 11.6859C8.8519 11.8382 8.9375 12.0449 8.9375 12.2604C8.9375 12.4759 8.8519 12.6825 8.69952 12.8349C8.54715 12.9873 8.34049 13.0729 8.125 13.0729H7.58333C7.36784 13.0729 7.16118 12.9873 7.00881 12.8349C6.85644 12.6825 6.77083 12.4759 6.77083 12.2604ZM10.0208 12.2604C10.0208 12.0449 10.1064 11.8382 10.2588 11.6859C10.4112 11.5335 10.6178 11.4479 10.8333 11.4479H16.25C16.4655 11.4479 16.6722 11.5335 16.8245 11.6859C16.9769 11.8382 17.0625 12.0449 17.0625 12.2604C17.0625 12.4759 16.9769 12.6825 16.8245 12.8349C16.6722 12.9873 16.4655 13.0729 16.25 13.0729H10.8333C10.6178 13.0729 10.4112 12.9873 10.2588 12.8349C10.1064 12.6825 10.0208 12.4759 10.0208 12.2604ZM6.77083 15.5104C6.77083 15.2949 6.85644 15.0882 7.00881 14.9359C7.16118 14.7835 7.36784 14.6979 7.58333 14.6979H8.125C8.34049 14.6979 8.54715 14.7835 8.69952 14.9359C8.8519 15.0882 8.9375 15.2949 8.9375 15.5104C8.9375 15.7259 8.8519 15.9325 8.69952 16.0849C8.54715 16.2373 8.34049 16.3229 8.125 16.3229H7.58333C7.36784 16.3229 7.16118 16.2373 7.00881 16.0849C6.85644 15.9325 6.77083 15.7259 6.77083 15.5104ZM10.0208 15.5104C10.0208 15.2949 10.1064 15.0882 10.2588 14.9359C10.4112 14.7835 10.6178 14.6979 10.8333 14.6979H14.625C14.8405 14.6979 15.0472 14.7835 15.1995 14.9359C15.3519 15.0882 15.4375 15.2949 15.4375 15.5104C15.4375 15.7259 15.3519 15.9325 15.1995 16.0849C15.0472 16.2373 14.8405 16.3229 14.625 16.3229H10.8333C10.6178 16.3229 10.4112 16.2373 10.2588 16.0849C10.1064 15.9325 10.0208 15.7259 10.0208 15.5104ZM6.77083 18.7604C6.77083 18.5449 6.85644 18.3382 7.00881 18.1859C7.16118 18.0335 7.36784 17.9479 7.58333 17.9479H8.125C8.34049 17.9479 8.54715 18.0335 8.69952 18.1859C8.8519 18.3382 8.9375 18.5449 8.9375 18.7604C8.9375 18.9759 8.8519 19.1825 8.69952 19.3349C8.54715 19.4873 8.34049 19.5729 8.125 19.5729H7.58333C7.36784 19.5729 7.16118 19.4873 7.00881 19.3349C6.85644 19.1825 6.77083 18.9759 6.77083 18.7604ZM10.0208 18.7604C10.0208 18.5449 10.1064 18.3382 10.2588 18.1859C10.4112 18.0335 10.6178 17.9479 10.8333 17.9479H13C13.2155 17.9479 13.4222 18.0335 13.5745 18.1859C13.7269 18.3382 13.8125 18.5449 13.8125 18.7604C13.8125 18.9759 13.7269 19.1825 13.5745 19.3349C13.4222 19.4873 13.2155 19.5729 13 19.5729H10.8333C10.6178 19.5729 10.4112 19.4873 10.2588 19.3349C10.1064 19.1825 10.0208 18.9759 10.0208 18.7604ZM6.5 7.38538C6.5 6.88054 6.5 6.62813 6.58233 6.42879C6.69252 6.16388 6.9033 5.95349 7.16842 5.84379C7.36775 5.76038 7.62017 5.76038 8.125 5.76038H15.7083C16.2132 5.76038 16.4656 5.76038 16.6649 5.84271C16.9298 5.95289 17.1402 6.16367 17.2499 6.42879C17.3333 6.62813 17.3333 6.88054 17.3333 7.38538C17.3333 7.89021 17.3333 8.14263 17.251 8.34196C17.1408 8.60688 16.93 8.81726 16.6649 8.92696C16.4656 9.01038 16.2132 9.01038 15.7083 9.01038H8.125C7.62017 9.01038 7.36775 9.01038 7.16842 8.92804C6.9035 8.81786 6.69311 8.60708 6.58342 8.34196C6.5 8.14263 6.5 7.89021 6.5 7.38538Z" fill="#BC8B41"/>
</svg>
