<svg width="26" height="26" viewBox="0 0 26 26" fill="none" xmlns="http://www.w3.org/2000/svg">
<path d="M9.75 13.8125H16.25C17.1438 13.8125 17.875 13.0813 17.875 12.1875V3.25C17.875 2.35625 17.1438 1.625 16.25 1.625H9.75C8.85625 1.625 8.125 2.35625 8.125 3.25V12.1875C8.125 13.0813 8.85625 13.8125 9.75 13.8125ZM9.75 3.25H16.25V12.1875H9.75V3.25ZM6.5 15.4375H11.375V17.0625H6.5C5.60625 17.0625 4.875 16.3313 4.875 15.4375V6.5H6.5V15.4375ZM3.25 18.6875H8.125V20.3125H3.25C2.35625 20.3125 1.625 19.5812 1.625 18.6875V9.75H3.25V18.6875ZM24.375 19.5L19.5 24.375L18.3625 23.2375L21.2875 20.3125H13.8125V18.6875H21.2875L18.3625 15.7625L19.5 14.625L24.375 19.5Z" fill="#BC8B41"/>
</svg>
