<svg width="24" height="24" viewBox="0 0 24 24" fill="none" xmlns="http://www.w3.org/2000/svg">
<path fill-rule="evenodd" clip-rule="evenodd" d="M12.75 1.49744H13.5C15.8869 1.49744 18.1761 2.44565 19.864 4.13348C21.5518 5.8213 22.5 8.11049 22.5 10.4974V11.2474H12.75V1.49744ZM11.2455 1.49744V12.7519H22.5015L22.3665 13.6159C21.9562 16.2246 20.5777 18.5829 18.5059 20.2203C16.434 21.8578 13.8212 22.6542 11.1882 22.4507C8.55529 22.2473 6.09578 21.0589 4.30013 19.1226C2.50449 17.1862 1.50465 14.6442 1.5 12.0034C1.50048 9.49951 2.39575 7.07818 4.02431 5.17622C5.65286 3.27427 7.9075 2.0169 10.3815 1.63094L11.2455 1.49744ZM9.7455 13.2574V3.29144C8.184 3.69609 6.75995 4.51297 5.62236 5.65662C4.48477 6.80027 3.67546 8.22863 3.27911 9.79226C2.88276 11.3559 2.91394 12.9973 3.36938 14.5448C3.82483 16.0922 4.6878 17.4888 5.868 18.5884L9.7455 13.2574ZM7.05 19.5169C8.24582 20.3035 9.61199 20.7935 11.0351 20.9463C12.4583 21.0991 13.8973 20.9103 15.2329 20.3955C16.5684 19.8807 17.7619 19.0548 18.7143 17.9863C19.6667 16.9178 20.3505 15.6376 20.709 14.2519H10.878L7.05 19.5169Z" fill="#BC8B41"/>
</svg>
