<svg width="32" height="32" viewBox="0 0 32 32" fill="none" xmlns="http://www.w3.org/2000/svg">
<path d="M9.33333 26.6667H22.6667M12 21.3334V26.6667M20 21.3334V26.6667M4 6.66671C4 6.31309 4.14048 5.97395 4.39052 5.7239C4.64057 5.47385 4.97971 5.33337 5.33333 5.33337H26.6667C27.0203 5.33337 27.3594 5.47385 27.6095 5.7239C27.8595 5.97395 28 6.31309 28 6.66671V20C28 20.3537 27.8595 20.6928 27.6095 20.9428C27.3594 21.1929 27.0203 21.3334 26.6667 21.3334H5.33333C4.97971 21.3334 4.64057 21.1929 4.39052 20.9428C4.14048 20.6928 4 20.3537 4 20V6.66671Z" stroke="#BC8B41" stroke-width="1.5" stroke-linecap="round" stroke-linejoin="round"/>
<path d="M10.6666 16.0001L14.6666 12.0001L17.3333 14.6667L21.3333 10.6667" stroke="#BC8B41" stroke-width="1.5" stroke-linecap="round" stroke-linejoin="round"/>
</svg>
