<svg width="24" height="24" viewBox="0 0 24 24" fill="none" xmlns="http://www.w3.org/2000/svg">
<path d="M22.5 3V22.5H1.5V3H4.5V4.5H3V21H21V4.5H19.5V3H22.5ZM18 7.5H6V0H18V7.5ZM16.5 1.5H7.5V6H16.5V1.5ZM12 13.5H13.5V15H10.5V12H12V13.5ZM6.75 14.25C6.75 13.5234 6.88672 12.8438 7.16016 12.2109C7.43359 11.5781 7.80859 11.0195 8.28516 10.5352C8.76172 10.0508 9.31641 9.67578 9.94922 9.41016C10.582 9.14453 11.2656 9.00781 12 9C12.7266 9 13.4062 9.13672 14.0391 9.41016C14.6719 9.68359 15.2305 10.0586 15.7148 10.5352C16.1992 11.0117 16.5742 11.5664 16.8398 12.1992C17.1055 12.832 17.2422 13.5156 17.25 14.25C17.25 14.9766 17.1133 15.6562 16.8398 16.2891C16.5664 16.9219 16.1914 17.4805 15.7148 17.9648C15.2383 18.4492 14.6836 18.8242 14.0508 19.0898C13.418 19.3555 12.7344 19.4922 12 19.5C11.2734 19.5 10.5938 19.3633 9.96094 19.0898C9.32812 18.8164 8.76953 18.4414 8.28516 17.9648C7.80078 17.4883 7.42578 16.9336 7.16016 16.3008C6.89453 15.668 6.75781 14.9844 6.75 14.25ZM15.75 14.25C15.75 13.7344 15.6523 13.25 15.457 12.7969C15.2617 12.3438 14.9922 11.9492 14.6484 11.6133C14.3047 11.2773 13.9062 11.0078 13.4531 10.8047C13 10.6016 12.5156 10.5 12 10.5C11.4844 10.5 11 10.5977 10.5469 10.793C10.0938 10.9883 9.69531 11.2578 9.35156 11.6016C9.00781 11.9453 8.73828 12.3438 8.54297 12.7969C8.34766 13.25 8.25 13.7344 8.25 14.25C8.25 14.7656 8.34766 15.25 8.54297 15.7031C8.73828 16.1562 9.00391 16.5547 9.33984 16.8984C9.67578 17.2422 10.0742 17.5117 10.5352 17.707C10.9961 17.9023 11.4844 18 12 18C12.5156 18 13 17.9023 13.4531 17.707C13.9062 17.5117 14.3008 17.2461 14.6367 16.9102C14.9727 16.5742 15.2422 16.1758 15.4453 15.7148C15.6484 15.2539 15.75 14.7656 15.75 14.25Z" fill="#BC8B41"/>
</svg>
