<svg width="36" height="36" viewBox="0 0 36 36" fill="none" xmlns="http://www.w3.org/2000/svg">
<g clip-path="url(#clip0_89_4157)">
<path d="M28.6643 2.67493H12.1494V9.52353H32.1915V6.20071C32.1915 4.25641 30.6092 2.67493 28.6643 2.67493Z" fill="#E5E7EB"/>
<path d="M19.3159 10.5774H0V4.2226C0 1.89404 1.89487 0 4.22424 0H10.4002C11.0141 0 11.6054 0.129364 12.1426 0.372437C12.893 0.710541 13.5376 1.26782 13.9897 1.99594L19.3159 10.5774Z" fill="#BC8B41"/>
<path d="M36 12.0001V32.4699C36 34.4166 34.4152 36 32.4676 36H3.53238C1.58478 36 0 34.4166 0 32.4699V8.46912H32.4676C34.4152 8.46912 36 10.0531 36 12.0001Z" fill="#E9B771"/>
<path d="M36 12.0001V32.4699C36 34.4166 34.4152 36 32.4676 36H18V8.46912H32.4676C34.4152 8.46912 36 10.0531 36 12.0001Z" fill="#E9B771"/>
<path d="M27.4696 22.2341C27.4696 27.4561 23.2215 31.7046 17.9999 31.7046C12.7784 31.7046 8.53027 27.4561 8.53027 22.2341C8.53027 17.0128 12.7784 12.7644 17.9999 12.7644C23.2215 12.7644 27.4696 17.0128 27.4696 22.2341Z" fill="#E7ECFC"/>
<path d="M27.4697 22.2341C27.4697 27.4561 23.2215 31.7046 18 31.7046V12.7644C23.2215 12.7644 27.4697 17.0128 27.4697 22.2341Z" fill="#E5E7EB"/>
<path d="M21.0521 22.3503C20.8546 22.5176 20.6127 22.5992 20.3729 22.5992C20.0727 22.5992 19.7744 22.472 19.5657 22.2242L19.0545 21.6183V25.5852C19.0545 26.1675 18.5821 26.6399 17.9998 26.6399C17.4176 26.6399 16.9452 26.1675 16.9452 25.5852V21.6183L16.434 22.2242C16.0577 22.6695 15.3928 22.7263 14.9476 22.3503C14.5026 21.9749 14.4455 21.3096 14.8209 20.8644L16.9086 18.3895C17.1808 18.0676 17.578 17.8824 17.9998 17.8824C18.4217 17.8824 18.8189 18.0676 19.0911 18.3895L21.1787 20.8644C21.5542 21.3096 21.4971 21.9749 21.0521 22.3503Z" fill="#E9B771"/>
<path d="M21.0523 22.3503C20.8548 22.5176 20.6128 22.5992 20.373 22.5992C20.0728 22.5992 19.7746 22.472 19.5658 22.2242L19.0547 21.6183V25.5852C19.0547 26.1675 18.5823 26.6399 18 26.6399V17.8824C18.4219 17.8824 18.819 18.0676 19.0912 18.3895L21.1789 20.8644C21.5544 21.3096 21.4972 21.9749 21.0523 22.3503Z" fill="#E9B771"/>
</g>
<defs>
<clipPath id="clip0_89_4157">
<rect width="36" height="36" fill="white"/>
</clipPath>
</defs>
</svg>
