<svg preserveAspectRatio="none" overflow="visible" style="display: block;" width="12" height="12" viewBox="0 0 12 12" fill="none" xmlns="http://www.w3.org/2000/svg">
<g id="Check">
<path id="Vector" d="M10.8979 3.7725L4.89795 9.7725C4.84569 9.82494 4.78359 9.86655 4.71522 9.89494C4.64685 9.92333 4.57354 9.93794 4.49951 9.93794C4.42548 9.93794 4.35217 9.92333 4.2838 9.89494C4.21543 9.86655 4.15333 9.82494 4.10107 9.7725L1.47607 7.1475C1.42375 7.09518 1.38224 7.03306 1.35393 6.96469C1.32561 6.89633 1.31104 6.82306 1.31104 6.74906C1.31104 6.67507 1.32561 6.60179 1.35393 6.53343C1.38224 6.46506 1.42375 6.40295 1.47607 6.35062C1.5284 6.2983 1.59051 6.2568 1.65888 6.22848C1.72724 6.20016 1.80051 6.18559 1.87451 6.18559C1.94851 6.18559 2.02178 6.20016 2.09014 6.22848C2.15851 6.2568 2.22062 6.2983 2.27295 6.35062L4.49998 8.57766L10.102 2.97656C10.2077 2.87089 10.351 2.81152 10.5004 2.81152C10.6499 2.81152 10.7932 2.87089 10.8989 2.97656C11.0046 3.08223 11.0639 3.22556 11.0639 3.375C11.0639 3.52444 11.0046 3.66776 10.8989 3.77344L10.8979 3.7725Z" fill="white"/>
</g>
</svg>
