<svg preserveAspectRatio="none" overflow="visible" style="display: block;" width="30" height="30" viewBox="0 0 30 30" fill="none" xmlns="http://www.w3.org/2000/svg">
<g id="reicon:people">
<path id="Vector" d="M21.2125 18.05C22.925 18.3375 24.8125 18.0375 26.1375 17.15C27.9 15.975 27.9 14.05 26.1375 12.875C24.8 11.9875 22.8875 11.6875 21.175 11.9875M8.75 18.05C7.0375 18.3375 5.15 18.0375 3.825 17.15C2.0625 15.975 2.0625 14.05 3.825 12.875C5.1625 11.9875 7.075 11.6875 8.7875 11.9875M22.5 8.95C22.4213 8.93739 22.3412 8.93739 22.2625 8.95C21.4283 8.91983 20.6385 8.56651 20.06 7.9647C19.4815 7.36289 19.1597 6.55975 19.1625 5.725C19.1625 3.9375 20.6 2.5 22.3875 2.5C23.2428 2.5 24.0631 2.83978 24.6679 3.44458C25.2727 4.04939 25.6125 4.86968 25.6125 5.725C25.6099 6.56025 25.2846 7.36218 24.7045 7.96318C24.1245 8.56418 23.3346 8.91775 22.5 8.95ZM7.4625 8.95C7.5375 8.9375 7.625 8.9375 7.7 8.95C8.53421 8.91983 9.32401 8.56651 9.90249 7.9647C10.481 7.36289 10.8028 6.55975 10.8 5.725C10.8 3.9375 9.3625 2.5 7.575 2.5C6.71968 2.5 5.89939 2.83978 5.29458 3.44458C4.68978 4.04939 4.35 4.86968 4.35 5.725C4.3625 7.475 5.7375 8.8875 7.4625 8.95ZM15 18.2875C14.9213 18.2749 14.8412 18.2749 14.7625 18.2875C13.9283 18.2573 13.1385 17.904 12.56 17.3022C11.9815 16.7004 11.6597 15.8973 11.6625 15.0625C11.6625 13.275 13.1 11.8375 14.8875 11.8375C15.7428 11.8375 16.5631 12.1773 17.1679 12.7821C17.7727 13.3869 18.1125 14.2072 18.1125 15.0625C18.1 16.8125 16.725 18.2375 15 18.2875ZM11.3625 22.225C9.6 23.4 9.6 25.325 11.3625 26.5C13.3625 27.8375 16.6375 27.8375 18.6375 26.5C20.4 25.325 20.4 23.4 18.6375 22.225C16.65 20.9 13.3625 20.9 11.3625 22.225Z" stroke="#AF3838" stroke-width="1.875" stroke-linecap="round" stroke-linejoin="round"/>
</g>
</svg>
