<svg width="30" height="30" viewBox="0 0 30 30" fill="none" xmlns="http://www.w3.org/2000/svg">
<path fill-rule="evenodd" clip-rule="evenodd" d="M8.46878 6.5625H21.5313C22.5513 6.5625 23.3738 6.5625 24.04 6.6175C24.7275 6.67375 25.3288 6.7925 25.8863 7.0775C26.7613 7.52625 27.4738 8.23875 27.9225 9.11375C28.2075 9.67125 28.3263 10.2737 28.3825 10.96C28.4375 11.6262 28.4375 12.4487 28.4375 13.4688V13.6175C28.4388 14.04 28.44 14.49 28.2775 14.8925C28.1372 15.2379 27.9108 15.5417 27.62 15.775C27.4872 15.8805 27.3414 15.9688 27.1863 16.0375C27.1825 18.0525 27.1575 20.0875 26.9763 21.8325C26.87 22.8575 26.7075 23.8187 26.4488 24.6375C26.195 25.445 25.8188 26.2075 25.225 26.7362C24.1963 27.6513 22.9 28.055 21.2838 28.2488C19.6963 28.4375 17.6613 28.4375 15.0638 28.4375H14.9363C12.3388 28.4375 10.3038 28.4375 8.71628 28.2475C7.09878 28.055 5.80378 27.6513 4.77503 26.7362C4.18003 26.2087 3.80503 25.445 3.55003 24.6388C3.29253 23.8188 3.13003 22.8575 3.02378 21.8325C2.84253 20.0887 2.81628 18.0525 2.81253 16.0363C2.6579 15.9678 2.51258 15.88 2.38003 15.775C2.08924 15.5417 1.86291 15.2379 1.72253 14.8925C1.56003 14.49 1.56003 14.04 1.56253 13.6175V13.4688C1.56253 12.4487 1.56253 11.6262 1.61753 10.96C1.67378 10.2725 1.79253 9.67125 2.07753 9.11375C2.52582 8.23816 3.23819 7.52578 4.11378 7.0775C4.67003 6.7925 5.27253 6.67375 5.95878 6.6175C6.62628 6.5625 7.44878 6.5625 8.46878 6.5625ZM4.69003 16.6362C4.69878 18.4325 4.73503 20.1575 4.88878 21.64C4.98878 22.6025 5.13378 23.4237 5.33878 24.075C5.54878 24.7375 5.79003 25.1313 6.02003 25.335C6.63878 25.885 7.49253 26.2137 8.93878 26.385C10.4013 26.56 12.325 26.5625 15 26.5625C17.675 26.5625 19.5975 26.5612 21.0613 26.3862C22.5075 26.2137 23.3613 25.8837 23.98 25.335C24.2088 25.1313 24.4513 24.7375 24.66 24.075C24.865 23.425 25.0113 22.6025 25.1113 21.64C25.265 20.1575 25.3013 18.4312 25.31 16.6362L19.0625 18.51V18.9525C19.0625 19.59 18.6738 20.165 18.08 20.4025L17.205 20.7525C15.7895 21.3187 14.2105 21.3187 12.795 20.7525L11.92 20.4025C11.6302 20.2866 11.3816 20.0866 11.2065 19.8281C11.0314 19.5697 10.9377 19.2647 10.9375 18.9525V18.51L4.69003 16.6362ZM10.9375 16.5525L4.19628 14.53C4.01532 14.4787 3.83606 14.4216 3.65878 14.3588C3.62267 14.345 3.58722 14.3296 3.55253 14.3125C3.51228 14.2795 3.48092 14.237 3.46128 14.1887C3.45454 14.1511 3.44954 14.1131 3.44628 14.075C3.43728 13.8868 3.43437 13.6984 3.43753 13.51C3.43753 12.44 3.43753 11.6938 3.48628 11.1125C3.53253 10.5425 3.62003 10.2162 3.74628 9.96875C4.015 9.44319 4.44225 9.0155 4.96753 8.74625C5.21628 8.62 5.54253 8.53375 6.11253 8.48625C6.69378 8.43875 7.43878 8.4375 8.51003 8.4375H21.49C22.56 8.4375 23.3063 8.4375 23.8875 8.48625C24.4563 8.5325 24.7838 8.62 25.0313 8.74625C25.5563 9.015 25.9838 9.4425 26.2538 9.96875C26.38 10.2162 26.4663 10.5438 26.5138 11.1125C26.5613 11.6938 26.5625 12.44 26.5625 13.51C26.5625 13.7912 26.5625 13.9538 26.5525 14.075C26.5497 14.1131 26.5451 14.1511 26.5388 14.1887C26.5188 14.2371 26.487 14.2796 26.4463 14.3125C26.412 14.3295 26.377 14.3449 26.3413 14.3588C26.164 14.4216 25.9847 14.4787 25.8038 14.53L19.0625 16.5525V16.25C19.0625 15.3875 18.3625 14.6875 17.5 14.6875H12.5C11.6375 14.6875 10.9375 15.3875 10.9375 16.25V16.5525ZM12.8125 16.5625V18.74L13.4913 19.0112C14.4598 19.3987 15.5403 19.3987 16.5088 19.0112L17.1875 18.74V16.5625H12.8125ZM15 3.4375C14.4183 3.43732 13.8508 3.61755 13.3757 3.95336C12.9007 4.28916 12.5415 4.76402 12.3475 5.3125C12.2617 5.54303 12.0888 5.73061 11.8659 5.83479C11.6431 5.93897 11.3883 5.95139 11.1564 5.86939C10.9245 5.78738 10.7341 5.61752 10.6263 5.39642C10.5184 5.17533 10.5018 4.92072 10.58 4.6875C10.9032 3.77332 11.5019 2.98183 12.2936 2.42201C13.0853 1.86219 14.031 1.56158 15.0007 1.56158C15.9703 1.56158 16.9161 1.86219 17.7077 2.42201C18.4994 2.98183 19.0981 3.77332 19.4213 4.6875C19.5042 4.92205 19.4905 5.17992 19.3832 5.40438C19.276 5.62883 19.084 5.80149 18.8494 5.88438C18.6149 5.96726 18.357 5.95357 18.1325 5.84632C17.9081 5.73907 17.7354 5.54705 17.6525 5.3125C17.4586 4.76402 17.0994 4.28916 16.6243 3.95336C16.1493 3.61755 15.5818 3.43732 15 3.4375Z" fill="#008C36"/>
</svg>
