<svg width="30" height="30" viewBox="0 0 30 30" fill="none" xmlns="http://www.w3.org/2000/svg">
<path d="M15 1.875C7.75195 1.875 1.875 7.75195 1.875 15C1.875 22.248 7.75195 28.125 15 28.125C22.248 28.125 28.125 22.248 28.125 15C28.125 7.75195 22.248 1.875 15 1.875ZM15 25.8984C8.98242 25.8984 4.10156 21.0176 4.10156 15C4.10156 8.98242 8.98242 4.10156 15 4.10156C21.0176 4.10156 25.8984 8.98242 25.8984 15C25.8984 21.0176 21.0176 25.8984 15 25.8984ZM16.3975 14.3203L15.6533 14.1475V10.2129C16.7666 10.3652 17.4551 11.0625 17.5723 11.918C17.5869 12.0352 17.6865 12.1201 17.8037 12.1201H19.1191C19.2568 12.1201 19.3652 12 19.3535 11.8623C19.1748 10.0371 17.6719 8.86523 15.665 8.66309V7.70508C15.665 7.57617 15.5596 7.4707 15.4307 7.4707H14.6074C14.4785 7.4707 14.373 7.57617 14.373 7.70508V8.67188C12.2988 8.87402 10.6758 10.0195 10.6758 12.1582C10.6758 14.1387 12.1348 15.0938 13.667 15.46L14.3906 15.6445V19.8252C13.0957 19.6523 12.3691 18.9609 12.2197 18.0293C12.2021 17.918 12.1025 17.8359 11.9883 17.8359H10.6348C10.4971 17.8359 10.3887 17.9531 10.4004 18.0908C10.5322 19.7021 11.7539 21.1846 14.3613 21.375V22.2949C14.3613 22.4238 14.4668 22.5293 14.5957 22.5293H15.4277C15.5566 22.5293 15.6621 22.4238 15.6621 22.292L15.6563 21.3633C17.9502 21.1611 19.5908 19.9336 19.5908 17.7305C19.5879 15.6973 18.2959 14.7891 16.3975 14.3203ZM14.3877 13.8457C14.2236 13.7988 14.0859 13.7549 13.9482 13.6992C12.958 13.3418 12.498 12.7646 12.498 12.0205C12.498 10.957 13.3037 10.3506 14.3877 10.2129V13.8457ZM15.6533 19.834V15.917C15.7441 15.9434 15.8262 15.9639 15.9111 15.9814C17.2969 16.4033 17.7627 16.9893 17.7627 17.8887C17.7627 19.0342 16.9014 19.7227 15.6533 19.834Z" fill="#FFC800"/>
</svg>
