<svg width="30" height="30" viewBox="0 0 30 30" fill="none" xmlns="http://www.w3.org/2000/svg">
<path fill-rule="evenodd" clip-rule="evenodd" d="M16.25 16.25C17.5761 16.25 18.8479 16.7768 19.7855 17.7145C20.7232 18.6521 21.25 19.9239 21.25 21.25V23.75C21.25 24.0815 21.1183 24.3995 20.8839 24.6339C20.6495 24.8683 20.3315 25 20 25C19.6685 25 19.3505 24.8683 19.1161 24.6339C18.8817 24.3995 18.75 24.0815 18.75 23.75V21.25C18.75 20.587 18.4866 19.9511 18.0178 19.4822C17.5489 19.0134 16.913 18.75 16.25 18.75H7.5C6.83696 18.75 6.20107 19.0134 5.73223 19.4822C5.26339 19.9511 5 20.587 5 21.25V23.75C5 24.0815 4.8683 24.3995 4.63388 24.6339C4.39946 24.8683 4.08152 25 3.75 25C3.41848 25 3.10054 24.8683 2.86612 24.6339C2.6317 24.3995 2.5 24.0815 2.5 23.75V21.25C2.5 19.9239 3.02678 18.6521 3.96447 17.7145C4.90215 16.7768 6.17392 16.25 7.5 16.25H16.25ZM23.75 16.25C24.7446 16.25 25.6984 16.6451 26.4017 17.3483C27.1049 18.0516 27.5 19.0054 27.5 20V22.5C27.5 22.8315 27.3683 23.1495 27.1339 23.3839C26.8995 23.6183 26.5815 23.75 26.25 23.75C25.9185 23.75 25.6005 23.6183 25.3661 23.3839C25.1317 23.1495 25 22.8315 25 22.5V20C25 19.6685 24.8683 19.3505 24.6339 19.1161C24.3995 18.8817 24.0815 18.75 23.75 18.75H21.98C21.5476 17.7596 20.8659 16.8983 20.0012 16.25H23.75ZM11.875 3.75C13.3668 3.75 14.7976 4.34263 15.8525 5.39752C16.9074 6.45242 17.5 7.88316 17.5 9.375C17.5 10.8668 16.9074 12.2976 15.8525 13.3525C14.7976 14.4074 13.3668 15 11.875 15C10.3832 15 8.95242 14.4074 7.89752 13.3525C6.84263 12.2976 6.25 10.8668 6.25 9.375C6.25 7.88316 6.84263 6.45242 7.89752 5.39752C8.95242 4.34263 10.3832 3.75 11.875 3.75ZM22.5 7.5C23.4946 7.5 24.4484 7.89509 25.1517 8.59835C25.8549 9.30161 26.25 10.2554 26.25 11.25C26.25 12.2446 25.8549 13.1984 25.1517 13.9017C24.4484 14.6049 23.4946 15 22.5 15C21.5054 15 20.5516 14.6049 19.8483 13.9017C19.1451 13.1984 18.75 12.2446 18.75 11.25C18.75 10.2554 19.1451 9.30161 19.8483 8.59835C20.5516 7.89509 21.5054 7.5 22.5 7.5ZM11.875 6.25C11.0462 6.25 10.2513 6.57924 9.66529 7.16529C9.07924 7.75134 8.75 8.5462 8.75 9.375C8.75 10.2038 9.07924 10.9987 9.66529 11.5847C10.2513 12.1708 11.0462 12.5 11.875 12.5C12.7038 12.5 13.4987 12.1708 14.0847 11.5847C14.6708 10.9987 15 10.2038 15 9.375C15 8.5462 14.6708 7.75134 14.0847 7.16529C13.4987 6.57924 12.7038 6.25 11.875 6.25ZM22.5 10C22.1685 10 21.8505 10.1317 21.6161 10.3661C21.3817 10.6005 21.25 10.9185 21.25 11.25C21.25 11.5815 21.3817 11.8995 21.6161 12.1339C21.8505 12.3683 22.1685 12.5 22.5 12.5C22.8315 12.5 23.1495 12.3683 23.3839 12.1339C23.6183 11.8995 23.75 11.5815 23.75 11.25C23.75 10.9185 23.6183 10.6005 23.3839 10.3661C23.1495 10.1317 22.8315 10 22.5 10Z" fill="#FF8800"/>
</svg>
