<svg width="16" height="16" viewBox="0 0 16 16" fill="none" xmlns="http://www.w3.org/2000/svg">
<g clip-path="url(#clip0_845_18167)">
<path d="M4 1.5C4 1.63261 3.94732 1.75979 3.85355 1.85355C3.75979 1.94732 3.63261 2 3.5 2H3C2.449 2 2 2.449 2 3V3.5C2 3.63261 1.94732 3.75979 1.85355 3.85355C1.75979 3.94732 1.63261 4 1.5 4C1.36739 4 1.24021 3.94732 1.14645 3.85355C1.05268 3.75979 1 3.63261 1 3.5V3C1 1.897 1.897 1 3 1H3.5C3.63261 1 3.75979 1.05268 3.85355 1.14645C3.94732 1.24021 4 1.36739 4 1.5ZM1.5 8C1.63261 8 1.75979 7.94732 1.85355 7.85355C1.94732 7.75979 2 7.63261 2 7.5V5.5C2 5.36739 1.94732 5.24021 1.85355 5.14645C1.75979 5.05268 1.63261 5 1.5 5C1.36739 5 1.24021 5.05268 1.14645 5.14645C1.05268 5.24021 1 5.36739 1 5.5V7.5C1 7.63261 1.05268 7.75979 1.14645 7.85355C1.24021 7.94732 1.36739 8 1.5 8ZM1.5 12C1.63261 12 1.75979 11.9473 1.85355 11.8536C1.94732 11.7598 2 11.6326 2 11.5V9.5C2 9.36739 1.94732 9.24021 1.85355 9.14645C1.75979 9.05268 1.63261 9 1.5 9C1.36739 9 1.24021 9.05268 1.14645 9.14645C1.05268 9.24021 1 9.36739 1 9.5V11.5C1 11.6326 1.05268 11.7598 1.14645 11.8536C1.24021 11.9473 1.36739 12 1.5 12ZM3.5 15H3C2.449 15 2 14.551 2 14V13.5C2 13.3674 1.94732 13.2402 1.85355 13.1464C1.75979 13.0527 1.63261 13 1.5 13C1.36739 13 1.24021 13.0527 1.14645 13.1464C1.05268 13.2402 1 13.3674 1 13.5V14C1 15.103 1.897 16 3 16H3.5C3.63261 16 3.75979 15.9473 3.85355 15.8536C3.94732 15.7598 4 15.6326 4 15.5C4 15.3674 3.94732 15.2402 3.85355 15.1464C3.75979 15.0527 3.63261 15 3.5 15ZM10.5 2H11C11.551 2 12 2.449 12 3V3.5C12 3.63261 12.0527 3.75979 12.1464 3.85355C12.2402 3.94732 12.3674 4 12.5 4C12.6326 4 12.7598 3.94732 12.8536 3.85355C12.9473 3.75979 13 3.63261 13 3.5V3C13 1.897 12.103 1 11 1H10.5C10.3674 1 10.2402 1.05268 10.1464 1.14645C10.0527 1.24021 10 1.36739 10 1.5C10 1.63261 10.0527 1.75979 10.1464 1.85355C10.2402 1.94732 10.3674 2 10.5 2ZM5.5 2H8.5C8.63261 2 8.75979 1.94732 8.85355 1.85355C8.94732 1.75979 9 1.63261 9 1.5C9 1.36739 8.94732 1.24021 8.85355 1.14645C8.75979 1.05268 8.63261 1 8.5 1H5.5C5.36739 1 5.24021 1.05268 5.14645 1.14645C5.05268 1.24021 5 1.36739 5 1.5C5 1.63261 5.05268 1.75979 5.14645 1.85355C5.24021 1.94732 5.36739 2 5.5 2ZM14 7V14C14 15.103 13.103 16 12 16H7C5.897 16 5 15.103 5 14V7C5 5.897 5.897 5 7 5H12C13.103 5 14 5.897 14 7ZM13 7C13 6.449 12.551 6 12 6H7C6.449 6 6 6.449 6 7V14C6 14.551 6.449 15 7 15H12C12.551 15 13 14.551 13 14V7ZM11.5 8H7.5C7.36739 8 7.24021 8.05268 7.14645 8.14645C7.05268 8.24021 7 8.36739 7 8.5C7 8.63261 7.05268 8.75979 7.14645 8.85355C7.24021 8.94732 7.36739 9 7.5 9H11.5C11.6326 9 11.7598 8.94732 11.8536 8.85355C11.9473 8.75979 12 8.63261 12 8.5C12 8.36739 11.9473 8.24021 11.8536 8.14645C11.7598 8.05268 11.6326 8 11.5 8ZM15.5 7H15V9H15.5C15.6326 9 15.7598 8.94732 15.8536 8.85355C15.9473 8.75979 16 8.63261 16 8.5V7.5C16 7.36739 15.9473 7.24021 15.8536 7.14645C15.7598 7.05268 15.6326 7 15.5 7ZM15.5 10H15V12H15.5C15.6326 12 15.7598 11.9473 15.8536 11.8536C15.9473 11.7598 16 11.6326 16 11.5V10.5C16 10.3674 15.9473 10.2402 15.8536 10.1464C15.7598 10.0527 15.6326 10 15.5 10ZM15.5 13H15V15H15.5C15.6326 15 15.7598 14.9473 15.8536 14.8536C15.9473 14.7598 16 14.6326 16 14.5V13.5C16 13.3674 15.9473 13.2402 15.8536 13.1464C15.7598 13.0527 15.6326 13 15.5 13Z" fill="#BC8B41"/>
</g>
<defs>
<clipPath id="clip0_845_18167">
<rect width="16" height="16" fill="white"/>
</clipPath>
</defs>
</svg>
