<svg width="14" height="14" viewBox="0 0 14 14" fill="none" xmlns="http://www.w3.org/2000/svg">
<path d="M6.99992 2.91671L6.99992 2.92254M6.99992 7.00004L6.99992 7.00587M6.99992 11.0834L6.99992 11.0892M6.99992 3.50004C6.67775 3.50004 6.41659 3.23887 6.41659 2.91671C6.41659 2.59454 6.67775 2.33337 6.99992 2.33337C7.32208 2.33337 7.58325 2.59454 7.58325 2.91671C7.58325 3.23887 7.32208 3.50004 6.99992 3.50004ZM6.99992 7.58337C6.67775 7.58337 6.41659 7.32221 6.41659 7.00004C6.41659 6.67787 6.67775 6.41671 6.99992 6.41671C7.32208 6.41671 7.58325 6.67787 7.58325 7.00004C7.58325 7.32221 7.32208 7.58337 6.99992 7.58337ZM6.99992 11.6667C6.67775 11.6667 6.41658 11.4055 6.41658 11.0834C6.41658 10.7612 6.67775 10.5 6.99992 10.5C7.32208 10.5 7.58325 10.7612 7.58325 11.0834C7.58325 11.4055 7.32208 11.6667 6.99992 11.6667Z" stroke="#BC8B41" stroke-linecap="round" stroke-linejoin="round"/>
</svg>
